<svg width="20px" height="20px" viewBox="0 0 20 20" version="1.1" xmlns="http://www.w3.org/2000/svg" xmlns:xlink="http://www.w3.org/1999/xlink">
    <!-- Generator: Sketch 47.1 (45422) - http://www.bohemiancoding.com/sketch -->
    <desc>Created with Sketch.</desc>
    <defs>
        <linearGradient x1="-22.0013033%" y1="-49.7689834%" x2="98.4912824%" y2="164.013367%" id="linearGradient-1">
            <stop stop-color="#000000" offset="0%"></stop>
            <stop stop-color="#8A8A8A" offset="100%"></stop>
        </linearGradient>
    </defs>
    <g id="UI-Kit" stroke="none" stroke-width="1" fill="none" fill-rule="evenodd">
        <g id="Icons" transform="translate(-1071.000000, -242.000000)" fill="url(#linearGradient-1)">
            <g id="Icon/Small/Boosters" transform="translate(1071.000000, 242.000000)">
                <g id="Boosters-Icon-(Small)">
                    <path d="M9.63568429,9.93189465 C11.8374755,10.8026876 12.8826692,12.8397578 13.3771021,14.6728326 C13.8715351,12.8397578 14.9158942,10.8026876 17.1181027,9.93189465 C14.9158942,9.06110172 13.8715351,7.02403147 13.3771021,5.19095672 C12.8826692,7.02403147 11.8374755,9.06110172 9.63568429,9.93189465 M13.3787711,18.555753 L13.3754332,18.555753 C13.2569361,18.555753 13.1426116,18.5083602 13.0604147,18.4238772 C12.9778006,18.3393942 12.9335728,18.2256512 12.937328,18.1086114 L12.9385797,18.004347 L12.9385797,17.9450029 C12.9335728,16.6798186 12.6331579,10.3650245 7.19230938,10.3650245 C6.9498912,10.3650245 6.753787,10.1713318 6.753787,9.93189465 C6.753787,9.6924575 6.9498912,9.4987648 7.19230938,9.4987648 C12.6331579,9.4987648 12.9335728,3.18438277 12.9385797,1.91878642 L12.9385797,1.85944228 L12.937328,1.75517791 C12.9335728,1.63813806 12.9778006,1.52439512 13.0604147,1.44032424 C13.2256429,1.27135827 13.5268924,1.27135827 13.6921206,1.44032424 C13.7747347,1.52439512 13.8206314,1.63813806 13.8168762,1.75517791 L13.8156245,1.85944228 L13.8156245,1.86727241 C13.8152073,1.87427831 13.8152073,1.88210844 13.8143728,1.88870224 C13.8152073,1.89900504 13.8156245,1.90848362 13.8156245,1.91878642 C13.8206314,3.18438277 14.1206291,9.4987648 19.5614776,9.4987648 C19.8038958,9.4987648 20,9.6924575 20,9.93189465 C20,10.1713318 19.8038958,10.3650245 19.5614776,10.3650245 C14.1206291,10.3650245 13.8206314,16.6798186 13.8156245,17.9450029 L13.8156245,17.945415 L13.8156245,17.9466513 C13.8156245,17.956542 13.8152073,17.9656085 13.8143728,17.9750871 C13.8152073,17.9845656 13.8156245,17.9940442 13.8156245,18.004347 L13.8168762,18.1086114 C13.8206314,18.2256512 13.7764037,18.3393942 13.6942068,18.4238772 C13.6111754,18.5083602 13.4972681,18.555753 13.3787711,18.555753 M2.05074926,4.10961571 C2.2297465,4.22253443 2.39580921,4.3572951 2.54893739,4.51348559 C2.84100747,4.81185477 3.05630485,5.16297431 3.2140227,5.5227482 C3.37257504,5.16297431 3.58828966,4.81185477 3.8799425,4.51348559 C4.03265344,4.3572951 4.19913339,4.22253443 4.37813063,4.10961571 C4.19913339,3.9971091 4.03265344,3.86234843 3.8799425,3.70615793 C3.58828966,3.40778875 3.37299228,3.05708133 3.21485719,2.69813167 C3.05254967,3.06532357 2.83141089,3.42262479 2.52932697,3.72511509 C2.38204019,3.87347546 2.22223613,4.00123022 2.05074926,4.10961571 M3.21527443,8.21919785 L3.20943303,8.21919785 C2.97535972,8.21672518 2.78509692,8.03251106 2.7771693,7.80049193 C2.77675206,7.78854068 2.77466584,7.73702666 2.77633481,7.65460424 C2.76757271,7.22477129 2.6761965,5.87469195 1.90554871,5.10198171 C1.53003002,4.72572334 1.05020059,4.54274555 0.438522376,4.54274555 C0.196104202,4.54274555 0,4.34905285 0,4.10961571 C0,3.87059067 0.196104202,3.67689797 0.438522376,3.67689797 C1.05729372,3.67689797 1.54087834,3.48938695 1.91848324,3.10447423 C2.72000701,2.28560743 2.77383135,0.847748212 2.77591757,0.516822173 L2.77591757,0.490034884 C2.77591757,0.46407182 2.77550033,0.449235783 2.77550033,0.447999447 C2.76924168,0.269554895 2.87438691,0.10594638 3.04044962,0.0350630944 C3.20484336,-0.0349959674 3.3984441,0.00168201199 3.52528597,0.129436772 C3.60456213,0.208150188 3.64920713,0.319420463 3.65171059,0.430278626 L3.65337956,0.430278626 C3.65379681,0.467368717 3.65463129,0.520943294 3.65254508,0.588529683 C3.66464512,1.04267725 3.76603517,2.35855127 4.52333118,3.11766181 C4.89884987,3.49392019 5.37909654,3.67689797 5.99035751,3.67689797 C6.23277569,3.67689797 6.42887989,3.87059067 6.42887989,4.10961571 C6.42887989,4.34905285 6.23277569,4.54274555 5.99035751,4.54274555 C5.37158617,4.54274555 4.88716707,4.73025657 4.51039665,5.1151693 C3.70762115,5.93527244 3.65379681,7.37642855 3.65254508,7.70405769 L3.65254508,7.7279602 C3.65254508,7.75474748 3.65296232,7.76999563 3.65296232,7.77164408 C3.65922097,7.94967652 3.55449298,8.11328504 3.38801303,8.18416832 C3.33210247,8.2072466 3.27368845,8.21919785 3.21527443,8.21919785 M6.78708299,16.655298 C6.89264547,16.7311266 6.9919493,16.8168459 7.08582897,16.9120438 C7.2773435,17.1082092 7.42838546,17.331574 7.54688246,17.563181 C7.66579672,17.331574 7.81725592,17.1082092 8.00918769,16.9120438 C8.10265012,16.8168459 8.20237119,16.7311266 8.30751642,16.655298 C8.20237119,16.5794693 8.10265012,16.4933379 8.00918769,16.39814 C7.81767316,16.2019746 7.66621396,15.9794341 7.54771695,15.7478271 C7.42546476,15.9852036 7.26899864,16.2139259 7.07039098,16.4133881 C6.98110098,16.5028165 6.88680406,16.5831783 6.78708299,16.655298 M7.54771695,20 L7.53978933,20 C7.30696775,19.996291 7.11753943,19.812489 7.10961182,19.5817062 C7.10919458,19.5714034 7.10836009,19.5264832 7.10919458,19.4531272 C7.09918074,18.923151 6.95231121,18.0119711 6.44577823,17.5046611 C6.16664268,17.2244248 5.80697922,17.0880157 5.34842918,17.0880157 C5.10601101,17.0880157 4.90990681,16.894323 4.90990681,16.655298 C4.90990681,16.4158608 5.10601101,16.2221681 5.34842918,16.2221681 C5.81240338,16.2221681 6.17457029,16.0824621 6.45495758,15.7960442 C7.1346464,15.1020474 7.10877733,13.7709252 7.10877733,13.7573255 C7.10251869,13.579293 7.20766392,13.4156845 7.37372663,13.3452134 C7.54020658,13.2747422 7.73255559,13.3122444 7.85898022,13.4387628 C7.93783914,13.5183004 7.98290138,13.6283344 7.9849876,13.7391925 L7.98623933,13.7391925 C7.98665657,13.7709252 7.98665657,13.8174938 7.98540484,13.8760138 C7.99917386,14.4080505 8.14854685,15.3043944 8.64923843,15.8055228 C8.92837398,16.085759 9.28720295,16.2221681 9.74617023,16.2221681 C9.9885884,16.2221681 10.1846926,16.4158608 10.1846926,16.655298 C10.1846926,16.894323 9.9885884,17.0880157 9.74617023,17.0880157 C9.28219603,17.0880157 8.92002912,17.2277217 8.63964184,17.5145518 C7.95995302,18.2085486 7.98540484,19.5392586 7.98582208,19.5528583 C7.99249797,19.7308908 7.8869355,19.8944993 7.72087279,19.9649705 C7.66496223,19.988873 7.60613097,20 7.54771695,20 M13.5542635,12.4126448 C13.536322,12.4126448 13.5179634,12.4109964 13.5000219,12.4068752 C13.3589938,12.3776153 13.2688693,12.2407941 13.2989108,12.1019123 C13.685695,10.2935643 14.9854069,9.65602679 15.040483,9.62965161 C15.1702456,9.56783479 15.3258772,9.62140937 15.3884636,9.74957624 C15.4510501,9.877331 15.3968085,10.0310488 15.2678804,10.0928656 C15.2219837,10.1155318 14.1409071,10.6578714 13.8087817,12.2082372 C13.7829126,12.3298103 13.6748467,12.4126448 13.5542635,12.4126448" id="Fill-1"></path>
                </g>
            </g>
        </g>
    </g>
</svg>
