<svg width="20px" height="20px" viewBox="0 0 20 20" version="1.1" xmlns="http://www.w3.org/2000/svg" xmlns:xlink="http://www.w3.org/1999/xlink">
    <!-- Generator: Sketch 47.1 (45422) - http://www.bohemiancoding.com/sketch -->
    <desc>Created with Sketch.</desc>
    <defs>
        <linearGradient x1="-22.0013033%" y1="-49.7689834%" x2="98.4912824%" y2="164.013367%" id="linearGradient-1">
            <stop stop-color="#000000" offset="0%"></stop>
            <stop stop-color="#8A8A8A" offset="100%"></stop>
        </linearGradient>
    </defs>
    <g id="UI-Kit" stroke="none" stroke-width="1" fill="none" fill-rule="evenodd">
        <g id="Icons" transform="translate(-921.000000, -242.000000)" fill="url(#linearGradient-1)">
            <g id="Icon/Small/Butters" transform="translate(921.000000, 242.000000)">
                <g id="Butters-Icon-(Small)">
                    <path d="M19.2440484,8.4338891 C13.081574,8.4338891 6.91909965,8.4338891 0.756625259,8.4338891 L0.756625259,6.99134595 C6.91909965,6.99081696 13.081574,6.99081696 19.2440484,6.99134595 C19.2435142,7.47219367 19.2435142,7.95304139 19.2440484,8.4338891 L19.2440484,8.4338891 Z M1.27109971,19.2511113 C1.27056547,15.894699 1.27056547,12.5388157 1.27056547,9.18293241 C7.06761876,9.18187444 12.8641378,9.18451937 18.6601226,9.18187444 C18.6643965,12.5377577 18.6611911,15.894699 18.6622596,19.2511113 L1.27109971,19.2511113 Z M2.48008797,5.50013614 C2.69645573,5.27373039 2.93365891,5.06636812 3.18582084,4.88016526 C3.5389544,4.62149141 3.94070392,4.44110739 4.34405617,4.27500598 C5.60059191,3.81320173 6.98694831,3.71375248 8.30064788,3.96819445 C8.46679695,3.9988756 8.62974057,4.05547704 8.80069781,4.04172342 C9.14368079,4.1041437 9.48933496,4.15810021 9.83819459,4.17449875 C10.122411,4.18772339 10.4076959,4.22633932 10.6924466,4.19618715 C10.9787999,4.17767267 11.2662218,4.16656397 11.5515067,4.129535 C12.5542778,3.99411474 13.5426244,3.67725249 14.3968763,3.13186855 C14.8616663,2.83034688 15.2895937,2.46217305 15.6149467,2.01359344 C15.7324798,1.84220218 15.8585608,1.67398482 15.934423,1.47984718 C16.0070799,1.33966606 16.0893531,1.20001391 16.1059145,1.03920236 C16.8014968,1.61156455 17.3880939,2.32675279 17.7524465,3.14985406 C18.1622096,4.03960748 18.2979069,5.05208551 18.1317579,6.01695486 C18.1162649,6.09259977 18.1274839,6.16983164 18.1488536,6.24283162 C12.7669059,6.24124467 7.38495814,6.24336061 2.00354465,6.24177365 C2.11894079,5.97093313 2.28348714,5.72125203 2.48008797,5.50013614 L2.48008797,5.50013614 Z M20,6.68770834 C19.9925206,6.48351998 19.8504124,6.26028814 19.6287022,6.24494757 C19.3706636,6.23965771 19.1131593,6.24336061 18.8551207,6.24336061 C19.1377344,4.85212904 18.8321483,3.37096995 18.0868816,2.16594123 C17.6087356,1.3851588 16.961235,0.709115473 16.2116943,0.178014142 C16.1251472,0.12088372 16.0444768,0.0505286636 15.9440394,0.0166735987 C15.764,-0.0415147941 15.5529747,0.057934459 15.4840576,0.231970652 C15.4397155,0.321369183 15.4642906,0.420818436 15.4658934,0.514977835 C15.392168,0.804332842 15.3045525,1.09421684 15.1517594,1.35289069 C14.7831329,1.95381809 14.2114946,2.40821654 13.5880349,2.73036864 C12.5713735,3.25935403 11.40833,3.47570906 10.2655877,3.44185399 C9.75538717,3.43656414 9.24518665,3.37837574 8.7488764,3.25829606 C8.6495075,3.22973085 8.54533043,3.24983229 8.44435881,3.23290476 C7.65688701,3.08002798 6.84590858,3.04458596 6.04668347,3.12234682 C5.24585563,3.20645549 4.4503702,3.39265835 3.71685678,3.72644813 C3.10835584,3.98935387 2.54740239,4.3612306 2.07994117,4.82779571 C1.68193134,5.22347678 1.36352347,5.70696942 1.19897713,6.24230264 C0.956431537,6.24283162 0.713885948,6.24177365 0.4718746,6.24230264 C0.390669909,6.24071568 0.309465218,6.26346205 0.243753528,6.31054175 C0.161480354,6.36502725 0.120343767,6.45759969 0.0663853872,6.53588953 C0.0204406279,6.60148372 -0.00199751028,6.68136051 0.000139455261,6.76070832 C0.00120793803,7.45367918 0.000139455261,8.14717902 0.00120793803,8.84014988 C0.000139455261,8.99778753 0.112864388,9.14590344 0.265123183,9.19192517 C0.346327874,9.21996139 0.43340922,9.20726574 0.515682393,9.18980922 C0.513011186,12.6461998 0.515682393,16.1031193 0.514079669,19.5600388 C0.509805738,19.6748286 0.557887463,19.7896184 0.647105774,19.8636764 C0.750748603,19.9393213 0.88056926,19.9779372 1.00558174,19.9990967 C6.99549617,20.0006836 12.9854106,19.9985677 18.9758593,19.9996256 C19.085913,20.0043865 19.1991722,19.9636546 19.2750344,19.8821909 C19.3813485,19.7520605 19.4337041,19.5774953 19.4187454,19.4108649 C19.4176769,16.0015541 19.4182111,12.5917143 19.4182111,9.18240343 C19.5336073,9.17922952 19.6564828,9.19933096 19.7643995,9.14643242 C19.8904805,9.08824403 19.9796988,8.95441073 19.9770276,8.81528757 C19.9759591,8.73117889 19.9983973,8.64918616 20,8.56454849 C19.9994658,7.93928777 20,7.31349805 20,6.68770834 L20,6.68770834 Z M4.19084953,16.9067666 L16.1109226,16.9067666 L16.1109226,11.4556528 L4.19084953,11.4556528 L4.19084953,16.9067666 Z M16.4253929,10.8312333 L3.87637925,10.8312333 C3.7029151,10.8312333 3.56190897,10.9708156 3.56190897,11.1431787 L3.56190897,17.2192407 C3.56190897,17.3916038 3.7029151,17.5317148 3.87637925,17.5317148 L16.4253929,17.5317148 C16.598857,17.5317148 16.7398632,17.3916038 16.7398632,17.2192407 L16.7398632,11.1431787 C16.7398632,10.9708156 16.598857,10.8312333 16.4253929,10.8312333 L16.4253929,10.8312333 Z M16.5051278,2.79809957 C16.3843553,2.68212985 16.2029418,2.69747878 16.0984762,2.83107135 C15.9940105,2.96466392 16.0062406,3.16817941 16.1265035,3.28528609 C16.1642131,3.32223722 17.0539546,4.20849601 16.8414562,5.51429231 C16.8129193,5.68938385 16.9173849,5.85708516 17.0738286,5.88891998 C17.0911546,5.89233085 17.1089902,5.89403629 17.1263162,5.89403629 C17.2628859,5.89403629 17.3846776,5.78488832 17.4096474,5.62969355 C17.6827868,3.95552285 16.5530291,2.84471485 16.5051278,2.79809957" id="Fill-1-Copy"></path>
                </g>
            </g>
        </g>
    </g>
</svg>
