<svg width="20px" height="20px" viewBox="0 0 20 20" version="1.1" xmlns="http://www.w3.org/2000/svg" xmlns:xlink="http://www.w3.org/1999/xlink">
    <!-- Generator: Sketch 47.1 (45422) - http://www.bohemiancoding.com/sketch -->
    <desc>Created with Sketch.</desc>
    <defs>
        <linearGradient x1="-22.0013033%" y1="-49.7689834%" x2="98.4912824%" y2="164.013367%" id="linearGradient-1">
            <stop stop-color="#000000" offset="0%"></stop>
            <stop stop-color="#8A8A8A" offset="100%"></stop>
        </linearGradient>
    </defs>
    <g id="UI-Kit" stroke="none" stroke-width="1" fill="none" fill-rule="evenodd">
        <g id="Icons" transform="translate(-267.000000, -242.000000)" fill="url(#linearGradient-1)">
            <g id="Icon/Small/Focus" transform="translate(267.000000, 242.000000)">
                <g id="Focus-Icon-(Small)">
                    <path d="M16.7973311,9.68386023 C16.7306088,9.75041597 16.6305254,9.81697171 16.5301084,9.81697171 C16.430025,9.81697171 16.3302752,9.78369384 16.2632193,9.68386023 C16.0964137,9.51747088 16.0964137,9.28452579 16.2632193,9.11813644 C17.7314429,7.65391015 17.7314429,5.25790349 16.2632193,3.76039933 C16.0964137,3.59400998 16.0964137,3.36106489 16.2632193,3.19467554 C16.430025,3.02828619 16.6638866,3.02828619 16.8306922,3.19467554 C18.5984987,4.99168053 18.5984987,7.88685524 16.7973311,9.68386023 L16.7973311,9.68386023 Z M17.5309425,10.4159734 C16.4637198,11.4808652 15.0288574,12.0798669 13.5276063,12.0798669 C12.0263553,12.0798669 10.5918265,11.4808652 9.52460384,10.4159734 C8.45704754,9.35108153 7.85654712,7.92013311 7.85654712,6.42262895 C7.85654712,4.92512479 8.45704754,3.49417637 9.52460384,2.42928453 C10.5918265,1.36439268 12.0263553,0.765391015 13.5276063,0.765391015 C15.0288574,0.765391015 16.4637198,1.36439268 17.5309425,2.42928453 C19.7331109,4.65890183 19.7331109,8.21963394 17.5309425,10.4159734 L17.5309425,10.4159734 Z M7.95663053,12.7787022 L7.18932444,12.0133111 L8.59015847,10.6156406 L9.35779817,11.3810316 L7.95663053,12.7787022 Z M7.75613011,14.2762063 L2.95246038,19.0682196 C2.78565471,19.234609 2.55212677,19.234609 2.3853211,19.0682196 L0.884070058,17.5707155 C0.717264387,17.4043261 0.717264387,17.171381 0.884070058,17.0049917 L5.68807339,12.2129784 C5.75446205,12.1464226 5.85487907,12.0798669 5.95496247,12.0798669 C6.05504587,12.0798669 6.15512927,12.1131448 6.22185154,12.2129784 L6.32193495,12.312812 L7.62301918,13.6106489 L7.72310259,13.7104825 C7.78982485,13.7770383 7.85654712,13.8768719 7.85654712,13.9767055 C7.88990826,14.109817 7.82318599,14.2096506 7.75613011,14.2762063 L7.75613011,14.2762063 Z M18.0980817,1.8968386 C16.8974145,0.665557404 15.2623853,0 13.5613011,0 C11.8265221,0 10.2251877,0.665557404 8.99082569,1.8968386 C7.75613011,3.1281198 7.08890742,4.72545757 7.08890742,6.45590682 C7.08890742,7.72046589 7.45621351,8.91846922 8.1234362,9.98336106 L6.58849041,11.5141431 C6.12176814,11.2146423 5.52126772,11.281198 5.08723937,11.6805324 L0.35029191,16.4392679 C-0.11676397,16.9051581 -0.11676397,17.6705491 0.35029191,18.1364393 L1.85154295,19.6339434 C2.08473728,19.8668885 2.3853211,20 2.68557131,20 C2.98582152,20 3.28607173,19.8668885 3.51959967,19.6339434 L8.323603,14.8419301 C8.55713094,14.608985 8.69057548,14.3094842 8.69057548,14.0099834 C8.69057548,13.7770383 8.62385321,13.577371 8.52376981,13.3777038 L10.058382,11.8469218 C11.0922435,12.5124792 12.3269391,12.8785358 13.5943286,12.8785358 C15.3294412,12.8785358 16.930442,12.2129784 18.1651376,10.9816972 C19.3327773,9.78369384 20,8.1530782 20,6.42262895 C20,4.72545757 19.3327773,3.09484193 18.0980817,1.8968386 L18.0980817,1.8968386 Z" id="Fill-1"></path>
                </g>
            </g>
        </g>
    </g>
</svg>
