<svg width="275px" height="52px" viewBox="0 0 275 52" version="1.1" xmlns="http://www.w3.org/2000/svg" xmlns:xlink="http://www.w3.org/1999/xlink">
    <!-- Generator: Sketch 47.1 (45422) - http://www.bohemiancoding.com/sketch -->
    <desc>Created with Sketch.</desc>
    <defs></defs>
    <g id="Design-v2" stroke="none" stroke-width="1" fill="none" fill-rule="evenodd">
        <g id="2" transform="translate(-847.000000, -41.000000)" fill="#000000">
            <g id="Logo" transform="translate(847.000000, 41.000000)">
                <g id="Page-1">
                    <g id="Group-3" transform="translate(255.074597, 0.074995)">
                        <path d="M10.6791198,39.2729597 C10.7315877,37.6683633 10.4861994,36.2179854 10.198736,34.771332 C10.1441492,34.4962152 9.94305602,34.4994365 9.74145829,34.4844374 C8.96725442,34.4265552 8.2593417,34.205596 7.67109609,33.6724754 C7.51419696,33.5303368 7.32188201,33.4583614 7.11140511,33.5418125 C6.42276424,33.8147147 5.72766578,34.0543975 4.98373184,34.1382513 C4.77375943,34.1619075 4.59446055,34.3463254 4.60404603,34.5510775 C4.61342971,34.7520044 4.85841433,34.7345894 5.01329547,34.7514004 C5.86630205,34.84371 6.58057146,35.2368059 7.22552274,35.7671079 C8.03221633,36.4301867 8.69613676,37.2362095 9.40727828,37.9939132 C9.79412797,38.4060348 10.1531293,38.8441278 10.6791198,39.2729597 M6.65483369,21.1476644 C5.86539395,21.2183311 5.08967658,21.3283576 4.31204212,21.3457726 C3.53440766,21.3631877 3.03212865,21.5847508 2.880779,22.4429179 C2.79289531,22.9420139 2.49715811,23.4047698 2.29313879,23.8831288 C2.2484402,23.9876188 2.21695947,24.1291535 2.05541895,24.0765058 C1.91980967,24.032314 1.90628911,23.9009464 1.91668178,23.7825647 C1.92697356,23.6670015 1.96965416,23.554559 1.98448642,23.4391972 C2.00002498,23.3192047 2.15097103,23.1750528 1.98277113,23.0828439 C1.84847354,23.0092579 1.73364961,23.1391155 1.62659497,23.2154194 C1.28979156,23.4557062 1.10877739,23.767163 1.12774655,24.1980082 C1.13591943,24.38454 1.13904732,24.6557309 0.857940583,24.6497916 C0.619413547,24.6447584 0.665726537,24.3937005 0.603370484,24.2261943 C0.301377498,23.4154403 0.66017705,22.8897689 1.28979156,22.4296302 C1.54224277,22.245011 1.75493946,21.9868059 1.93585274,21.7275941 C2.4160347,21.0393491 3.11204126,20.7061487 3.87908125,20.4632446 C5.35181417,19.9968648 6.80194554,19.452369 8.3430885,19.2317119 C8.77271968,19.1702057 9.00721073,18.8600575 9.18489521,18.5053149 C9.68404633,17.509539 9.7373214,16.4437005 9.64661252,15.3622589 C9.59162215,14.7059246 9.46902894,14.0924735 8.92931611,13.6009274 C8.58908212,13.2909806 8.54619972,12.8192655 8.80359501,12.3946615 C8.91085146,12.2177935 8.91307125,12.0529047 8.88189323,11.8673795 C8.82649926,11.5369977 8.77594848,11.20571 8.7243887,10.8746236 C8.66092275,10.4659246 8.86302497,10.2323823 9.23988558,10.1404754 C9.56165492,10.0619569 9.74408169,10.1500386 9.61957138,10.5268268 C9.58809066,10.6218543 9.56205852,10.7202038 9.54752895,10.8191573 C9.46075516,11.4123747 9.51645183,11.4517347 10.0842148,11.5713244 C10.5884109,11.6775257 11.0587047,11.6791364 11.5644143,11.5369977 C12.3630359,11.3125153 13.1709403,11.4674384 13.9481712,11.6948401 C14.3634746,11.8163425 14.4902047,11.6921221 14.5292529,11.2991269 C14.5553859,11.0361905 14.6201636,10.762483 14.7346848,10.5261221 C14.9605994,10.0601449 14.7441694,10.0355827 14.3602458,10.0643728 C13.3729416,10.1383614 12.3839222,10.1929217 11.3952054,10.2444621 C11.2384072,10.252616 11.0601173,10.3004317 10.9096757,10.1510452 C10.9328827,10.109672 10.944688,10.0523937 10.9781867,10.0335694 C11.7552157,9.59728832 11.7563256,9.59789231 11.4456553,8.76227407 C11.3929856,8.62084008 11.3367844,8.48041273 11.2749329,8.34280399 C10.9080613,7.52460076 10.9048325,7.51846021 10.0728131,7.84099012 C9.76849943,7.95896923 9.61866328,7.87481349 9.49778537,7.57432915 C9.30920372,7.10573466 9.21365164,6.57472802 8.73649667,6.26770047 C8.66223444,6.21988471 8.63539511,6.1162 8.67454422,6.04009744 C8.93839709,5.5259018 8.61289446,5.53345166 8.24440853,5.51100342 C7.92859228,5.49187711 7.67725097,5.30474131 7.51944374,5.02459126 C7.40764681,4.826483 7.32097391,4.52066344 7.50148359,4.41858936 C7.9632009,4.15726363 7.97147468,3.73668623 8.03433523,3.31550484 C8.04139821,3.26778974 8.06369706,3.21141747 8.09830568,3.18041273 C9.14110471,2.24775366 9.91500588,0.873176258 11.6239451,1.03091795 C11.8990988,1.05628547 12.0936335,0.94394359 12.2898836,0.756203799 C13.1572179,-0.0733745489 14.8491051,-0.218432479 15.8539659,0.434277873 C16.5902314,0.912334853 16.8044416,1.66258936 16.8927289,2.46589421 C17.0387309,3.79567578 16.7775014,5.03324843 16.0266053,6.15958651 C15.813505,6.47929782 15.5999003,6.80384103 15.4726657,7.17328072 C15.2396881,7.84984862 15.5177678,8.26589611 16.2297166,8.29327692 C16.474903,8.30273941 16.7207957,8.29488756 16.9796036,8.29488756 C16.6467353,8.97719335 15.8369138,9.36898063 15.0794593,9.23640513 C14.2479443,9.0910452 13.5853356,8.40310218 13.5167238,7.61177645 C13.4533587,6.8810509 13.6176235,6.1799208 13.7827964,5.47577075 C13.996603,4.56374796 14.2620703,3.65343647 14.0295973,2.6993358 C13.9319263,2.29858936 13.7649372,1.94223609 13.4137051,1.68181633 C13.7959134,2.14346496 13.8637181,2.70789231 13.9436307,3.2613472 C14.0322207,3.87409364 13.8807701,4.46117056 13.6699905,5.03254378 C13.4624397,5.59485717 13.1099968,6.06757892 12.6873277,6.47959981 C12.4672654,6.69411643 12.4435539,6.89423799 12.5554517,7.15234245 C12.7287975,7.55228357 12.8917507,7.95665394 13.0641883,8.35709839 C13.4967456,9.36102811 14.3045491,9.8139189 15.3576399,9.89606135 C16.0877506,9.95293694 16.4105289,10.2414422 16.3825797,10.975993 C16.3496864,11.8446292 16.2273959,12.7098429 16.15273,13.5771706 C16.0898695,14.3073928 16.0397223,15.0387223 15.9751465,15.8845077 C16.8857668,14.7087432 17.7231339,13.626899 18.5614092,12.54586 C18.8209233,12.2112503 18.7716843,11.9385495 18.4175261,11.7029939 C18.2063429,11.5624659 17.995866,11.4308971 17.7477535,11.3631497 C17.4454578,11.2806046 17.030558,11.2293662 17.6188036,10.8870053 C17.8111185,10.7749654 17.6241513,10.6578923 17.550898,10.566992 C17.1270181,10.040314 17.1393279,9.78009554 17.6181982,9.31059506 C17.6782335,9.25180684 17.7377644,9.16473181 17.8261526,9.2059037 C17.9388576,9.25845071 17.9106057,9.37320855 17.8867933,9.47035005 C17.8749881,9.51836714 17.8451217,9.56175366 17.8279688,9.6087641 C17.7750973,9.75372137 17.565024,9.85740608 17.7042657,10.0511858 C17.7291879,10.0860158 17.8022393,10.1266843 17.8279688,10.1141012 C18.0232098,10.0179664 17.9981867,9.80948965 18.0529753,9.64148015 C18.063267,9.60997208 18.0563049,9.5716188 18.07033,9.54282868 C18.15892,9.36153143 18.0510582,8.99994359 18.3192497,9.01957322 C18.5475859,9.03638424 18.7303154,9.37179924 18.7056958,9.59950294 C18.6345615,10.2548306 18.9849864,10.7146672 19.3208817,11.1960462 C19.5942191,11.5879341 19.6068316,11.966031 19.3900989,12.4184184 C19.0500667,13.1276017 18.8075037,13.8827888 18.5003648,14.6086824 C17.8477451,16.1514707 17.0350985,17.5905742 15.7425725,18.7061411 C15.6663932,18.7719759 15.5923328,18.8439512 15.5062653,18.8939816 C15.28812,19.0207185 15.0634162,19.1633605 14.8016822,19.0140746 C14.5650723,18.8789825 14.5377285,18.6414137 14.537224,18.4001202 C14.5356096,17.477427 14.5356096,16.5547337 14.5353069,15.6320405 C14.5350042,15.0369104 14.535206,14.4416796 14.4933326,13.834973 C13.6803832,15.3920557 12.6203303,16.7797195 11.7161675,18.2646255 C11.290875,18.9629369 11.4057999,19.7200367 11.6139561,20.461634 C11.8514741,21.30752 12.3570828,21.9925438 12.9436131,22.6291478 C14.7975453,24.6415371 16.65511,26.6508059 18.4958243,28.675275 C19.2815308,29.5393814 19.1868868,30.194407 18.1987754,30.8627204 C17.8416912,31.1043159 17.5123543,31.2662855 17.6584572,31.8293035 C17.7508814,32.1853548 17.4278003,32.4703368 17.0938221,32.6429768 C16.6211067,32.8872902 16.1061144,32.9788952 15.5838572,32.9934915 C14.8792742,33.0131212 14.1714623,33.0509711 13.4710162,32.9227242 C13.032304,32.8422931 12.7862095,33.0614403 12.710232,33.4585628 C12.5058091,34.5284279 12.3117788,35.600709 12.3492126,36.6990623 C12.3598071,37.0095124 12.4539466,37.2913738 12.5730083,37.5696112 C12.9201035,38.3815732 13.08568,39.2354118 13.1397623,40.1100879 C13.1570161,40.3892313 13.1625656,40.5739512 13.5290335,40.4467109 C13.7838054,40.3582266 14.0386782,40.442483 14.2187843,40.6458258 C14.5624489,41.0334858 14.9978314,41.1436131 15.4919375,41.1202589 C15.6246207,41.113917 15.7617435,41.1245875 15.8911979,41.1527736 C16.0273116,41.1825704 16.0710012,41.2967242 16.0528393,41.4259778 C16.0326593,41.5699284 15.9359974,41.6225761 15.7990764,41.6000272 C15.6001021,41.5673111 15.4033475,41.5137575 15.2033642,41.4969464 C14.9987395,41.4797328 14.7156147,41.3516872 14.6211726,41.6155295 C14.5239052,41.8871231 14.7900788,42.0225172 14.9926855,42.1398923 C15.2831759,42.3082038 15.581032,42.4641335 15.8772737,42.6224792 C16.5385707,42.9761145 16.8783002,44.154597 16.5103188,44.8133472 C16.3763239,45.0534327 16.1550507,45.1107109 16.064241,44.8553244 C15.699791,43.8306577 14.7409406,43.6476492 13.915076,43.2753909 C13.5787771,43.1237897 13.220583,43.0208097 12.8809544,42.8759531 C12.6378869,42.772369 12.5245764,42.8437404 12.4218605,43.0784906 C12.0051444,44.0307793 11.5703674,44.9752161 11.1402317,45.9216663 C10.9497329,46.3410357 10.872141,46.7426881 11.2035967,47.1445419 C11.3840055,47.3633871 11.4106431,47.6534023 11.32619,47.9139227 C11.1559721,48.4396948 11.1372047,48.9623462 11.2313442,49.5019094 C11.2638339,49.6886425 11.309037,49.949767 11.0053287,49.9646653 C10.6652965,49.9814764 10.779515,49.7190433 10.782542,49.5313035 C10.7862753,49.3002779 10.7834501,49.0691516 10.7379443,48.835408 C10.5785227,49.1169673 10.6662046,49.4254042 10.6476391,49.7201506 C10.6060684,50.3840348 9.74630148,50.8180006 9.17571333,50.4594327 C9.04928593,50.3800082 9.05059763,50.284276 9.09580072,50.1586463 C9.61825969,48.7010205 9.73399171,47.1549104 10.0585862,45.6543007 C10.3056898,44.5113529 10.3927663,43.3345818 10.5644976,42.1747223 C10.6316969,41.7210262 10.527871,41.4042342 10.1199333,41.1138163 C7.94221375,39.5638809 5.69860665,38.1172275 3.40969555,36.7381202 C3.1796441,36.5995048 2.94737285,36.4614934 2.73215365,36.3017385 C1.95764708,35.7267413 1.80952623,35.2627774 2.09325636,34.3448154 C2.21211628,33.9603766 2.3330951,33.5765419 2.4579081,33.1939151 C2.57152123,32.8455143 2.50452379,32.6892826 2.08861498,32.7577347 C1.59733404,32.8387698 1.11422598,32.7343804 0.662295945,32.5371782 C0.0397444161,32.2656853 -0.105046742,31.9427527 0.0869655045,31.2945723 C0.540610833,29.7642665 1.35134042,28.4096207 2.20969469,27.0837651 C3.45187165,25.1649939 4.83611548,23.3516188 6.35748209,21.643237 C6.47553481,21.5106615 6.63909332,21.4005343 6.65483369,21.1476644" id="Fill-1"></path>
                    </g>
                    <path d="M189.192764,27.0181014 C189.193672,26.1568137 188.568194,25.6569124 187.413598,25.9000179 C186.877619,26.0128631 186.390878,26.2217425 185.969117,26.5736665 C184.567216,27.7431897 183.803506,29.2660463 183.449751,31.0304984 C183.367014,31.4434253 183.487387,31.54711 183.870503,31.5032201 C185.303986,31.3388346 186.613867,30.8537311 187.748989,29.9620425 C188.594933,29.2975544 189.209614,28.4802572 189.192764,27.0181014 M197.223073,33.2497538 C197.190987,33.6394272 197.239722,34.0218526 197.32589,34.3986408 C197.592165,35.5621242 198.528615,35.9519989 199.542153,35.3217368 C200.134435,34.953505 200.603922,34.4443426 201.063722,33.9341736 C202.721707,32.094525 204.043695,30.0071404 205.448119,27.9803559 C205.623483,27.727184 205.506944,27.6315525 205.312712,27.5146807 C204.446185,26.9933379 203.554231,26.5273607 202.567734,26.2723768 C201.141415,25.9037425 199.985406,26.3397216 199.082252,27.4738108 C197.735543,29.1644756 197.270294,31.1422363 197.223073,33.2497538 M233.535586,32.9101109 C232.703768,33.9623597 231.863677,34.9833018 230.860027,35.855562 C230.1169,36.5014272 229.301832,37.0232733 228.323205,37.2422192 C226.630813,37.621222 225.462596,36.9097235 225.007942,35.2291252 C224.616652,33.7826731 224.671138,32.3126655 224.769818,30.7658507 C224.313953,31.5479153 223.908437,32.2864927 223.462359,32.9998032 C222.505325,34.529807 221.410461,35.9491802 219.965072,37.059714 C219.14728,37.6880634 218.251088,38.1406522 217.172974,37.9845212 C215.791051,37.7846009 214.741088,36.5755164 214.706177,35.1519153 C214.69306,34.6160767 214.694775,34.0767149 214.740281,33.5432923 C214.784172,33.029902 214.893144,32.5219476 214.937136,31.9859077 C214.251018,32.8319951 213.496389,33.6059058 212.717846,34.356563 C211.733872,35.3052277 210.669783,36.1419533 209.422662,36.7312448 C208.717675,37.0644452 207.981712,37.1841356 207.215076,37.1072277 C206.50686,37.0360577 206.015378,36.6265535 205.66011,36.0338393 C205.233203,35.3215354 205.097291,34.5217538 205.052794,33.7198583 C205.00083,32.7857899 205.040585,31.8465877 205.040585,30.8355107 C204.653634,31.6267358 204.238129,32.3440729 203.767835,33.0265801 C202.578631,34.7524775 201.23394,36.3292904 199.411589,37.4306636 C198.768151,37.8196323 198.075474,38.0807567 197.306215,37.9939837 C196.147482,37.8633208 195.512116,37.1106503 195.105591,36.0985668 C194.721264,35.1419495 194.717329,34.1364091 194.748204,32.9682952 C194.13544,33.5718811 193.600469,34.0599039 193.052785,34.531921 C191.497516,35.8721717 189.798364,36.9636798 187.828498,37.5910226 C186.579561,37.9888498 185.301666,38.1613892 184.003287,37.8774139 C182.122314,37.4658963 180.775,35.8083502 180.613156,33.7945516 C180.409944,31.2681679 181.007372,29.0036133 182.742848,27.096016 C184.352804,25.32643 186.338814,24.4107833 188.749007,24.5990264 C189.943963,24.6923426 191.000787,25.1685877 191.457459,26.3827054 C191.95772,27.7122857 191.566734,28.9095924 190.628366,29.9059723 C189.119107,31.5084547 187.201204,32.343167 185.049517,32.6778773 C184.619684,32.7447187 184.181174,32.78126 183.746296,32.783374 C183.398696,32.7851859 183.280139,32.9053797 183.273379,33.2537804 C183.23544,35.2023483 184.731077,36.424016 186.771674,36.1092372 C188.769489,35.8010017 190.424145,34.8077425 191.94309,33.5481242 C193.160647,32.5384566 194.278818,31.4289295 195.254216,30.1787738 C195.661851,29.6563236 195.872429,29.0292828 196.226184,28.4779419 C197.101489,27.1139343 198.149434,25.9270967 199.621158,25.1901299 C201.529071,24.2349219 203.43638,24.4558811 205.307566,25.3089143 C205.759294,25.5147738 206.046556,25.5922857 206.470335,25.1711043 C207.106104,24.5395335 208.003204,24.5714443 208.849551,24.5947985 C209.095444,24.6014424 209.099984,24.7524395 209.009982,24.9456152 C207.826831,27.4872999 207.594459,30.1956855 207.623619,32.9454443 C207.628361,33.3951138 207.703733,33.8474006 207.896654,34.2665687 C208.166258,34.8524376 208.5298,35.0283996 209.157194,34.8722686 C210.122401,34.6322838 210.864923,34.0180274 211.581008,33.383638 C213.08391,32.0520444 214.390966,30.5334158 215.495011,28.8673132 C216.099602,27.9549884 216.321582,26.8624737 216.166297,25.7455981 C216.130377,25.4869903 216.143595,25.36126 216.434186,25.3652866 C216.955333,25.3724338 217.477591,25.3491802 217.997527,25.3757557 C218.562767,25.4045459 218.817741,25.682582 218.810779,26.247714 C218.799781,27.148865 218.482855,27.9903217 218.246749,28.8435563 C217.835381,30.3307776 217.431076,31.8173949 217.241081,33.3532372 C217.185183,33.804618 217.160765,34.2569048 217.248447,34.7040577 C217.437231,35.6658089 218.014075,35.9893455 218.951635,35.6647016 C219.60264,35.4393132 220.157791,35.0349428 220.604171,34.5401755 C222.725589,32.1893512 224.405772,29.5561622 225.545838,26.5953094 C225.732503,26.1104072 225.882238,25.6049694 225.759746,25.0730568 C225.706874,24.8432391 225.839557,24.7741831 226.01482,24.7232467 C226.587527,24.5567472 227.174966,24.5146693 227.762808,24.5777861 C228.284459,24.6337557 228.498972,24.9960482 228.362354,25.5775886 C228.201419,26.2628137 228.006481,26.9400862 227.835556,27.622996 C227.378077,29.4513702 227.085569,31.299978 227.171031,33.1930796 C227.202612,33.8904851 227.231671,34.6396323 227.926972,35.0036361 C228.619144,35.3661299 229.278928,34.9856171 229.85446,34.6061109 C231.169688,33.738582 232.080712,32.4849029 232.985783,31.229714 C233.68744,30.256789 234.281033,29.2483293 234.494739,28.0351176 C234.636604,27.2291954 234.896623,26.4430036 235.122235,25.6531878 C235.212338,25.3379058 235.124152,25.2156988 234.799658,25.2214367 C233.793586,25.239355 232.781259,25.1567092 231.793249,25.433638 C231.686295,25.4636361 231.555529,25.5577576 231.464517,25.4461204 C231.375524,25.3367985 231.495998,25.2334158 231.539688,25.1297311 C232.072842,23.8671935 233.12896,23.5643939 234.37033,23.5671119 C234.801575,23.5680179 235.298708,23.7301888 235.650344,23.4728896 C235.985331,23.2277709 235.921361,22.7033075 236.096422,22.323902 C236.208622,22.0804946 236.296001,21.8256114 236.407496,21.5817007 C237.107639,20.0497842 238.102713,19.4829409 239.784913,19.6230663 C240.177817,19.6557823 240.090841,19.8105041 239.950692,20.0327719 C239.347614,20.9883825 238.916671,22.025733 238.499551,23.0704319 C238.354357,23.434033 238.422464,23.5809029 238.847857,23.5780843 C240.999948,23.5637899 243.15214,23.5715411 245.304332,23.5683198 C245.745365,23.5678165 246.170254,23.4650378 246.589593,23.3371935 C246.712287,23.2996456 246.852336,23.1771366 246.958079,23.3073968 C247.045358,23.4149067 246.961005,23.5655012 246.924782,23.6908289 C246.607049,24.7912961 246.024756,25.2121755 244.748475,25.218618 C242.629883,25.2293892 240.511089,25.2371404 238.392799,25.2109675 C237.8994,25.204827 237.692353,25.3623673 237.562899,25.8388137 C237.000181,27.9100919 236.430299,29.9772429 236.214374,32.1224091 C236.141928,32.8435715 236.129012,33.5615126 236.283994,34.2723066 C236.538968,35.4409238 237.474006,36.013505 238.690958,35.694901 C239.99872,35.3527415 240.993188,34.5569865 241.728041,33.4320577 C241.808055,33.3095487 241.84458,33.1055012 242.018935,33.1245269 C242.179164,33.1420425 242.211654,33.3408555 242.265332,33.4749409 C242.567931,34.2312353 242.265837,34.8542496 241.786866,35.412335 C241.088538,36.2259077 240.213132,36.8185212 239.270728,37.3140938 C238.73485,37.5959552 238.176067,37.8112771 237.573897,37.9312695 C235.784641,38.2879248 234.612388,37.320033 233.99024,35.7989884 C233.616003,34.8839457 233.54951,33.9135373 233.535586,32.9101109" id="Fill-4"></path>
                    <path d="M109.965958,27.3700355 C109.983111,26.2587972 109.351479,25.682592 108.29304,25.8661039 C107.654647,25.9767345 107.075584,26.2274904 106.587733,26.6702141 C105.286429,27.8510118 104.530085,29.3243413 104.18309,31.0319178 C104.093895,31.4704135 104.24363,31.5530593 104.639662,31.5016196 C105.925326,31.3347174 107.130171,30.9394068 108.189517,30.1908636 C109.161888,29.5037259 109.918233,28.6510953 109.965958,27.3700355 M137.483442,33.4103242 C137.461042,33.6278608 137.505136,34.0096822 137.590194,34.3870745 C137.861917,35.5914277 138.866273,35.9798931 139.877693,35.2690991 C140.3046,34.9690175 140.6859,34.6161875 141.038343,34.23195 C142.791779,32.3197221 144.181875,30.1421419 145.623127,28.0012036 C145.803132,27.7337373 145.738859,27.6029738 145.488426,27.4473461 C144.902198,27.0827383 144.29236,26.7656443 143.653664,26.5085464 C141.585825,25.6761495 140.192298,26.0973309 138.971108,27.9468446 C137.913174,29.5491257 137.520271,31.3465958 137.483442,33.4103242 M145.187139,31.1073157 C144.696766,31.868744 144.289434,32.5387687 143.845273,33.1835265 C142.822049,34.6687345 141.678653,36.0464325 140.197848,37.1114657 C139.743799,37.4380222 139.258572,37.7012606 138.723399,37.8644382 C137.196584,38.3300127 135.875504,37.6148902 135.323885,36.0203603 C135.122388,35.4381153 135.045401,34.8272815 134.967406,34.1206148 C134.335773,34.9086186 133.771037,35.6330023 133.093596,36.2563185 C132.584658,36.7248123 132.047972,37.1490137 131.41301,37.4400355 C129.957127,38.1076443 128.532019,37.5070783 128.007643,35.9925768 C127.708778,35.1296784 127.595266,34.2276215 127.551879,33.3251618 C127.484377,31.919781 127.470957,30.5117829 127.443916,29.1045901 C127.433826,28.581536 127.380046,28.0657297 127.225165,27.5667345 C126.98906,26.8063128 126.473563,26.617969 125.781895,27.0322046 C125.164489,27.4018456 124.706808,27.9438247 124.280809,28.5037221 C122.515366,30.8241457 121.144138,33.3846547 119.782093,35.948385 C119.539832,36.4043964 119.332786,36.8948351 119.473642,37.4425521 C119.519551,37.6205274 119.441253,37.7287421 119.281226,37.7991067 C118.256085,38.2492796 117.051341,38.0040602 117.120559,36.5747212 C117.204911,34.8326167 117.438191,33.1068199 117.598016,31.373272 C117.625057,31.0797335 117.671471,30.7893157 117.620416,30.3723622 C116.870731,31.3771979 116.173312,32.2728123 115.365609,33.0737012 C112.957031,35.4625768 110.335958,37.5046623 106.829489,37.959667 C103.890279,38.3411865 101.727291,36.7934657 101.386452,33.8704629 C101.369198,33.722687 101.32904,33.5775284 101.28081,33.3373423 C100.656139,34.0864895 100.041155,34.7435284 99.400038,35.3761058 C98.4967833,36.2671903 97.5133134,37.0428123 96.3542778,37.5793556 C95.5736163,37.9407421 94.7545121,38.1214353 93.9034226,37.9584591 C92.2104255,37.6341172 91.2666091,36.0824705 91.557604,34.2035626 C91.8192371,32.5143071 92.2633979,30.8575664 92.4537957,29.1564325 C92.5353227,28.4288275 92.6853607,27.6938741 92.3019416,26.99365 C92.1945842,26.797555 92.3434114,26.7179292 92.5062636,26.6859178 C93.0168164,26.5854543 93.5253512,26.4576101 94.0412517,26.4057677 C94.6642068,26.3431542 95.0614492,26.7742008 95.0891966,27.4856993 C95.1334916,28.6203926 94.8415886,29.711498 94.6492736,30.8162938 C94.4226528,32.1183926 94.0022035,33.3899899 93.9866649,34.7251067 C93.9729425,35.9006699 94.6743977,36.3962425 95.8080065,36.0190517 C96.7545472,35.7039709 97.5146251,35.084178 98.2355539,34.427743 C99.3803625,33.3855607 100.379068,32.2080849 101.329847,30.9888332 C101.501074,30.7690821 101.581995,30.5223527 101.66998,30.2683755 C102.640131,27.467479 104.448961,25.5144819 107.383227,24.7505369 C108.315642,24.5076329 109.274391,24.4783394 110.224968,24.7362425 C112.152456,25.2589947 112.820513,26.9514714 112.127332,28.7325331 C111.61012,30.0615094 110.488216,30.8300849 109.305872,31.4973916 C107.815986,32.3382444 106.201388,32.7702976 104.488716,32.7824781 C104.018825,32.7858 103.963331,33.0124971 103.995417,33.3816348 C104.169772,35.3854676 105.530001,36.4160735 107.539723,36.1013954 C109.448948,35.8025217 111.037514,34.868856 112.512265,33.6905749 C114.566382,32.0493366 116.237484,30.0704686 117.663904,27.8751713 C117.945717,27.4413062 117.721518,27.0409624 117.524561,26.7021248 C117.267368,26.2599045 117.378862,26.0848484 117.823325,25.9689833 C118.163862,25.880197 118.491282,25.7396689 118.832928,25.6568218 C119.707225,25.4451238 120.200625,25.8318779 120.236646,26.7190365 C120.292847,28.0985464 120.08348,29.4604401 119.975316,30.8287763 C119.922646,31.495177 119.859382,32.1608731 119.891871,32.8693518 C119.968757,32.7244952 120.048771,32.5814505 120.121923,32.434782 C121.151,30.3733689 122.285315,28.3790991 123.794674,26.618573 C124.290899,26.03965 124.848774,25.5312929 125.491102,25.1281305 C127.365113,23.9513594 129.101195,24.7029225 129.60872,26.8781875 C129.877719,28.0315037 129.928573,29.1996177 129.920803,30.3741742 C129.912328,31.6482881 129.919592,32.9217981 130.114934,34.1843356 C130.320366,35.5125066 130.977123,35.8109776 132.108108,35.0932378 C132.758811,34.6803109 133.217602,34.0735037 133.675384,33.4724344 C133.960023,33.0987668 134.215097,32.7029529 134.490856,32.3224401 C135.02512,31.5853726 135.4153,30.7847858 135.752305,29.9341685 C136.504412,28.0364363 137.67939,26.4345578 139.461481,25.3624781 C141.403902,24.1938608 143.404947,24.3460659 145.404982,25.2178228 C146.259703,25.5903831 146.259905,25.6083014 146.448184,24.6725217 C146.772274,23.0624895 147.08244,21.4497392 147.407438,19.8399083 C147.471106,19.5244249 147.462933,19.3731257 147.056509,19.465536 C146.381792,19.6189491 145.692041,19.6666642 145.009656,19.4862729 C144.296295,19.2977278 143.483245,18.139177 143.548628,17.4373423 C143.569817,17.2106452 143.688374,17.2512131 143.824891,17.3029548 C145.837741,18.0650877 147.826475,17.7141704 149.805422,17.1604135 C150.471058,16.9742843 150.505061,16.9866661 150.365315,17.6726965 C149.518362,21.8272321 148.668282,25.9812644 147.823952,30.1363033 C147.569786,31.3874657 147.399064,32.6481913 147.459402,33.9301571 C147.465657,34.0641419 147.459402,34.1993347 147.473629,34.3323128 C147.596726,35.4770726 148.336624,35.8759064 149.356014,35.3309073 C150.101765,34.9320735 150.74601,34.3913024 151.357967,33.8135873 C153.294334,31.9857164 155.040606,29.9985939 156.435646,27.7225635 C156.613432,27.432347 156.774972,27.433253 157.044072,27.6023698 C157.738262,28.0384496 157.732713,28.0203299 157.335975,28.7110915 C155.963637,31.1003698 154.255001,33.2256044 152.272724,35.1336044 C151.425267,35.9494923 150.521205,36.6999481 149.505245,37.3055474 C149.084291,37.556404 148.640332,37.7527003 148.169938,37.8898057 C146.772678,38.2973973 145.59205,37.6563641 145.203081,36.2534999 C144.842264,34.9527098 144.970305,33.6248408 145.039018,32.3036158 C145.057685,31.9436386 145.126196,31.5862786 145.187139,31.1073157" id="Fill-6"></path>
                    <path d="M38.8520283,35.936567 C38.8679705,35.6576249 38.8394159,35.3258338 38.7177308,35.0058205 C38.6602179,34.854622 38.5965501,34.7045309 38.3967686,34.8193894 C37.3629497,35.4137142 36.2918987,35.9676724 35.5263722,36.9160351 C35.0291382,37.5322042 35.3459634,38.2368575 36.1340915,38.3557426 C37.7385995,38.5978414 38.8514229,37.631661 38.8520283,35.936567 M27.8545597,27.0022669 C27.8560732,26.4101567 27.607658,26.0195774 26.8824914,25.8881092 C26.1065722,25.7472792 25.4060252,25.9948139 24.8025437,26.4498186 C23.2324425,27.6334349 22.4388659,29.2781966 22.0861203,31.1683789 C22.0115554,31.56832 22.2880208,31.5236249 22.5205947,31.4990627 C23.9734504,31.3455489 25.2969526,30.8466543 26.4413577,29.9373495 C27.269442,29.2794046 27.8679794,28.4698585 27.8545597,27.0022669 M44.8298347,30.6609278 C43.5540581,31.746396 42.3276215,32.6226828 41.0218777,33.3851178 C40.8078693,33.5101434 40.7673076,33.6451349 40.8529715,33.8789791 C41.9666022,36.9180484 39.2503806,39.4691956 36.6942869,39.713811 C35.8910239,39.7907189 35.0882654,39.7891083 34.3341406,39.3838319 C32.8753319,38.5999554 32.6956294,37.1650798 33.9192408,36.057264 C34.9791928,35.0976268 36.2287354,34.448339 37.4902852,33.8134463 C38.0680372,33.5227265 38.0649093,33.5257464 37.737086,32.9969544 C37.1714419,32.0843276 36.5803711,31.1853913 36.1263222,30.2096477 C35.9851634,29.9063447 35.8970779,29.8448386 35.6798407,30.1596173 C34.4229324,31.9800389 32.9333492,33.586548 31.1972679,34.964548 C29.2741185,36.4911292 27.1905384,37.6860199 24.7001305,37.9691899 C21.5065521,38.3324891 19.4607086,36.5200199 19.2602207,33.4746087 C19.1004964,31.0476819 19.7646186,28.8966771 21.4158432,27.0827987 C23.025598,25.314622 25.017662,24.4045119 27.4273501,24.6006068 C28.6219024,24.6977483 29.6754977,25.1801339 30.1248044,26.3984796 C30.6160853,27.7309791 30.2194483,28.9246619 29.2782554,29.9182232 C27.764658,31.516075 25.8473608,32.350284 23.6946643,32.6793571 C23.2481829,32.7475071 22.7929232,32.7757939 22.3409931,32.7858604 C22.026085,32.7929069 21.9293221,32.9318243 21.9397148,33.2197255 C22.0174076,35.3774748 23.2730042,36.3793913 25.4469905,36.0958186 C27.4149395,35.8390228 29.039022,34.8312678 30.5391997,33.6035603 C32.3317848,32.136774 33.8579946,30.4274862 35.1577854,28.5130437 C35.3462661,28.2354103 35.43193,27.9552602 35.4255733,27.6215565 C35.3940926,25.9721643 36.7236488,24.7076135 37.9189073,24.1210399 C38.2277615,23.9694387 38.4716362,24.183754 38.7170245,24.309283 C39.8120896,24.8697844 40.0372978,25.8774387 39.2866036,26.8536857 C38.9461678,27.2964093 38.5306626,27.6650437 38.0504806,27.9519383 C37.8094311,28.0959896 37.7221528,28.230075 37.8807672,28.5104264 C38.5580064,29.7076325 39.2226332,30.9119858 39.8733357,32.1236876 C40.0303358,32.416018 40.1856205,32.3997104 40.4314123,32.2560617 C42.1826286,31.233509 43.7945023,30.0375109 45.1636111,28.5313647 C45.3174833,28.3621472 45.4045598,28.1718908 45.4624762,27.9601928 C45.6654865,27.2161795 45.8545727,26.4681396 46.0751396,25.7295622 C46.1978337,25.318548 46.0758459,25.2012735 45.6579191,25.2148632 C44.6522511,25.2474786 43.6390157,25.1626182 42.6556466,25.4612906 C42.5773484,25.4851481 42.4846216,25.5367892 42.4219628,25.459076 C42.3249981,25.3388822 42.4444634,25.245868 42.488153,25.1436933 C43.0226191,23.8928329 44.0618866,23.5603371 45.3106221,23.5665783 C45.757608,23.5688936 46.2858183,23.7477749 46.6350323,23.4666182 C46.9597278,23.2051918 46.9094797,22.6615014 47.0849444,22.2628689 C47.2133898,21.9714444 47.3231687,21.6708594 47.4651347,21.3862802 C48.1423739,20.0291178 49.2649846,19.4411349 50.7669785,19.62666 C51.1884368,19.6787037 51.0151919,19.876208 50.8990563,20.0630418 C50.3027387,21.0222764 49.8633202,22.0538889 49.4577032,23.1039231 C49.32502,23.4473913 49.3483278,23.5804701 49.7613106,23.5778528 C51.93005,23.5643637 54.0989913,23.5697996 56.2678317,23.5697996 C56.6932251,23.5697996 57.0983376,23.4599744 57.5057709,23.3571956 C57.6427927,23.322567 57.8011045,23.1768044 57.9212761,23.3301168 C58.0226803,23.4592697 57.915323,23.6200313 57.8687073,23.7602574 C57.503652,24.8561947 56.981193,25.2152659 55.6952255,25.2197958 C53.5432354,25.227245 51.3911444,25.2234198 49.2390534,25.2207018 C48.9595611,25.2202991 48.7151818,25.2168765 48.6170064,25.5717198 C47.9023334,28.1554824 47.1087567,30.720018 47.159812,33.4485366 C47.2008782,35.6411159 48.6115578,36.2166163 50.3365401,35.4606239 C51.3071958,35.0353153 52.0927005,34.3529088 52.6801389,33.4584017 C52.7662064,33.3273362 52.8104005,33.0957066 53.0080631,33.1361738 C53.1788864,33.1710038 53.2082482,33.3921643 53.2578909,33.5450741 C53.4698813,34.1981871 53.2856383,34.7835527 52.8576215,35.277716 C51.7657852,36.5381396 50.4195806,37.4406999 48.8059916,37.875169 C47.0427683,38.3499041 45.5970765,37.5305935 44.9351741,35.7751007 C44.4704298,34.5430646 44.547719,33.2710646 44.6442801,31.9987626 C44.6744491,31.6022441 44.7521419,31.2093495 44.8298347,30.6609278" id="Fill-8"></path>
                    <path d="M250.468089,35.3354272 C250.823761,34.7323445 251.191944,34.1360065 251.533086,33.52477 C252.830657,31.1995145 253.909881,28.7875867 254.408427,26.1521831 C254.482992,25.7578792 254.531827,25.3579381 254.572692,24.9585003 C254.60054,24.6848934 254.705678,24.5533246 254.99526,24.6293265 C255.189896,24.6804642 255.390888,24.710563 255.582194,24.7716665 C256.630643,25.1061755 256.959778,25.6706028 256.671104,26.7247643 C256.301105,28.0761888 255.652723,29.3141641 255.002121,30.5439856 C253.556127,33.2771347 251.935071,35.9017671 249.996988,38.3198355 C248.481272,40.2111252 246.824599,41.9633968 244.849083,43.3919305 C244.809732,43.4204186 244.780471,43.4628991 244.719023,43.5278279 C245.003661,43.683053 245.293142,43.7050986 245.588375,43.7049979 C246.412121,43.7046959 247.24071,43.6492296 248.058502,43.718789 C249.191707,43.8153265 249.906885,43.2747567 250.446396,42.3740084 C250.636087,42.0574177 250.81014,41.7255259 251.137055,41.5227871 C251.261969,41.4452752 251.400403,41.3506503 251.558412,41.4426579 C251.714201,41.5335582 251.728428,41.6992524 251.697654,41.8443104 C251.520373,42.677714 251.480618,43.5525915 250.940704,44.2779818 C250.811552,44.4515278 250.692591,44.7155715 250.803581,44.8938488 C251.163591,45.4722686 251.034238,46.2235297 251.580509,46.7609789 C251.868376,47.0441489 252.240293,47.5060995 251.877356,48.0401261 C251.841739,48.0923711 251.866156,48.2116589 251.900967,48.2807149 C252.357336,49.1840805 251.88674,49.8224965 251.299302,50.4361489 C250.936668,50.8149504 250.443268,50.8982002 249.993457,50.6366731 C249.874294,50.5673151 249.712956,50.467053 249.752811,50.343034 C249.928881,49.7957197 249.363439,49.7596817 249.169106,49.4741964 C249.046815,49.2946104 248.96771,49.4606066 248.897685,49.5880482 C248.627779,50.0789903 247.571156,50.1339533 247.345444,49.6432125 C247.232739,49.3980938 247.110145,49.4386617 246.986644,49.5172809 C246.711793,49.6923369 246.409497,49.6350587 246.125061,49.6921356 C245.681203,49.7812239 245.346417,50.1207662 245.079941,50.4936285 C245.013045,50.5871461 244.976115,50.7036152 244.933737,50.8127358 C244.612573,51.6392942 244.493209,51.7104642 243.398648,51.5405421 C242.868118,51.4581983 242.845314,51.3839077 243.068,50.8793759 C243.107956,50.7890796 243.17112,50.7032125 243.096655,50.5592619 C242.673078,50.6941527 242.234467,50.749015 241.814623,50.5050036 C241.395586,50.2613949 241.382369,50.0349998 241.776987,49.7621983 C242.108948,49.5326826 242.20561,49.1148232 241.916027,48.8361831 C241.381561,48.3219875 241.316985,47.5900539 240.978568,46.9872733 C240.811175,46.6888023 240.835088,46.3358716 241.035778,46.0291461 C241.208115,45.7656057 241.170479,45.4760938 241.122653,45.1988631 C241.062819,44.8514689 240.836703,44.6971499 240.506357,44.8747225 C240.197402,45.0407187 239.982183,44.9689447 239.747691,44.7407377 C239.583628,44.5810834 239.404834,44.4330055 239.202227,44.3065706 C238.869964,44.0993018 238.875413,43.7455658 238.973992,43.4083388 C239.049566,43.1498317 239.181543,42.9124642 239.373353,42.7166712 C239.533885,42.552789 239.57031,42.3719951 239.467896,42.1665383 C239.252879,41.7352904 239.304842,41.0294291 239.657084,40.7180729 C239.906306,40.4974158 239.939401,40.2984015 239.851114,40.0159362 C239.817211,39.9073189 239.826494,39.7830986 239.828411,39.6661261 C239.831035,39.5005326 239.799655,39.3024243 239.963718,39.2059875 C240.158858,39.091431 240.27681,39.2971897 240.381947,39.3969485 C240.7916,39.7854139 241.247062,40.0117083 241.828144,40.0260027 C242.063038,40.0317406 242.213278,40.0227814 242.309234,39.7965877 C242.462904,39.4340938 242.68559,39.4978146 242.869026,39.7506845 C243.103718,40.0738184 243.347997,40.4004756 243.420241,40.8111878 C243.428918,40.8607149 243.430936,40.9119533 243.444961,40.9599704 C243.681773,41.7748517 244.058432,41.9313854 244.768464,41.4949029 C245.753144,40.889505 246.537236,40.0606313 247.296003,39.2053835 C247.373796,39.1176038 247.441097,39.0203616 247.520202,38.9336893 C248.692455,37.6490055 248.700729,37.6473949 248.298543,35.9679039 C247.726138,33.577015 246.906832,31.2769257 245.727919,29.1110226 C245.317459,28.3568422 244.84434,27.6449409 244.289593,26.9907206 C244.071751,26.7341261 244.107974,26.5803104 244.369506,26.386732 C245.540145,25.5202097 246.774654,25.7434841 247.47732,27.0105516 C248.319732,28.5293816 248.821103,30.1881356 249.370401,31.8252467 C249.753719,32.9675905 250.060353,34.1320805 250.468089,35.3354272" id="Fill-10"></path>
                    <path d="M12.1450722,27.491246 C12.8436013,27.7785432 13.5581734,28.0106762 14.2006022,28.4074967 C14.7222539,28.7298253 15.1821551,29.1149687 15.5813145,29.5719867 C16.5785069,30.7134245 16.7023109,32.4934796 15.9216494,34.0117056 C15.309087,35.2029725 14.342669,36.0438253 13.2387248,36.746264 C11.4428099,37.8890104 9.46113858,38.4586724 7.34860027,38.638057 C6.40811359,38.7179848 5.4729746,38.7651966 4.53652391,38.6259772 C4.35429894,38.5988984 4.17227577,38.5612498 3.99489399,38.5117227 C2.79459043,38.1764084 2.26900357,37.3479373 2.46454731,36.1218405 C2.85795548,33.6547483 3.41401406,31.218963 3.88753665,28.7673732 C4.1162764,27.5825489 4.34330087,26.3974226 4.57698472,25.2135043 C4.65023794,24.8425546 4.66285041,24.4790541 4.49565951,24.1308547 C4.41050011,23.9533827 4.38981566,23.8097341 4.61149243,23.728397 C5.24231774,23.4970693 5.86840076,23.2413808 6.55754614,23.2538632 C7.0824267,23.2634264 7.30248908,23.4982773 7.32953021,24.0339145 C7.35182906,24.4761349 7.24396721,24.8996315 7.16092671,25.3267521 C6.53706349,28.5345356 5.91935514,31.7434264 5.28227405,34.9485926 C5.05686398,36.0828832 5.23454846,36.7944824 6.86014452,37.0128243 C8.84403563,37.2790826 10.7255135,36.9276619 12.2679681,35.5195632 C13.334075,34.5463362 13.7951869,33.3436942 13.5321413,31.8961349 C13.3233797,30.7469459 12.555028,30.0950408 11.5386647,29.6847312 C11.0575746,29.4904482 10.5484344,29.3653219 10.051604,29.2101975 C9.76938735,29.1220152 9.48969321,29.1315783 9.20979727,29.2286192 C8.67210244,29.4149497 8.11402586,29.3704558 7.56038887,29.3608927 C7.23105205,29.3551548 7.12551089,29.2089896 7.21924677,28.8712593 C7.57744093,27.5804349 8.21260493,27.0280874 9.53318101,27.0961368 C10.3035507,27.1357987 10.8516382,26.8425622 11.3669333,26.3551434 C12.2129778,25.5548585 12.9441983,24.7044425 12.9262382,23.4361671 C12.9160473,22.72034 12.5948834,22.2265793 11.9854488,21.8926743 C11.5032489,21.6285299 10.9769557,21.5310864 10.4353258,21.5001823 C7.08918698,21.3094226 4.30072117,22.544076 1.9155517,24.8148718 C1.50176178,25.208773 1.10018073,25.6121368 0.734620894,26.0522431 C0.63483103,26.1723362 0.540893352,26.3696391 0.34696401,26.3188034 C0.183809096,26.2760209 0.185120793,26.076906 0.139615,25.9386933 C-0.238960905,24.7903096 0.189257683,23.8539259 0.980412714,23.0626002 C2.11977282,21.9229744 3.54286306,21.2332194 5.03567503,20.6844957 C7.03248131,19.9504482 9.10607232,19.6664729 11.2250682,19.7567692 C12.2576764,19.8008604 13.2476039,20.0574549 14.1518676,20.5937968 C15.6023017,21.4542792 15.9517175,23.1144425 14.9988202,24.714811 C14.393018,25.7324311 13.5148874,26.4809744 12.5505884,27.1415366 C12.4162908,27.2335442 12.244963,27.2834739 12.1450722,27.491246" id="Fill-12"></path>
                    <path d="M173.406391,27.4672575 C174.149215,27.7646213 174.809402,27.9984655 175.427009,28.3428397 C178.605957,30.1151436 178.224758,33.3513145 176.313313,35.3332025 C174.528194,37.1840249 172.266123,38.1103421 169.765019,38.5085719 C168.468558,38.7150353 167.163723,38.8174114 165.853337,38.6240344 C165.68766,38.5995728 165.52279,38.5627295 165.36135,38.5183364 C164.127548,38.1801028 163.604483,37.3591816 163.808402,36.10057 C164.261341,33.3034988 164.892671,30.5408549 165.427944,27.7597894 C165.589384,26.9204465 165.742549,26.0794931 165.910043,25.2413582 C165.987635,24.8532955 166.005898,24.4745947 165.824581,24.1111949 C165.72913,23.9201331 165.763335,23.7923896 165.969978,23.7186023 C166.586677,23.4983478 167.196818,23.2476925 167.867801,23.2534304 C168.426483,23.2581616 168.643922,23.4887846 168.669046,24.0558292 C168.687914,24.4812386 168.586107,24.8888302 168.506396,25.2992405 C167.880414,28.5236336 167.260889,31.7493354 166.617653,34.970306 C166.368431,36.2181464 166.759417,36.8192158 168.170601,37.0095728 C170.173361,37.2796564 172.071487,36.931759 173.623224,35.5051379 C174.685094,34.528891 175.13995,33.3209138 174.866814,31.8744617 C174.658557,30.7713772 173.926731,30.1304446 172.950627,29.7133905 C172.425242,29.4889081 171.87897,29.3189859 171.320995,29.1890277 C171.050482,29.1261123 170.789051,29.1454399 170.527216,29.2343269 C169.988714,29.4171341 169.430839,29.3716336 168.877202,29.3583459 C168.575613,29.3511987 168.469971,29.2127846 168.549177,28.8983079 C168.869534,27.6257039 169.547782,27.0245339 170.843436,27.0974152 C171.634793,27.1421104 172.196603,26.8399147 172.722391,26.3409195 C173.566922,25.5392253 174.293804,24.6838767 174.264846,23.4139907 C174.249408,22.741852 173.953974,22.2654057 173.39398,21.9291854 C172.966771,21.6726915 172.491129,21.5568264 172.003481,21.5173658 C169.386343,21.3056678 167.011162,21.9856583 164.86674,23.484154 C163.828885,24.2094437 162.907266,25.0621749 162.093812,26.0322813 C161.988977,26.1573069 161.882427,26.3574285 161.711604,26.3252158 C161.503044,26.2860572 161.509905,26.0374152 161.458446,25.8692044 C161.111553,24.7341085 161.557126,23.819871 162.334559,23.046967 C163.452024,21.9360306 164.84212,21.2560401 166.300323,20.7118463 C168.326693,19.9556526 170.43237,19.6636241 172.585773,19.7577457 C173.600118,19.8021388 174.573196,20.0581293 175.46636,20.5788682 C176.940102,21.4381426 177.296783,23.1199489 176.32643,24.7338065 C175.725168,25.7338103 174.859852,26.4714817 173.913009,27.126004 C173.776895,27.2201255 173.638561,27.3110258 173.406391,27.4672575" id="Fill-14"></path>
                    <path d="M63.0718053,23.0208042 C63.0978375,21.7727624 64.2142933,20.5186807 65.436593,20.346544 C67.0059879,20.1253835 68.5859773,20.1595088 70.163646,20.1292087 C71.7757214,20.0983047 73.3885032,20.1930302 75.0006796,20.0561261 C75.9893964,19.9721717 76.9714538,19.8705003 77.9412014,19.6551783 C78.0942663,19.6212543 78.2991937,19.4922021 78.4140177,19.6380653 C78.5429676,19.8016456 78.3309772,19.9352277 78.2513672,20.0689105 C77.5936017,21.173807 76.6035732,21.6449181 75.3288057,21.7340065 C73.730957,21.8456437 72.1421894,21.6435088 70.5476705,21.705015 C70.1067385,21.7220274 69.8945463,21.8100084 69.8071671,22.2807168 C69.4400938,24.2578735 69.043255,26.2297956 68.6297678,28.1978925 C68.5427922,28.6117254 68.6740628,28.6959818 69.0473919,28.6910492 C70.8915368,28.667091 72.749505,28.8160748 74.5428974,28.2092676 C74.6303775,28.1796722 74.7642715,28.1686997 74.8288473,28.2151062 C74.9562837,28.3067111 74.8418634,28.4282135 74.8012008,28.5281736 C74.3293935,29.6859191 73.4413747,30.2349447 72.2118102,30.254071 C71.0688177,30.2718887 69.9253207,30.2807472 68.7823282,30.2681641 C68.4019361,30.2640368 68.2166842,30.3616817 68.1379823,30.7721926 C67.6110838,33.5204414 67.0584558,36.2638583 66.507644,39.0074765 C66.4272269,39.407921 66.3937282,39.8122914 66.4712192,40.2062933 C66.5306491,40.5081869 66.4123946,40.6343198 66.1696298,40.7448498 C65.5472801,41.0283217 64.9016225,41.1718697 64.2142933,41.1480122 C63.8072637,41.1338184 63.6405773,40.9384281 63.6540978,40.5460368 C63.6857804,39.6176057 63.9447901,38.7277292 64.1206583,37.8247662 C64.5786424,35.4724319 65.052064,33.1230169 65.5369883,30.7762192 C65.6090307,30.4271138 65.5313379,30.3343009 65.179904,30.3474879 C64.6666269,30.3668156 64.1889675,30.5125782 63.7054558,30.6551195 C63.5705528,30.6947814 63.400234,30.8308802 63.2873272,30.681393 C63.1850148,30.5459989 63.3350528,30.4008403 63.3937765,30.2678621 C63.8179591,29.3074196 64.4500961,28.6377975 65.6051965,28.6952771 C65.8448335,28.7072562 65.9562268,28.5748821 66.0035488,28.3368099 C66.4182468,26.2491233 66.8410168,24.1633493 67.2660066,22.0778773 C67.3198871,21.8135316 67.2187855,21.7800103 66.9733973,21.7823255 C65.6422267,21.79511 64.4150838,22.1159286 63.3389879,22.9264813 C63.2610933,22.9850682 63.1874364,23.0647947 63.0718053,23.0208042" id="Fill-16"></path>
                    <path d="M80.9966883,33.167098 C81.9675458,31.5095519 82.9390087,29.8646896 84.1320475,28.3674019 C85.222673,26.9987637 86.3773699,25.6893164 88.00902,24.9199356 C88.6328832,24.6256925 89.2715787,24.4813392 89.9626411,24.6560933 C91.0744556,24.93725 91.4313381,25.9308112 90.7069787,26.807098 C90.365433,27.2203269 89.9721257,27.5902699 89.5471359,27.922061 C89.3886224,28.0459793 89.234044,28.1354703 89.0916744,27.8964921 C88.5050432,26.9117894 87.444284,27.1657666 86.7599818,27.6486555 C85.9573242,28.2149954 85.2862399,28.9232727 84.699306,29.7022167 C83.1194175,31.7992651 81.7007669,33.9918444 80.8120418,36.4844047 C80.7560424,36.6416431 80.7082159,36.8048207 80.6832937,36.9693069 C80.5730102,37.6968112 79.973262,38.0871892 79.0850414,38.0000135 C78.3731936,37.9300515 78.0169166,37.5023269 78.0792726,36.7071759 C78.2080207,35.0656355 78.6232232,33.4719109 78.9400485,31.862382 C79.1859412,30.6133335 79.442832,29.3659964 79.5785422,28.0997343 C79.6356514,27.5676203 79.6466495,27.0238292 79.3600942,26.5323839 C79.2293281,26.3082034 79.3238712,26.1859964 79.5378796,26.1184503 C80.083041,25.9464142 80.6324402,25.7857533 81.2109994,25.7896792 C81.8053999,25.7938065 82.1506789,26.1183497 82.170657,26.7181104 C82.1983036,27.5463801 81.9863132,28.3458596 81.8255799,29.1494665 C81.5573883,30.4902205 81.2737591,31.8279546 80.9966883,33.167098" id="Fill-18"></path>
                    <path d="M99.0096669,19.8016959 C98.8140223,20.6405354 98.3912523,21.2935478 97.8556763,21.8704575 C97.0976164,22.6870501 96.210203,23.3502296 95.2505454,23.9157643 C95.0629727,24.0262942 94.8650074,24.1173958 94.6381847,24.1303816 C94.1775773,24.1566551 93.9390503,23.9402258 93.9556988,23.4763626 C93.9640734,23.2431223 94.0078639,23.0111907 94.0361159,22.7786551 C94.0944359,22.3000948 94.2973453,22.0470236 94.8351411,21.9280378 C96.216257,21.6226209 97.412121,20.8957206 98.5375569,20.0568811 C98.6314946,19.9869191 98.7185711,19.9075953 98.8129124,19.8382372 C98.8366238,19.8207216 98.8764792,19.8250501 99.0096669,19.8016959" id="Fill-20"></path>
                </g>
            </g>
        </g>
    </g>
</svg>
