<svg id="Layer_1" data-name="Layer 1" xmlns="http://www.w3.org/2000/svg" viewBox="0 0 100 100"><defs><style>.cls-1{fill:#fdfdfd;}.cls-2{fill:#fefefe;}</style></defs><title>Artboard 1</title><path class="cls-1" d="M50.09,100.1H.54c-.4,0-.45-.11-.45-.47q0-49.53,0-99c0-.45.12-.5.52-.5q49.5,0,99,0c.45,0,.5.12.5.52q0,49.5,0,99c0,.45-.12.5-.52.5Z"/><path d="M10.51,50.45A40,40,0,0,1,35.24,13.18a38.58,38.58,0,0,1,16.84-2.85A39.34,39.34,0,0,1,88.62,41.25c3.13,14.51-.73,27.2-11.27,37.7a37.65,37.65,0,0,1-18.44,10,38.42,38.42,0,0,1-14.49.58A39.74,39.74,0,0,1,11.08,56.78,42.44,42.44,0,0,1,10.51,50.45Z"/><path class="cls-2" d="M61.75,27.62l-.43.45L28.07,61.33c-.31.31-.42.37-.64-.09A25.18,25.18,0,0,1,37.61,28.18C45.48,23.74,53.55,23.81,61.75,27.62Z"/><path class="cls-2" d="M75.35,51.54c-.35,8.37-4.61,16-13.26,20.72-7.54,4.14-15.36,4.14-23.16.48-.37-.17-.42-.27-.11-.59Q55.51,55.5,72.16,38.83c.29-.29.39-.3.59.09C74.48,42.44,75.34,46.17,75.35,51.54Z"/></svg>