<svg width="17px" height="23px" viewBox="0 0 17 23" version="1.1" xmlns="http://www.w3.org/2000/svg" xmlns:xlink="http://www.w3.org/1999/xlink">
    <!-- Generator: Sketch 47.1 (45422) - http://www.bohemiancoding.com/sketch -->
    <desc>Created with Sketch.</desc>
    <defs>
        <linearGradient x1="-22.0013033%" y1="-49.7689834%" x2="98.4912824%" y2="164.013367%" id="linearGradient-1">
            <stop stop-color="#000000" offset="0%"></stop>
            <stop stop-color="#8A8A8A" offset="100%"></stop>
        </linearGradient>
    </defs>
    <g id="UI-Kit" stroke="none" stroke-width="1" fill="none" fill-rule="evenodd">
        <g id="Icons" transform="translate(-746.000000, -242.000000)" fill="url(#linearGradient-1)">
            <g id="Icon/Small/Oils" transform="translate(746.000000, 242.000000)">
                <g id="Oils-Icon-(Small)">
                    <path d="M14.8169833,18.2032895 C13.5224595,20.4149211 11.1000462,21.7894737 8.49545446,21.7894737 C5.89024095,21.7894737 3.46782762,20.4149211 2.17392563,18.2026842 C0.935361118,16.1 0.912355652,13.6341579 2.1117487,11.6059211 L8.464366,1.74255263 L14.8138744,11.6010789 C16.0611437,13.6547368 16.0611437,16.1217895 14.8169833,18.2032895 M15.9162715,10.9716053 L9.01898424,0.296578947 C8.88530384,0.115605263 8.68011995,0 8.49545446,0 C8.31141074,0 8.08135609,0.0859473684 7.98187299,0.279631579 L1.09453407,10.9407368 L1.07463745,11.0012632 C-0.369732716,13.4241316 -0.35729733,16.3433158 1.10696945,18.8085526 C2.63341317,21.3936316 5.46432895,23 8.49545446,23 C11.52658,23 14.3574958,21.3936316 15.8839395,18.8085526 C17.3606416,16.3233421 17.3724553,13.3938684 15.9162715,10.9716053 M13.4448932,14.5665456 C13.100259,14.5665456 12.830572,14.8327565 12.830572,15.1729486 C12.830572,17.1292047 11.2050779,18.7204063 9.20607649,18.7204063 C8.86144226,18.7204063 8.59175523,18.9866172 8.59175523,19.3268093 C8.59175523,19.666395 8.86144226,19.9332123 9.20607649,19.9332123 C11.8820599,19.9332123 14.0592145,17.78412 14.0592145,15.1420221 C14.0592145,14.8248733 13.7839986,14.5665456 13.4448932,14.5665456" id="Fill-1"></path>
                </g>
            </g>
        </g>
    </g>
</svg>
