<svg width="18px" height="22px" viewBox="0 0 18 22" version="1.1" xmlns="http://www.w3.org/2000/svg" xmlns:xlink="http://www.w3.org/1999/xlink">
    <!-- Generator: Sketch 47.1 (45422) - http://www.bohemiancoding.com/sketch -->
    <desc>Created with Sketch.</desc>
    <defs>
        <linearGradient x1="-22.0013033%" y1="-49.7689834%" x2="98.4912824%" y2="164.013367%" id="linearGradient-1">
            <stop stop-color="#000000" offset="0%"></stop>
            <stop stop-color="#8A8A8A" offset="100%"></stop>
        </linearGradient>
    </defs>
    <g id="UI-Kit" stroke="none" stroke-width="1" fill="none" fill-rule="evenodd">
        <g id="Icons" transform="translate(-430.000000, -242.000000)" fill="url(#linearGradient-1)">
            <g id="Icon/Small/ProductType" transform="translate(430.000000, 242.000000)">
                <g id="Product-Type-Icon-(Small)">
                    <path d="M16.2145047,1.58289952 C16.5130441,2.04785202 18,4.42030195 18,5.48639125 C18,6.71892805 17.0341632,7.7217398 15.8470716,7.7217398 C14.65998,7.7217398 13.6941432,6.71892805 13.6941432,5.48639125 C13.6941432,4.70184123 14.4987864,3.21160886 15.0433116,2.29270866 L7.81433007,2.29270866 L7.81433007,3.46792883 L9.52651539,3.46792883 C9.77073476,3.46792883 9.96814173,3.6728931 9.96814173,3.92646187 L9.96814173,7.21276813 L11.2965538,7.21276813 C11.4974938,7.21276813 11.6737027,7.35399631 11.7240481,7.55620938 L14.9368797,20.3873393 C15.0366873,20.7848875 14.9545448,21.2126988 14.7165082,21.5322963 C14.4948117,21.8294257 14.1666834,22 13.8155904,22 L1.16299574,22 C0.811902798,22 0.483774427,21.8294257 0.262078003,21.5322963 C0.0244830319,21.2126988 -0.0581010939,20.7848875 0.0412648328,20.3873393 L3.25453809,7.55620938 C3.30532512,7.35399631 3.4810924,7.21276813 3.68203239,7.21276813 L4.77682409,7.21276813 L4.77682409,3.92646187 C4.77682409,3.6728931 4.97423106,3.46792883 5.21845043,3.46792883 L6.93107738,3.46792883 L6.93107738,2.29270866 L6.67979199,2.29270866 C6.60869015,2.29500133 6.53847157,2.29591839 6.46957786,2.29591839 C3.82511932,2.29591839 2.6963224,0.802017762 2.64818513,0.736906071 C2.5002403,0.535610069 2.53733691,0.247651322 2.7316525,0.0940427554 C2.92420159,-0.0591072785 3.20021805,-0.0210490366 3.3486045,0.177954301 C3.39011738,0.232519732 4.34226377,1.44396401 6.66698483,1.37610112 L7.37137885,1.37610112 C7.37182047,1.37610112 7.3722621,1.37564259 7.37270372,1.37564259 C7.37314535,1.37564259 7.37314535,1.37610112 7.37358698,1.37610112 L15.8470716,1.37564259 C15.9928083,1.37564259 16.1155804,1.45405174 16.196398,1.56685087 C16.2012559,1.57372886 16.2096468,1.57602153 16.2145047,1.58289952 Z M15.8470716,6.80467373 C16.5470493,6.80467373 17.1167473,6.21316612 17.1167473,5.48639125 C17.1167473,5.00493157 16.4591657,3.71782934 15.8470716,2.6875056 C15.2349775,3.71828787 14.5773959,5.0053901 14.5773959,5.48639125 C14.5773959,6.21316612 15.1470938,6.80467373 15.8470716,6.80467373 Z M5.65963515,7.21276813 L9.08488905,7.21276813 L9.08488905,4.3849949 L5.65963515,4.3849949 L5.65963515,7.21276813 Z M14.0823327,20.6179814 L10.9551766,8.1298342 L9.52651539,8.1298342 L5.21845043,8.1298342 L4.02385118,8.1298342 L0.89625343,20.6179814 C0.864897959,20.7427024 0.889187408,20.8747599 0.960730875,20.9710519 C0.992086346,21.0132369 1.05965518,21.0829339 1.16299574,21.0829339 L13.8155904,21.0829339 C13.9193726,21.0829339 13.9864998,21.0132369 14.0174137,20.9710519 C14.0898404,20.8747599 14.1136882,20.7431609 14.0823327,20.6179814 Z M5.15900753,9.06175675 C5.39527762,9.12549284 5.53659805,9.37585188 5.47521199,9.62070852 L3.33906537,18.1512571 C3.28739509,18.357597 3.1080948,18.4942398 2.9120127,18.4942398 C2.87535772,18.4942398 2.8382611,18.490113 2.80072286,18.4795668 C2.56445277,18.4158307 2.42313234,18.1654716 2.4845184,17.9201565 L4.62066502,9.3900664 C4.68205108,9.14520976 4.92141255,8.99664506 5.15900753,9.06175675 Z" id="Fill-3"></path>
                </g>
            </g>
        </g>
    </g>
</svg>
