<svg width="20px" height="20px" viewBox="0 0 20 20" version="1.1" xmlns="http://www.w3.org/2000/svg" xmlns:xlink="http://www.w3.org/1999/xlink">
    <!-- Generator: Sketch 47.1 (45422) - http://www.bohemiancoding.com/sketch -->
    <desc>Created with Sketch.</desc>
    <defs>
        <linearGradient x1="-22.0013033%" y1="-49.7689834%" x2="98.4912824%" y2="164.013367%" id="linearGradient-1">
            <stop stop-color="#000000" offset="0%"></stop>
            <stop stop-color="#8A8A8A" offset="100%"></stop>
        </linearGradient>
    </defs>
    <g id="UI-Kit" stroke="none" stroke-width="1" fill="none" fill-rule="evenodd">
        <g id="Icons" transform="translate(-105.000000, -242.000000)" fill="url(#linearGradient-1)">
            <g id="Icon/Small/Recipient" transform="translate(105.000000, 242.000000)">
                <g id="Recipeint-Icon-(Small)">
                    <path d="M9.99920699,11.043813 C7.25514715,11.043813 5.0234011,8.81669387 5.0234011,6.07900763 C5.0234011,3.34132138 7.25514715,1.11420221 9.99920699,1.11420221 C12.7432668,1.11420221 14.976129,3.34132138 14.976129,6.07900763 C14.976129,8.81669387 12.7432668,11.043813 9.99920699,11.043813 M13.3588247,11.6763149 C16.6391956,12.8321897 19.115937,15.5604107 19.9837453,18.9751412 C20.0244848,19.1354938 19.9876518,19.3041981 19.8844077,19.4367116 C19.7766991,19.574793 19.614857,19.6544125 19.4407373,19.6544125 C19.1879288,19.6544125 18.969163,19.4884922 18.9088908,19.2507472 C17.8574756,15.1038513 14.1942645,12.2074828 9.99976507,12.2074828 C5.8058237,12.2074828 2.14205455,15.1038513 1.09008124,19.2507472 C1.02980902,19.4884922 0.811601296,19.6544125 0.558792854,19.6544125 C0.384673132,19.6544125 0.222831083,19.574793 0.115680485,19.4367116 C0.0118783436,19.3036413 -0.0243965984,19.1354938 0.0163429518,18.9751412 C0.88415118,15.5615243 3.36033453,12.8333033 6.63958929,11.6757581 L7.17422612,11.4875665 L6.69874534,11.1796673 C4.95085122,10.0499611 3.90724904,8.14299032 3.90724904,6.07900763 C3.90724904,4.41200892 4.57247567,2.85636618 5.7801522,1.69770743 C6.98671258,0.540162243 8.56774197,-0.0622734935 10.2447604,0.00509686151 C13.390077,0.128701976 15.9566686,2.68320767 16.0867003,5.82121858 C16.1771087,7.99043266 15.1351807,9.99372635 13.3002267,11.1796673 L12.8241879,11.4875665 L13.3588247,11.6763149 Z M17.3787608,20 C17.231398,20 17.1058243,19.887963 17.0937829,19.7402779 C17.0788746,19.5637349 16.6717635,15.4161038 12.0192281,14.6872977 C11.862691,14.6624006 11.7560393,14.5181106 11.7806954,14.3636354 C11.8059248,14.2091602 11.9555811,14.105045 12.1092513,14.1282446 C17.2141961,14.9283469 17.6608716,19.646348 17.6648854,19.6944446 C17.6775001,19.8494857 17.5605273,19.9864198 17.4028434,19.9988683 C17.3948158,19.9994342 17.3873617,20 17.3787608,20 Z" id="Combined-Shape"></path>
                </g>
            </g>
        </g>
    </g>
</svg>
