<svg width="20px" height="19px" viewBox="0 0 20 19" version="1.1" xmlns="http://www.w3.org/2000/svg" xmlns:xlink="http://www.w3.org/1999/xlink">
    <!-- Generator: Sketch 47.1 (45422) - http://www.bohemiancoding.com/sketch -->
    <desc>Created with Sketch.</desc>
    <defs>
        <linearGradient x1="-22.0013033%" y1="-49.7689834%" x2="98.4912824%" y2="164.013367%" id="linearGradient-1">
            <stop stop-color="#000000" offset="0%"></stop>
            <stop stop-color="#8A8A8A" offset="100%"></stop>
        </linearGradient>
    </defs>
    <g id="UI-Kit" stroke="none" stroke-width="1" fill="none" fill-rule="evenodd">
        <g id="Icons" transform="translate(-585.000000, -242.000000)" fill="url(#linearGradient-1)">
            <g id="Icon/Small/Scents" transform="translate(585.000000, 242.000000)">
                <g id="Scents-Icon-(Small)">
                    <path d="M18.5843713,14.6910762 C17.6652355,15.9676289 15.6304108,18.1089144 12.3343349,18.1089144 C11.9176948,18.1089144 11.4844938,18.0731816 11.0456271,18.0021628 L10.7422992,17.9534769 L10.9514909,17.722554 C11.9560466,16.6175185 14.2645637,14.7196624 18.4418595,14.4244205 L18.7939988,14.3998542 L18.5843713,14.6910762 Z M10.2781552,11.8034228 C10.2241141,11.8722084 10.1726878,11.9374207 10.1243122,11.995933 L10.0005405,12.1460106 L9.87589712,11.9968264 C9.82272758,11.9338474 9.76781477,11.8664018 9.70985125,11.791363 C9.64099233,11.7024778 9.58084973,11.6220791 9.51852805,11.5367671 L9.48279114,11.4876346 C9.4161113,11.3947294 9.34943146,11.2978043 9.28013673,11.194626 C9.2029973,11.0780479 9.13108767,10.9628097 9.05830641,10.843105 L9.02387695,10.7845926 C8.9650418,10.6845409 8.90533502,10.5800226 8.84649986,10.4723776 L8.79856011,10.3825991 C8.73231609,10.2575344 8.66650788,10.1284499 8.60331457,9.99311204 C8.52879004,9.83410127 8.4647251,9.68581033 8.40371086,9.53439278 L8.37930517,9.47141379 C8.31741931,9.31240303 8.27253026,9.18778504 8.2298203,9.06048709 L8.18841779,8.93720908 C8.13742732,8.777305 8.08992338,8.61472096 8.04808505,8.446777 C8.00319601,8.2672199 7.96702329,8.09034275 7.93477291,7.91033899 L7.91385374,7.77634115 C7.89162713,7.63475011 7.87332286,7.49137242 7.85894093,7.34576144 L7.84412319,7.19657718 C7.82886963,7.00719357 7.81928168,6.81468334 7.81928168,6.61725986 C7.81928168,6.422963 7.82930545,6.21213973 7.85109625,5.97273026 L7.86460654,5.8302459 C7.88683315,5.62433589 7.91603282,5.41753256 7.95569207,5.21162255 L7.97138145,5.13792374 C8.01627049,4.92486718 8.06072372,4.74620339 8.11084255,4.56753961 L8.15093762,4.42237529 C8.20628624,4.23879825 8.270787,4.05611453 8.33964592,3.87387747 C8.81294203,2.62725093 9.50545357,1.68837275 9.87589712,1.23947999 L10.0005405,1.0885091 L10.1251838,1.23947999 C10.581919,1.79333772 11.2203893,2.70407636 11.6697155,3.89755043 C11.7337805,4.068621 11.7943589,4.23969157 11.8466568,4.41165546 C11.857988,4.44917486 11.8684476,4.48803423 11.8789072,4.5268936 L11.8954682,4.58897927 C11.9412289,4.75290329 11.9817598,4.91638065 12.0161892,5.08030467 L12.0466963,5.22010908 C12.0846123,5.4193192 12.1125045,5.61897597 12.1347312,5.81818609 C12.1408326,5.87357187 12.1460624,5.93029762 12.1508564,5.98657671 C12.1678532,6.19025342 12.1804918,6.39437679 12.1809277,6.59760685 L12.1809277,6.64316611 C12.180056,6.82852979 12.1709039,7.00585359 12.1573936,7.18139076 L12.1434475,7.32655508 C12.1264507,7.49181908 12.1103255,7.620457 12.0902779,7.74686163 L12.0632573,7.91659222 C12.0327502,8.0876628 11.9983208,8.25650007 11.9577899,8.42042409 L11.9399214,8.48429639 C11.9028771,8.62990738 11.8614746,8.77239174 11.8174572,8.91174949 L11.775183,9.03994076 C11.7272433,9.18197847 11.6884556,9.2896234 11.6474889,9.39503503 L11.5921403,9.53796605 C11.5346126,9.68045042 11.4749058,9.82025483 11.4121483,9.95425267 L11.3899217,10.0002586 C11.3236777,10.1391697 11.2687649,10.2486013 11.2134163,10.3535662 L11.1423783,10.4853308 C11.0953101,10.5710894 11.048242,10.655508 11.0003023,10.7368 L10.9340582,10.8493582 C10.8686858,10.9583431 10.8024418,11.0642014 10.7366336,11.1638065 L10.7087414,11.2053458 C10.6377034,11.3112041 10.5858413,11.3866895 10.5352866,11.4572617 L10.472965,11.5443603 C10.4224103,11.6131459 10.3801362,11.6698716 10.3391695,11.7239174 L10.2781552,11.8034228 Z M8.60244293,12.2496356 C7.13156412,12.039259 6.03287213,11.4684282 5.33730988,10.5536697 C4.01940247,8.8224176 4.49139113,6.33497108 4.66702496,5.61361606 C5.08540826,3.89844374 4.6217001,2.26858338 4.15886357,1.20374724 L4.03727092,0.923245099 L4.33318994,0.970144342 C6.74063722,1.34935822 7.37344197,3.00110489 7.51028818,3.49823687 L7.52510592,3.5540693 L7.50375094,3.60766844 C7.42094591,3.83680474 7.35121536,4.05343458 7.28715041,4.27721096 L7.24792698,4.41388876 C7.19867978,4.59969909 7.15466237,4.79220932 7.11587475,4.9896328 L7.08318855,5.14864357 C7.04919491,5.33936715 7.02391758,5.53634397 7.0025626,5.73689407 L6.98382252,5.88161174 C6.96116009,6.13710095 6.95026469,6.37829705 6.95026469,6.61725986 C6.95026469,6.86336922 6.96333917,7.11617848 6.99123139,7.41320701 C6.996897,7.47037943 7.00474168,7.5257652 7.01215055,7.58204429 L7.02217432,7.65529644 C7.04396512,7.83217359 7.06924244,8.00547746 7.10149282,8.17520805 C7.11761801,8.26185998 7.13505065,8.34672528 7.15422655,8.43159058 C7.18996346,8.59596126 7.23005853,8.75586534 7.27407594,8.91219615 L7.29455929,8.98678828 C7.30806958,9.03592082 7.32157987,9.08550002 7.33639762,9.13373924 C7.39523277,9.32535615 7.45929771,9.51027317 7.527285,9.69027693 L7.55909956,9.78050214 C7.64103296,9.99043208 7.72863197,10.1909822 7.81928168,10.3834924 L7.89162713,10.5299967 C7.96005023,10.6698011 8.0302166,10.8064789 8.10169041,10.9373501 L8.1888536,11.0927876 C8.26294231,11.2214255 8.33180123,11.336217 8.40066015,11.4469886 L8.48564426,11.582773 C8.56714184,11.708731 8.64689616,11.8270958 8.72577885,11.9387606 L8.95065987,12.2572288 L8.60244293,12.2496356 Z M13.049073,6.58912032 L13.0468939,6.54490103 C13.0451507,6.31889134 13.0359985,6.09868823 13.0172584,5.88339837 C13.0142077,5.85436551 13.0098496,5.82488598 13.0059272,5.7949598 L12.9963393,5.72036767 C12.9749843,5.52607081 12.9505786,5.33534722 12.9174566,5.1504302 L12.8838988,4.98427289 C12.8451112,4.79042268 12.8015296,4.60014575 12.7527182,4.4156754 L12.7121873,4.27274437 C12.6498656,4.05477455 12.5818783,3.84305797 12.506918,3.63848794 L12.4881779,3.5871221 L12.4912286,3.49779021 C12.6285106,3.00155155 13.2639303,1.35203818 15.6670194,0.970591001 L15.9629384,0.923691758 L15.8413458,1.2041939 C15.378945,2.26992336 14.9152369,3.90023038 15.3331844,5.61361606 C15.5083824,6.33541774 15.9794994,8.82420424 14.6633353,10.5536697 C13.9673372,11.4684282 12.869081,12.039259 11.3982022,12.2496356 L11.0107618,12.3050214 L11.2949138,11.9083878 C11.3659518,11.8078894 11.436554,11.7042644 11.5080278,11.5934929 L11.6095729,11.4313555 C11.6732021,11.3299638 11.7350879,11.2254455 11.7978454,11.1160139 C11.8340182,11.0534816 11.8693193,10.9918426 11.9046203,10.9266303 C11.9695569,10.8069256 12.0336219,10.6814143 12.097251,10.5527763 L12.1844142,10.3772392 C12.2733206,10.1878556 12.3591764,9.9913254 12.4393665,9.78586205 L12.4842555,9.65990409 C12.547013,9.49106681 12.6067198,9.31865626 12.6620685,9.13999248 C12.6799369,9.08237341 12.6956263,9.02386102 12.7117515,8.96490197 L12.7291841,8.90192299 C12.7714583,8.75005877 12.8098101,8.59640792 12.8451112,8.43873713 C12.8647229,8.35029856 12.8830271,8.26052001 12.900024,8.16895482 C12.9305311,8.0050308 12.9553726,7.83664018 12.9771634,7.66646293 L12.9880588,7.58249095 C12.9959035,7.52531854 13.0037482,7.46814613 13.0094138,7.40874042 C13.0355627,7.13851145 13.0482014,6.88927547 13.049073,6.64718605 L13.049073,6.58912032 Z M8.96286272,18.0008228 C8.52312443,18.0722883 8.08687267,18.1084677 7.66587447,18.1084677 C4.3702343,18.1084677 2.33540966,15.9667356 1.4154022,14.6901829 L1.20577473,14.3994076 L1.55834983,14.4235272 C5.77356164,14.7174291 8.06595351,16.6166251 9.0578706,17.7221073 L9.26357572,17.9521369 L8.96286272,18.0008228 Z M19.5658288,13.4926889 C14.9649199,13.4926889 12.210999,15.2364474 10.7113563,16.6988105 L10.435049,16.9681461 L10.435049,13.2202266 L10.5901995,13.2121868 C12.7644852,13.1036485 14.3652372,12.3939066 15.3480021,11.1035075 C16.8646416,9.11051295 16.4323122,6.44931591 16.1756166,5.39787954 C15.6051335,3.05559735 17.0245861,0.791480559 17.0851645,0.696342094 C17.17625,0.557431003 17.1849663,0.381893836 17.1095702,0.236282853 C17.0337382,0.0906718699 16.8864324,0 16.7256163,0 C14.0723688,0 12.7575121,1.1997273 12.1216567,2.20605106 L11.97653,2.43608068 L11.8427345,2.19890451 C11.1166651,0.908505336 10.3282741,0.150077578 10.2947162,0.118364756 C10.129542,-0.0384127133 9.8697957,-0.0379660539 9.70505727,0.118811416 C9.69634095,0.126404626 8.88354422,0.903145423 8.14963017,2.21319761 L8.01409141,2.45439372 L7.86940052,2.21900418 C7.24749116,1.20687385 5.94570894,0 3.27459302,0 C3.11464856,0 2.96777859,0.0902252104 2.8915108,0.235836194 C2.81611464,0.380553858 2.82483096,0.556091024 2.91417323,0.693662137 C2.97562328,0.79014058 4.39594744,3.05381071 3.82502855,5.39743288 C3.56833296,6.44886925 3.13600355,9.11006629 4.65264303,11.1030608 C5.63497217,12.3939066 7.23572413,13.1036485 9.41044569,13.2121868 L9.56603199,13.2202266 L9.56603199,16.9685928 L9.28972468,16.6992571 C7.78877457,15.2368941 5.03398198,13.4931355 0.434380508,13.4931355 C0.28489564,13.4931355 0.143255458,13.5744276 0.0648085877,13.7057455 C-0.01494573,13.8384033 -0.0214829692,14.001434 0.04737595,14.1412384 C0.144998721,14.3395552 2.50276298,19 7.66587447,19 C8.39804526,19 9.17031111,18.899055 9.96175286,18.6989515 L10.0009763,18.689125 L10.0401997,18.6989515 C10.8312057,18.899055 11.6030357,19 12.3343349,19 C17.4978822,19 19.8556464,14.3386619 19.953705,14.1403451 C20.0212565,14.0032206 20.0142834,13.8370633 19.9367082,13.7052988 C19.8565181,13.5721943 19.7183644,13.4926889 19.5658288,13.4926889 L19.5658288,13.4926889 Z M9.99997392,10.5913231 C9.93983132,10.5913231 9.87968872,10.5712234 9.82913407,10.529684 C9.7123354,10.4332056 9.69359531,10.2576684 9.78773156,10.1370704 C10.9879687,8.60502845 11.0010431,6.56870798 11.0010431,6.5486083 C11.0010431,6.39451079 11.1226358,6.26899948 11.2734281,6.26899948 C11.4237846,6.26899948 11.5458131,6.39406413 11.5458131,6.54816164 C11.5458131,6.63928017 11.5314311,8.80334524 10.2122163,10.4872514 C10.1586109,10.5555903 10.0797282,10.5913231 9.99997392,10.5913231" id="Fill-1"></path>
                </g>
            </g>
        </g>
    </g>
</svg>
