<svg id="Layer_1" data-name="Layer 1" xmlns="http://www.w3.org/2000/svg" viewBox="0 0 185 185"><defs><style>.cls-1{fill:#fefefe;}.cls-2{fill:#8bac89;}.cls-3{fill:#3c7543;}.cls-4{fill:#4a7e4c;}.cls-5{fill:#769771;}.cls-6{fill:#bfceb8;}.cls-7{fill:#59845d;}.cls-8{fill:#448e43;}.cls-9{fill:#477738;}.cls-10{fill:#43883e;}.cls-11{fill:#719a6b;}.cls-12{fill:#628761;}.cls-13{fill:#41883e;}.cls-14{fill:#789d74;}.cls-15{fill:#568556;}.cls-16{fill:#3b7d43;}.cls-17{fill:#367a36;}.cls-18{fill:#82a480;}.cls-19{fill:#3d7f3b;}.cls-20{fill:#6b945f;}.cls-21{fill:#447847;}.cls-22{fill:#81a77d;}.cls-23{fill:#6c9561;}.cls-24{fill:#6d9967;}.cls-25{fill:#3f6f3e;}.cls-26{fill:#47754c;}.cls-27{fill:#568355;}.cls-28{fill:#659162;}.cls-29{fill:#557f54;}.cls-30{fill:#749e6d;}.cls-31{fill:#9eba96;}.cls-32{fill:#6e8c6a;}.cls-33{fill:#4c7249;}.cls-34{fill:#659062;}.cls-35{fill:#71976c;}.cls-36{fill:#5c8a5d;}.cls-37{fill:#6d9567;}.cls-38{fill:#61815c;}.cls-39{fill:#668a65;}.cls-40{fill:#45833e;}.cls-41{fill:#80a179;}.cls-42{fill:#96a189;}.cls-43{fill:#59895b;}.cls-44{fill:#124b18;}.cls-45{fill:#476d42;}.cls-46{fill:#44843b;}.cls-47{fill:#427b39;}.cls-48{fill:#336f2e;}.cls-49{fill:#4b7445;}.cls-50{fill:#3a7236;}.cls-51{fill:#76a66d;}.cls-52{fill:#529045;}.cls-53{fill:#507a4b;}.cls-54{fill:#497e4c;}.cls-55{fill:#529046;}.cls-56{fill:#88a97c;}.cls-57{fill:#598346;}.cls-58{fill:#68a15a;}.cls-59{fill:#477643;}.cls-60{fill:#93b28f;}.cls-61{fill:#468e48;}.cls-62{fill:#599755;}.cls-63{fill:#40673d;}.cls-64{fill:#728c4c;}.cls-65{fill:#578351;}.cls-66{fill:#6c8f58;}.cls-67{fill:#45833b;}.cls-68{fill:#698161;}.cls-69{fill:#87a27f;}.cls-70{fill:#7fa57c;}.cls-71{fill:#6ba35d;}.cls-72{fill:#638e68;}.cls-73{fill:#86aa82;}.cls-74{fill:#91b08f;}.cls-75{fill:#3c7935;}.cls-76{fill:#668c55;}.cls-77{fill:#7ea477;}.cls-78{fill:#5f8862;}.cls-79{fill:#7ba077;}.cls-80{fill:#4f7753;}.cls-81{fill:#b0c5b0;}.cls-82{fill:#a8bfa4;}.cls-83{fill:#97a895;}.cls-84{fill:#9fbd86;}.cls-85{fill:#749b71;}.cls-86{fill:#517452;}.cls-87{fill:#427943;}.cls-88{fill:#507d51;}.cls-89{fill:#4e7d54;}.cls-90{fill:#84a678;}.cls-91{fill:#5c8560;}.cls-92{fill:#629852;}.cls-93{fill:#87a579;}.cls-94{fill:#d3dcc7;}.cls-95{fill:#67945a;}.cls-96{fill:#829f7b;}.cls-97{fill:#4d8640;}.cls-98{fill:#b1c5af;}.cls-99{fill:#587f52;}.cls-100{fill:#508542;}.cls-101{fill:#799878;}.cls-102{fill:#7fa172;}.cls-103{fill:#b2bdae;}.cls-104{fill:#c7d3c2;}.cls-105{fill:#507b48;}.cls-106{fill:#6e8672;}.cls-107{fill:#5e8653;}.cls-108{fill:#859f82;}.cls-109{fill:#cdd6bd;}.cls-110{fill:#bfcdbc;}.cls-111{fill:#5c8658;}.cls-112{fill:#8d9a84;}.cls-113{fill:#bbd0b8;}.cls-114{fill:#96aa92;}.cls-115{fill:#477546;}.cls-116{fill:#58874e;}.cls-117{fill:#98a892;}.cls-118{fill:#a2ae9b;}.cls-119{fill:#538256;}.cls-120{fill:#5c895a;}.cls-121{fill:#c5cbbf;}.cls-122{fill:#acb9a8;}.cls-123{fill:#9daa97;}.cls-124{fill:#7e8f77;}.cls-125{fill:#789a72;}.cls-126{fill:#b1ab93;}.cls-127{fill:#97afa1;}.cls-128{fill:#537546;}.cls-129{fill:#aebaa9;}.cls-130{fill:#bac6a8;}.cls-131{fill:#497749;}.cls-132{fill:#929e88;}.cls-133{fill:#6e975f;}.cls-134{fill:#4b7d4e;}.cls-135{fill:#38763f;}.cls-136{fill:#436b43;}.cls-137{fill:#3f7040;}.cls-138{fill:#4b754e;}.cls-139{fill:#428243;}.cls-140{fill:#4c744b;}.cls-141{fill:#497a4a;}.cls-142{fill:#6d8968;}.cls-143{fill:#346f3a;}.cls-144{fill:#3d7346;}.cls-145{fill:#5f8960;}.cls-146{fill:#5b7c5a;}.cls-147{fill:#3e7743;}.cls-148{fill:#405d34;}.cls-149{fill:#417741;}.cls-150{fill:#3d7038;}.cls-151{fill:#6f8e6b;}.cls-152{fill:#759472;}.cls-153{fill:#4e814f;}.cls-154{fill:#618761;}.cls-155{fill:#558858;}.cls-156{fill:#20612e;}.cls-157{fill:#779575;}.cls-158{fill:#093108;}.cls-159{fill:#658761;}.cls-160{fill:#688262;}.cls-161{fill:#526f51;}.cls-162{fill:#6b8067;}.cls-163{fill:#4f764d;}.cls-164{fill:#3e8045;}.cls-165{fill:#3a7b44;}.cls-166{fill:#417b4a;}.cls-167{fill:#4c7853;}.cls-168{fill:#345a2f;}.cls-169{fill:#566f59;}.cls-170{fill:#c6d1c6;}.cls-171{fill:#97b093;}.cls-172{fill:#548457;}.cls-173{fill:#487b4c;}.cls-174{fill:#44914b;}.cls-175{fill:#3a7c44;}.cls-176{fill:#3a7842;}.cls-177{fill:#3a7d38;}.cls-178{fill:#4c8a48;}.cls-179{fill:#3d6e2e;}.cls-180{fill:#9fbf9d;}.cls-181{fill:#4c8e48;}.cls-182{fill:#376e2c;}.cls-183{fill:#336121;}.cls-184{fill:#407345;}.cls-185{fill:#6b9966;}.cls-186{fill:#488b44;}.cls-187{fill:#397d31;}.cls-188{fill:#3e7046;}.cls-189{fill:#458c4e;}.cls-190{fill:#abc5aa;}.cls-191{fill:#3d7836;}.cls-192{fill:#457435;}.cls-193{fill:#528956;}.cls-194{fill:#4a8453;}.cls-195{fill:#569256;}.cls-196{fill:#b9cab9;}.cls-197{fill:#4c7b4b;}.cls-198{fill:#285228;}.cls-199{fill:#05310e;}.cls-200{fill:#044916;}.cls-201{fill:#09581c;}.cls-202{fill:#6b9551;}.cls-203{fill:#31662b;}.cls-204{fill:#4e893e;}.cls-205{fill:#094616;}.cls-206{fill:#376524;}.cls-207{fill:#366a2b;}.cls-208{fill:#8faa8e;}.cls-209{fill:#033f13;}.cls-210{fill:#3d7c44;}.cls-211{fill:#3f7344;}.cls-212{fill:#44794a;}.cls-213{fill:#1d4b15;}.cls-214{fill:#377f43;}.cls-215{fill:#41864a;}.cls-216{fill:#024a17;}.cls-217{fill:#2a6d34;}.cls-218{fill:#063e10;}.cls-219{fill:#508756;}.cls-220{fill:#6b754e;}.cls-221{fill:#538b53;}.cls-222{fill:#5c7858;}.cls-223{fill:#699862;}.cls-224{fill:#557249;}.cls-225{fill:#84a777;}.cls-226{fill:#648266;}.cls-227{fill:#4c7145;}.cls-228{fill:#6f896c;}.cls-229{fill:#7a9678;}.cls-230{fill:#6b8565;}.cls-231{fill:#658767;}.cls-232{fill:#8ba086;}.cls-233{fill:#426c3d;}.cls-234{fill:#357a3f;}.cls-235{fill:#363;}.cls-236{fill:#03370d;}.cls-237{fill:#054414;}.cls-238{fill:#567659;}.cls-239{fill:#38673c;}.cls-240{fill:#406a47;}.cls-241{fill:#2c4718;}.cls-242{fill:#2c4e30;}.cls-243{fill:#fafbfb;}.cls-244{fill:#376c3d;}.cls-245{fill:#366240;}.cls-246{fill:#395c36;}.cls-247{fill:#2c6929;}.cls-248{fill:#3e813f;}.cls-249{fill:#498c47;}.cls-250{fill:#4f8c48;}.cls-251{fill:#476b35;}.cls-252{fill:#175125;}.cls-253{fill:#294f1a;}.cls-254{fill:#347235;}.cls-255{fill:#2d6d37;}.cls-256{fill:#397d39;}.cls-257{fill:#033a11;}.cls-258{fill:#ebf0ed;}.cls-259{fill:#32743c;}.cls-260{fill:#387741;}.cls-261{fill:#32582f;}.cls-262{fill:#397643;}.cls-263{fill:#466139;}.cls-264{fill:#c5c9be;}.cls-265{fill:#377435;}.cls-266{fill:#fbfbf9;}.cls-267{fill:#2d6230;}.cls-268{fill:#386a3c;}.cls-269{fill:#c7c9b1;}.cls-270{fill:#eae9db;}.cls-271{fill:#347837;}.cls-272{fill:#67907b;}.cls-273{fill:#406846;}.cls-274{fill:#c4d4d1;}.cls-275{fill:#e2ebea;}.cls-276{fill:#dbe3db;}.cls-277{fill:#e4ebe4;}.cls-278{fill:#658665;}.cls-279{fill:#3d7c37;}.cls-280{fill:#46883c;}.cls-281{fill:#4d8e43;}</style></defs><title>Artboard 1</title><path class="cls-1" d="M180.72,92.93q0,45.66,0,91.32c0,.9-.2,1.1-1.1,1.1q-86.88,0-173.76,0c-.9,0-1.1-.2-1.1-1.1q0-91.44,0-182.88c0-.9.2-1.1,1.1-1.1q86.88,0,173.76,0c.9,0,1.1.2,1.1,1.1Q180.7,47.15,180.72,92.93Z"/><path class="cls-1" d="M99.35,54.75l.73,1.89a3.72,3.72,0,0,0,.33,1.26,1.41,1.41,0,0,0,.25.76c0,.38.23.72.16,1.11l.23.5c-.19.6.19,1.12.23,1.7a3.59,3.59,0,0,0,.12.91,5.9,5.9,0,0,0,.1,1.54c.05.73,0,1.47,0,2.2,0,.26,0,.53,0,.79a4.21,4.21,0,0,1,0,.58,3.4,3.4,0,0,0-.2,1.32,21.06,21.06,0,0,1-.14,2.6c-.26,3-.49,6-.73,9.06a3,3,0,0,1-.08.6,6.19,6.19,0,0,0-.21,1.69,2.24,2.24,0,0,1-.07.38,10,10,0,0,0-.2,1.52c-.53,3.1-.84,6.23-1.33,9.33-.22,1.41-.54,2.81-.75,4.22a2.57,2.57,0,0,1,0,.38,4.7,4.7,0,0,0-.22,1.08c0,.54-.25,1-.26,1.59a17.58,17.58,0,0,1-.35,2c-.69,4.63-1.47,9.25-2.11,13.89a8,8,0,0,1-.21,1.17c-.14.48-.38.71-.84.3a17.56,17.56,0,0,1-.47-2.67c-.45-3.94-1.07-7.85-1.62-11.78-.61-4.17-1.16-8.36-1.74-12.53-.3-2.17-.68-4.32-.89-6.5a9.72,9.72,0,0,1,.07-3,11,11,0,0,0,.36-2.72,2.13,2.13,0,0,1,.06-.41A4.46,4.46,0,0,0,89.68,78c.28-1.87.25-3.77.65-5.62.07-.25.09-.52.16-.77A4.19,4.19,0,0,0,90.63,70a41.22,41.22,0,0,1,.56-4.46c.42-2.82.8-5.65,1.09-8.48.14-1.38.39-2.75.57-4.12.27-1.1.31-2.24.49-3.35.21-.55.12-1.15.27-1.71.55-1.11.66-1.11,1.43,0a20.8,20.8,0,0,1,2.63,3.66c0,.42.43.7.48,1.12l.71,1.08C99.06,54.08,99,54.51,99.35,54.75Z"/><path class="cls-1" d="M101.57,69.65c.35.46.11,1,.21,1.49.66,1.44.34,3,.25,4.44-.06,1-.14,2.05-.17,3.08a10.92,10.92,0,0,1-.09,1.53,11.76,11.76,0,0,0-.16,3c-.13,2.6-.29,5.2-.48,7.8a20.22,20.22,0,0,1-.07,2.34,5.14,5.14,0,0,0-.17,1.81,9.17,9.17,0,0,1-.08,1.61,4.43,4.43,0,0,0-.16,1.56,27.08,27.08,0,0,0-.24,3,3.81,3.81,0,0,1-.09.79,3.94,3.94,0,0,0-.15,1.36c-.19,1.61-.4,3.21-.48,4.83-.06.72-.27,1.42-.32,2.15a5.17,5.17,0,0,0-.19,1.49,12.21,12.21,0,0,0-.21,1.29,6.86,6.86,0,0,1-.21,1.33c-.1,1.65-.55,3.24-.76,4.87-.31,1.36-.45,2.75-.71,4.12-.41,1.74-.67,3.52-1,5.28-.07.36-.17.75-.54.88s-.62-.23-.78-.56c-.46-1-.08-2-.41-3a3.74,3.74,0,0,1,0-1.46c.47-3.5.9-7,1.33-10.52.17-1.38.41-2.75.55-4.13a6,6,0,0,0,.23-1.54,2.3,2.3,0,0,1,.07-.38,4.44,4.44,0,0,0,.13-1.51,26.89,26.89,0,0,1,.76-4.91,3,3,0,0,0,.19-1.53,22.78,22.78,0,0,1,.58-3.81c.48-3.13.86-6.27,1.21-9.42a6.23,6.23,0,0,0,.17-1.4c0-1,.24-1.89.34-2.84.4-2.12.34-4.28.64-6.41.1-.61,0-1.22.07-1.83A7.64,7.64,0,0,0,101,73a11.08,11.08,0,0,1,0-1.2C101.3,71.08,101,70.27,101.57,69.65Z"/><path class="cls-2" d="M103.46,58.87c.08,7.46-.45,14.91-.79,22.35q-.31,6.63-.71,13.25c-.2,3.38-.46,6.76-.7,10.14a4.71,4.71,0,0,1-.2.8c-.75-.14-.6-.77-.57-1.22.1-1.58.17-3.16.33-4.72a44.1,44.1,0,0,0,.1-5.43,1,1,0,0,1,0-.63,3.52,3.52,0,0,1,.08-.84c.15-3.31.47-6.61.56-9.93.39-2.8.37-5.63.55-8.45.27-4.13.41-8.27.64-12.4.05-1,.09-1.91.1-2.87a2.24,2.24,0,0,1,.31-1.49C104,57.75,103.42,58.37,103.46,58.87Z"/><path class="cls-3" d="M79.21,80.45c-.45-2.84-.79-5.69-1-8.55.06-1.12-.53-2.21-.22-3.35.13-.32.2-.81.59-.78.63.05.72.75,1,1.16a32.66,32.66,0,0,1,1.79,5.51,1.14,1.14,0,0,1-.19.69c-1.06-.07-.31-1-.7-1.26a8.27,8.27,0,0,0,.26,1.36c.05.26-.64.54,0,.78.16.38.17.79.31,1.17a12,12,0,0,1,.32,2.23c-.07.67-.29,1.14-1.1.8a2.11,2.11,0,0,1-.28-1c.11.86.23,2,.37,3a1.11,1.11,0,0,1-.09.36.41.41,0,0,1-.45.26C79.25,82.19,79.5,81.24,79.21,80.45Z"/><path class="cls-4" d="M65.56,37c-.07-.32-.36-.57-.29-.94-.22-.45,0-1-.24-1.42a13,13,0,0,0-.46-1.26,2.2,2.2,0,0,1-.25-1.22c.17-.6.46-.58.8-.13s.46,1.09.84,1.57c2.29,4,3.39,8.42,5.15,12.61,1.13,2.68,2.17,5.4,3.28,8.1a3.53,3.53,0,0,1,.56,2.38.52.52,0,0,1-.52.09,4.62,4.62,0,0,1-1.11-2.07,4.44,4.44,0,0,0-.72-1.36c-.55-2-1.83-3.59-2.47-5.51-1.35-3.23-2.44-6.57-3.84-9.78A2,2,0,0,0,65.56,37Z"/><path class="cls-5" d="M103.22,57.4c-.09,2.82-.12,5.64-.28,8.45-.25,4.44-.52,8.87-.77,13.31-.06,1.13.24,2.38-.4,3.47a.94.94,0,0,1-.24-.77c-.12-1,.31-2,0-3.07l.23-7.64c.36-2.49.22-5,.39-7.5.14-2,.08-4,.1-6,.22-.94,0-1.9.12-2.85.62-.23.72.24.83.65s0,.78.16,1.16A.88.88,0,0,1,103.22,57.4Z"/><path class="cls-6" d="M103.22,57.4v-.7a7.85,7.85,0,0,0-.72-3.12q0-7.3,0-14.59a1.19,1.19,0,0,1,.18-.8c.66.8.25,1.75.38,2.63s-.05,1.76-.1,2.64a9.25,9.25,0,0,1-.09,1.93c.21-2.33.25-4.87.26-7.42,0-.58-.16-1.35.81-1.42-.33,7.18-.27,14.36-.27,21.54a1,1,0,0,1-.19.79C103.31,58.39,103.6,57.84,103.22,57.4Z"/><path class="cls-7" d="M64.33,15.62a89.78,89.78,0,0,1,10.55,9.87C76,27.17,77.68,28.38,79,29.94c.24.3.82.48.48,1.06-.52.19-.83-.17-1.12-.49-2.47-2.67-5.21-5.05-7.87-7.52-.54-.5-1.23-.92-1.4-1.73,0-.14.29-.24,0-.45a28.52,28.52,0,0,1-2.18-2.08,2.57,2.57,0,0,0-1.16-.7,1.13,1.13,0,0,1-.27-.16,13.82,13.82,0,0,0-1-1.18,1.13,1.13,0,0,1-.27-.61A.54.54,0,0,1,64.33,15.62Z"/><path class="cls-8" d="M84.44,125.89a18.5,18.5,0,0,1-.41-3.45c.28-.46-.14-1,.17-1.45.71,0,.18.67.48.77-.16-1.49-.84-3.13.32-4.64.49.12.46.53.52.9a50,50,0,0,0,.78,7.54c0,.25,0,.67.51.46.59.58.41,1.27.29,2-.46.91-.11,1.92-.33,2.87,0,.18,0,.4,0,.59-.07.38,0,1-.4,1-.59.05-.46-.62-.55-1-.35-1.47-.61-3-1-4.42-.19-.72.25-1.42-.09-2.06A.86.86,0,0,1,84.44,125.89Z"/><path class="cls-9" d="M90.43,161.39a2.5,2.5,0,0,1-1.28-3.06,9.91,9.91,0,0,0,.11-1.53,5.75,5.75,0,0,1-.9-2.93c-.38-3.57-1.08-7.09-1.48-10.65.16-.5.07-1.07.4-1.54.68-.14.59.42.61.75.1,2.29.9,4.43,1.4,6.63a2.24,2.24,0,0,1,.25.66c.09.48-.13,1,.35,1.41-.38,2.6.1,5.2,0,7.8,0,.76.47.49.85.46a1,1,0,0,1,.23.51,2.86,2.86,0,0,1,0,.8C90.94,161,90.93,161.41,90.43,161.39Z"/><path class="cls-10" d="M84.44,125.89c.14-.51-.13-1.11.43-1.59,0,2.74.91,5.32,1.46,8-.19-1.28.53-2.51.11-3.8-.12-.38.12-.38.39-.26.65,1.15.43,2.43.54,3.66a4.58,4.58,0,0,0-.07,2.28,2,2,0,0,1,0,.58c-.11,1.36.52,2.7.12,4.07a1.86,1.86,0,0,1-.25.65.33.33,0,0,1-.36.07,4.57,4.57,0,0,1-.51-1.8c.11-1.4-.48-2.73-.44-4.13a.92.92,0,0,0-1-1c-.43-.19-.28-.53-.23-.85a1,1,0,0,0,.07-.9c-.22-.51.25-1,0-1.51Z"/><path class="cls-11" d="M113,77.09Q111.12,83,109.2,89c-.12.37-.28.74-.42,1.1-.44.11-.53-.21-.62-.52.41-1.83,1.11-3.56,1.64-5.35a3.29,3.29,0,0,0,.32-1.38,20.35,20.35,0,0,1,1.2-3.84,4.43,4.43,0,0,0,.89-2.17c.13-.41.19-.87.73-1C113.4,76.23,113.15,76.66,113,77.09Z"/><path class="cls-12" d="M79.35,31.06c.17-.55-.29-.78-.57-1.07-1.16-1.18-2.35-2.35-3.51-3.53-.26-.26-.69-.48-.38-1C78.49,29,82,32.65,85.37,36.43c1.16,1.3,2.29,2.63,3.43,4a.37.37,0,0,1,.05.48.89.89,0,0,1-1.06-.34c-1.68-2-3.73-3.59-5.12-5.8a27.77,27.77,0,0,0-3.16-3.38A.91.91,0,0,1,79.35,31.06Z"/><path class="cls-13" d="M96.45,136.38c.43,3.27.85,6.54,1.31,9.8.06.4,0,.88.38,1.18a.94.94,0,0,1,.05,1.24c-.79-.12-.79-.12-.82-1.58-.29.27.23.83-.37.93-.53-.21-.44-.66-.47-1.1a38.63,38.63,0,0,0-.4-4.17c-.07.38-.1.76-.61.65-.43-.42-.29-1-.35-1.49,0-1.72.75-3.32.82-5A.43.43,0,0,1,96.45,136.38Z"/><path class="cls-14" d="M110.12,82.83c.28.16.2.37.12.61-.67,2-1.33,4.08-2,6.12.36,1-.26,1.77-.49,2.61-.77,2.82-1.55,5.65-2.36,8.46a1.44,1.44,0,0,0-.06,1.16,6.49,6.49,0,0,1-.66,2.18c-.68.8-.67,1.84-1,2.77-.09.28,0,.69-.53.57.73-3.68,1.71-7.3,2.73-10.91C107.16,91.85,108.4,87.27,110.12,82.83Z"/><path class="cls-15" d="M98.61,136.28l.07-1.6c.21-.57,0-1.19.17-1.76a95.68,95.68,0,0,1,1.82-13.87,20.57,20.57,0,0,1,.86-4.28.33.33,0,0,1,.48,0c-.85,4.36-1.68,8.71-2.16,13.13-.16,1.47-.34,2.93-.51,4.39-.26.65,0,1.35-.19,2l-.08,1.12c-.18.41,0,.87-.17,1.28l0,.86a.21.21,0,0,1-.33-.09A3,3,0,0,1,98.61,136.28Z"/><path class="cls-16" d="M82.85,112.37l-1.43-12c.32-.53-.4-1.41.59-1.71.71,1.2.55,2.6.87,3.88s.17,2.69.47,4c.2,2.32.46,4.64.68,7a2.46,2.46,0,0,1-.12,1.4.33.33,0,0,1-.33.17C83,114.28,83.41,113.18,82.85,112.37Z"/><path class="cls-17" d="M99.65,176.44,98.9,174a23.36,23.36,0,0,0-2.45-7.36,11.35,11.35,0,0,1-1-2.93,3.37,3.37,0,0,0-.32-1.38c-.07-.28-.17-.6.13-.75s.43.23.59.43a2.56,2.56,0,0,0,.49.52.75.75,0,0,1,.19.26,2.5,2.5,0,0,0,.75,1.81,1.31,1.31,0,0,1,.12.3,2.12,2.12,0,0,0,.51,1.31,3.07,3.07,0,0,1,.49,1.26,4.24,4.24,0,0,0,.24,1,15.35,15.35,0,0,0,.64,2,19,19,0,0,1,.84,4.87C100.18,175.76,100.4,176.34,99.65,176.44Z"/><path class="cls-18" d="M101,93.88c.34,0,.44.22.42.57-.16,2.37-.32,4.75-.41,7.12a14.44,14.44,0,0,0-.26,2.72c.06.38-.13.81.26,1.11a75,75,0,0,1-1.18,10.36,2.71,2.71,0,0,1-.53-2.25c.17-1,.09-1.91.25-2.85a8.6,8.6,0,0,0,.33-2.48c0-2.48.4-4.92.4-7.4,0-1.39.26-2.77.36-4.16C101,95.75,100.5,94.75,101,93.88Z"/><path class="cls-19" d="M96.49,162.76c-.78.14-.81-.57-1.1-1-.42.7.66,1.3.08,2L93.2,157a2.46,2.46,0,0,0,.21-1.81.81.81,0,0,1,.62-1.09c.37.25.41.67.53,1,.7,2.11,1.22,4.28,2,6.39C96.66,161.92,96.83,162.36,96.49,162.76Z"/><path class="cls-20" d="M87.13,143.09c.44,2.88.93,5.76,1.3,8.66.22,1.7.55,3.38.84,5.06l-.89.64c-.62-5-1.14-9.94-1.94-14.85.14-.2.06-.66.54-.48A.74.74,0,0,1,87.13,143.09Z"/><path class="cls-21" d="M64.32,16.13l.24.47c.07.23-.06.31-.25.36a3.12,3.12,0,0,1-1.59-1c-2.35-2.09-4.92-3.88-7.39-5.81A7.31,7.31,0,0,0,54,9.38,2.83,2.83,0,0,1,53.43,9c-.39-.48-.15-.73.32-.9a.55.55,0,0,1,.49.12A24.2,24.2,0,0,1,59,11.36c.74,1.06,1.92,1.59,2.84,2.42S63.78,15.06,64.32,16.13Z"/><path class="cls-22" d="M51.59,64.63A61.54,61.54,0,0,1,48,59.34c-.14-.41-.38-.77-.54-1.16s-.26-.69.3-.77c2.27,2.83,4.15,5.93,6.23,8.9a7,7,0,0,1,.47.95c-.06.16-.15.3-.34.31a.84.84,0,0,1-.61-.52c-.48-.78-1-1.53-1.52-2.3C51.91,64.63,51.84,64.34,51.59,64.63Z"/><path class="cls-23" d="M100.81,173.8c-.39-.36-.48-.12-.5.25-.72-.17-.39-.79-.41-1.16a47.6,47.6,0,0,0-.59-5.13c-.1-2.28-.68-4.53-.52-6.84,0-.59,0-1.19.6-1.57.31,2.64.61,5.28.93,7.92.24,1.93.5,3.86.76,5.79C101.1,173.35,101.4,173.74,100.81,173.8Z"/><path class="cls-24" d="M53.76,67l.48.48a37.08,37.08,0,0,1,3.48,5.11c1.22,1.86,2.36,3.77,3.54,5.66.21.33.47.66.31,1.1-.11.16-.23.28-.45.16l-7.62-12C53.39,67.27,53.32,67,53.76,67Z"/><path class="cls-25" d="M72.72,53.33c.62.09.62.63.78,1.06.29.77.6,1.54.9,2.31A22.33,22.33,0,0,1,76.9,62a.79.79,0,0,1,0,.69c-.56.38-.84.08-1.12-.4s-.25-.93-.68-1.22a71.9,71.9,0,0,1-2.61-6.76A1,1,0,0,1,72.72,53.33Z"/><path class="cls-26" d="M76.8,62.69c-.63-1.67-1-3.44-2.15-4.88-.29-.38,0-.79-.25-1.12h.49c.65.1.65.7.85,1.13.35.75.51,1.56.78,2.33,0,.26.12.52.07.7a4.29,4.29,0,0,0-.29-1.5,11.63,11.63,0,0,1-.09-2.11,1.77,1.77,0,0,1,.24-1,.32.32,0,0,1,.38-.06.94.94,0,0,1,.21.36c.2,1.49.23,3,.47,4.47.11,1.09.17,2.18.33,3.26.1,1.39.91,2.71.38,4.16-.59,1.14.33,2.3,0,3.44a11.35,11.35,0,0,1-.45-2.77,14.55,14.55,0,0,0-.69-2.84c.08-.89-.46-1.68-.4-2.57C76.69,63.37,76.53,63,76.8,62.69Z"/><path class="cls-27" d="M65.75,33.65c-.69-.37-.49-1.28-1.06-1.72,0,0-.08,0-.09.05a1.69,1.69,0,0,0-.05.23c-.95-.42-.86-1.43-1.24-2.17s-.37-1.51-1.15-1.92l-.9-2.18c1-.33.42-1.42,1-2,.45.13.57.53.71.9.91,2.42,1.91,4.81,2.67,7.29C65.78,32.65,66.11,33.13,65.75,33.65Z"/><path class="cls-28" d="M73.92,102.28l-5.86-11a.39.39,0,0,1,.56,0,74.58,74.58,0,0,1,5.56,10.54A.59.59,0,0,1,73.92,102.28Z"/><path class="cls-29" d="M92.44,44.16a43.38,43.38,0,0,0,.67-4.57c.05-.31.13-.61.2-.92.74.08.51.62.5,1.06,0,.07-.1.19,0,.2.62.06.62.05.7.68A16.46,16.46,0,0,1,94.28,44c-.69-.18-.43-.76-.56-1.2,0,.78.38,1.6-.17,2.32-.34.34-.64.06-.94-.08a1.91,1.91,0,0,1-.28-.19.69.69,0,0,1-.24-.43C92.14,44.2,92.23,44.08,92.44,44.16Z"/><path class="cls-30" d="M61.44,79.25a35.31,35.31,0,0,0-3-5c-1.37-2.27-2.82-4.5-4.23-6.75l.22-.24c2.42,3.41,4.57,7,6.76,10.56a40.05,40.05,0,0,1,2.67,4.79c-.33.17-.55,0-.69-.27A14,14,0,0,1,61.44,79.25Z"/><path class="cls-31" d="M103.93,36.53c-.64.28-.49.86-.48,1.35a33.07,33.07,0,0,1-.72,8.42V43.48a12.31,12.31,0,0,0,.12-2.62c0-1.73.25-3.46.08-5.19.31-1.77.32-3.58.77-5.33a.9.9,0,0,1,.17-.31.22.22,0,0,1,.32,0A58.11,58.11,0,0,1,103.93,36.53Z"/><path class="cls-32" d="M105.65,8.24a63.71,63.71,0,0,0-1,9.32c-.59.16,0,.6-.21.85s.4.92-.42.89c-.38-.28-.36-.7-.38-1.1a20.56,20.56,0,0,1,.1-3.1c.32-2,.21-4.14.86-6.13a2.05,2.05,0,0,1,.78-1.05C105.56,7.91,105.7,8,105.65,8.24Z"/><path class="cls-33" d="M65.56,37a.74.74,0,0,1,.82.53c1,2.33,1.92,4.68,2.74,7.07a21.48,21.48,0,0,1,1.2,3.2c.12.28,0,.42-.26.52l-4-10C65.89,37.89,65.73,37.45,65.56,37Z"/><path class="cls-34" d="M102,114.77h-.48a49,49,0,0,1,1.62-7.45,7.87,7.87,0,0,0,.77-2.2c.14-.46.24-.93.75-1.15q-1.21,5.13-2.43,10.26A3.43,3.43,0,0,1,102,114.77Z"/><path class="cls-35" d="M105.33,101.8c-.54-.91,0-1.79.18-2.63.72-2.8,1.47-5.6,2.43-8.33a11.52,11.52,0,0,0,.3-1.27l.53.51c-1.14,3-1.59,6.13-2.63,9.12C105.85,100.06,105.6,100.93,105.33,101.8Z"/><path class="cls-36" d="M73.92,102.28a.51.51,0,0,1,.26-.49A87.39,87.39,0,0,1,79,113.08a.35.35,0,0,1-.28.29Z"/><path class="cls-37" d="M61.44,79.25a15.16,15.16,0,0,1,1.77,2.59c.2.28.28.66.68.76a5,5,0,0,1,.94,1.63,7.25,7.25,0,0,0,1,1.73h0c.24.69.68,1.31.88,2a.56.56,0,0,1-.22.49c-1.46-2-2.5-4.19-3.8-6.26a13.55,13.55,0,0,1-1.54-2.66Z"/><path class="cls-38" d="M99.14,120.83a23.38,23.38,0,0,1-.71,4.27c-.48,1.56-.54,3.2-1,4.77-.47,0-.56-.32-.71-.64a3.06,3.06,0,0,1,.09-1.52c.37-1.41.47-2.88.81-4.29.35-.89.12-1.9.59-2.77a3,3,0,0,1,.84-.88A1,1,0,0,1,99.14,120.83Z"/><path class="cls-39" d="M99.14,120.83l-.07-.81c-.3.12-.07.86-.67.51-.33-.45,0-.88,0-1.32a20.39,20.39,0,0,0,.4-4.15,2.21,2.21,0,0,1,.07-.41,53,53,0,0,1,.62-5.82.26.26,0,0,1,.37,0,4.34,4.34,0,0,1,0,1.91c.08,1.69-.42,3.39,0,5.08A32.82,32.82,0,0,1,99.14,120.83Z"/><path class="cls-40" d="M99.6,167.81a17.37,17.37,0,0,1,.51,5.35c0,.31-.1.64.2.88.11.3,0,.67.28.91a6.62,6.62,0,0,1,.29,1.69c0,.45.11,1.19-.8,1l-.43-1.21c.57-.72.16-1.5.09-2.23-.12-1.26-.41-2.51-.63-3.76v-.17a4.54,4.54,0,0,0,0-1.61C99.12,168.34,99,167.85,99.6,167.81Z"/><path class="cls-41" d="M102.94,31.18l0-3.05a32.21,32.21,0,0,0,.12-4c0-.42-.17-.88.17-1.26.63.15.41.76.61,1.13,0,1.25.47,2.47.4,3.74,0,.19,0,.45-.26.42s-.25-.27-.34-.68c0,1,.33,1.8.25,2.61h0a12,12,0,0,0-.63,4c0,.34.3.85-.31,1.05A13,13,0,0,1,102.94,31.18Z"/><path class="cls-42" d="M103.44,22.85c-.48.93-.12,1.92-.24,2.88-.1.8.23,1.64-.23,2.41-.06-5.11.27-10.21.5-15.31a2.09,2.09,0,0,1,.19-.55c.49.6.28,1.31.22,1.95-.11,1.31-.07,2.62-.09,3.92-.11.66.19,1.28.14,1.94a5.8,5.8,0,0,0-.17,1.82A1.2,1.2,0,0,1,103.44,22.85Z"/><path class="cls-43" d="M78.7,113.37l.28-.29a85.22,85.22,0,0,1,3.57,10.15l-.32.11Z"/><path class="cls-44" d="M96.45,136.38c-.25,1.85-.84,3.64-.93,5.51-.32.37.19,1.2-.69,1.26a.82.82,0,0,1-.29-.45,5.45,5.45,0,0,1-.22-1.07,2.21,2.21,0,0,1,.06-.55c.2-.58,0-1.27.46-1.79.79-1.09.6-2.4.83-3.62.07-.34,0-.71.06-1.06a1,1,0,0,1,.15-.34.33.33,0,0,1,.32-.12c.44.37.2.88.28,1.33v.17Z"/><path class="cls-45" d="M70.06,48.33l.26-.52c.73,1.87,2.22,3.41,2.4,5.52a1.67,1.67,0,0,1-.25,1A62.07,62.07,0,0,1,70.06,48.33Z"/><path class="cls-46" d="M95.23,30.75l.56-1.41c.69-.22.65.29.67.69s-.24.82,0,1.23a26.65,26.65,0,0,1-1,3.84c-.23.39-.48.57-.79.08.3-.39-.27-.54-.23-.86A18,18,0,0,0,95.23,30.75Z"/><path class="cls-47" d="M96,28.79a63.34,63.34,0,0,1,2-8.1c.6.08.46.56.51.94a31.66,31.66,0,0,1-.78,3.76A21.56,21.56,0,0,0,97,27.67c-.11.58-.26,1.25-1,1.42,0,0-.06,0-.08-.08A.21.21,0,0,1,96,28.79Z"/><path class="cls-48" d="M96.45,166.68c.07-.18.21-.64.37-.22A53,53,0,0,1,99.1,173a1,1,0,0,1-.2,1Q97.51,170.42,96.45,166.68Z"/><path class="cls-49" d="M62.19,24a1.19,1.19,0,0,0,0,.46c.37.91.23,1.5-.89,1.51-.25-.8-.84-1.49-.77-2.39.22-.65-.18-1.5.62-2A2.74,2.74,0,0,1,62.19,24Z"/><path class="cls-50" d="M93.86,154.1c-.46.93,0,1.82.18,2.79-.39-.35-.69-.44-.85.11l-.35-1.13a.74.74,0,0,1-.35-.66c.18-1.48-.21-3,.35-4.44A3.26,3.26,0,0,1,93.86,154.1Z"/><path class="cls-51" d="M90.43,161.39c.3-.18.29-.48.3-.77.9-.65.86-1.7,1.16-2.62.19-.58-.08-1.38.72-1.71a58,58,0,0,1-.38,5.84C91.75,161.47,90.8,162.21,90.43,161.39Z"/><path class="cls-52" d="M57.36,18a37.42,37.42,0,0,1-2.43-4.5,1.49,1.49,0,0,1-.08-.91c.47-.38.6.12.77.35.63.84,1.18,1.73,1.72,2.63A10.46,10.46,0,0,0,57.87,17C58.06,17.53,58.05,18,57.36,18Z"/><path class="cls-53" d="M79.21,80.45c.52.72.32,1.65.71,2.41.67,1.16.55,2.47.68,3.72a19.33,19.33,0,0,1,.29,4.53c-.09.21-.18.41-.46.39C80,87.81,79.44,84.15,79.21,80.45Z"/><path class="cls-54" d="M80.43,91.49l.21-.24c.65.06.46.62.58,1,.21.65.17,1.33.33,2,.13,1.48.62,2.95.29,4.46-.41.49,0,1.18-.42,1.67Z"/><path class="cls-55" d="M96,28.79c.68-.2.67-.84.78-1.35a5.86,5.86,0,0,1,.69-2,1.08,1.08,0,0,1,.27,1,30.08,30.08,0,0,1-1.22,4.76c-.69-.13-.48-.58-.35-1s.26-.8-.35-.92A.56.56,0,0,1,96,28.79Z"/><path class="cls-56" d="M103.93,30.05a3.31,3.31,0,0,1-.19-3.15c.37.27,0,.71.36,1,.3-1.37-.77-2.55-.42-3.87-.07-.53-.41-1.11.23-1.53.53.11.34.54.36.86a18.71,18.71,0,0,0,.09,2.58,19.67,19.67,0,0,1-.18,4.1Z"/><path class="cls-57" d="M85,131.8c-.31.23-.31.48,0,.74.9,1.1.7,2.54,1.18,3.77.06.55.37,1.09.14,1.67-.29.3-.43,0-.58-.16l-1.94-9.12a.21.21,0,0,1,.35,0c.41.33,0,.9.37,1.24a1.22,1.22,0,0,1,.37,1.08C84.87,131.25,85.06,131.5,85,131.8Z"/><path class="cls-58" d="M97.71,26.49a1.67,1.67,0,0,1-.27-1l.73-3.83a21.81,21.81,0,0,1,.31-2.31,7.34,7.34,0,0,0,.3-1.42.23.23,0,0,1,.28-.17.46.46,0,0,1,.22.3c-.14.62.12,1.27-.19,1.87-.34.28-.16.67-.21,1-.28.38,0,.86-.22,1.25l0,.43c-.21.29-.09.66-.2,1A9.7,9.7,0,0,1,97.71,26.49Z"/><path class="cls-59" d="M94.56,40.61c-.41.06,0-1.39-.86-.45-.3-.46.16-1.12-.39-1.49l0-.46c.31-.46,0-1,.23-1.48l.07-.9c.42,0,.47.34.66.56a3.05,3.05,0,0,1,.49,1.1l0,1.45c-.22.47.05,1-.18,1.47A.17.17,0,0,1,94.56,40.61Z"/><path class="cls-60" d="M47.76,57.41c-.6.73.49,1.24.24,1.92a29,29,0,0,1-2.38-3.62c-.19-.34-.28-.72-.49-1.06s-.27-.54.21-.57A19,19,0,0,1,47.76,57.41Z"/><path class="cls-61" d="M82.85,112.37c.7.76.6,1.72.67,2.64.88,1.29.47,2.82.79,4.21a11,11,0,0,1,.06,1.41.57.57,0,0,1-.13.38c-.07.48.17,1-.21,1.43Z"/><path class="cls-62" d="M92.61,156.29c-.29,1.18-.57,2.36-.88,3.53-.13.48-.22,1.09-1,.79v-.73c.33-.42-.26-1,.17-1.37,0-.28.5.44.46-.23a7.66,7.66,0,0,1,.41-2.31c.11-.42.25-.84.77-.95a.18.18,0,0,1,.14.25l.17.58Z"/><path class="cls-63" d="M76.8,62.69c.15,1.19.65,2.36.27,3.59a46.09,46.09,0,0,1-2-5.21c.61-.31.43.29.57.51C75.95,62,76,62.78,76.8,62.69Z"/><path class="cls-64" d="M98.61,142.36l.3,10.32c-.32.16.06.7-.42.77a.82.82,0,0,1-.4-.69,27.15,27.15,0,0,1,.06-3.93,50.91,50.91,0,0,0,.13-5.69c0-.21,0-.43,0-.64A.2.2,0,0,1,98.61,142.36Z"/><path class="cls-65" d="M64.32,16.13q-2.41-2.12-5-4c-.27-.2-.5-.42-.26-.79a34.24,34.24,0,0,1,5.3,4.26Z"/><path class="cls-66" d="M98.65,153.39c0-.27,0-.55.27-.7a5.08,5.08,0,0,1,.15,1.7,2.2,2.2,0,0,0,.08,1.43,17.65,17.65,0,0,1,.25,3.54,4.58,4.58,0,0,0-.28,1.52c-.61-.11-.51-.61-.54-1,0-.66,0-1.33,0-2a4.08,4.08,0,0,0-.17-1.47C98.39,155.38,98,154.34,98.65,153.39Z"/><path class="cls-67" d="M57.36,18c.31-.27.52-.53.24-1a2.21,2.21,0,0,1-.48-1.42c.12,0,.27-.05.33,0,.8,1.38,1.9,2.63,2,4.34-.34.56-.64.14-.94,0A7.28,7.28,0,0,1,57.36,18Z"/><path class="cls-41" d="M104.36,26c-.41-.64-.11-1.36-.2-2-.06-.44.17-.94-.24-1.32-.51-1.16-.05-2.25.24-3.35.24-.32-.12-.64,0-1,.13-.12.19-.36.44-.24C104.7,20.69,104.43,23.32,104.36,26Z"/><path class="cls-68" d="M97,129.41c.2.11.4.61.5-.14a12.28,12.28,0,0,1,1-4.17c-.39,3.16-1,6.28-1.67,9.39l-.16-.12a2.38,2.38,0,0,1-.06-1.72,7.16,7.16,0,0,0,.22-2.9A.64.64,0,0,1,97,129.41Z"/><path class="cls-69" d="M102.94,31.18c.19,1.3-.25,2.63.26,3.91a.33.33,0,0,1,0,.48c.13,1.77-.22,3.52-.24,5.28q-.11.17-.21,0l-.06-2.66A66.63,66.63,0,0,1,102.94,31.18Z"/><path class="cls-70" d="M113.51,72.53a.36.36,0,0,1,.06-.22c.49-.19.25-.68.41-1a9.22,9.22,0,0,1,1-2.6c.86.51.27,1.25.25,1.87a7.81,7.81,0,0,1-.26,1,5.76,5.76,0,0,1-.71,2,1,1,0,0,1-.33-.46l-.16-.22A1.14,1.14,0,0,1,113.51,72.53Z"/><path class="cls-71" d="M55,12.53l0,1A23.3,23.3,0,0,1,52.52,8.7a.42.42,0,0,1,.36-.32c.43.22.51.72.84,1C54.08,10.47,55,11.3,55,12.53Z"/><path class="cls-72" d="M63.59,29.82a8.6,8.6,0,0,0,1,2.4l.25,1.2c.21.36.06.58-.26.75l-1.73-4.33C63.07,29.62,63.33,29.72,63.59,29.82Z"/><path class="cls-73" d="M115,71.58c-.15-1,.5-1.92,0-2.88a9,9,0,0,1,1-2.4c.62.13.46.56.33.93s-.17,1-.32,1.51A16,16,0,0,1,115,71.58Z"/><path class="cls-74" d="M115.94,68.74c-.31-.81.5-1.63,0-2.44l1-2.39c.53.09.4.48.33.81s-.25.89-.35,1.35A11,11,0,0,1,115.94,68.74Z"/><path class="cls-75" d="M95.23,30.75c.66,1.37-.22,2.46-.66,3.62-.57-.31-.37-.79-.27-1.24A4.56,4.56,0,0,1,95.23,30.75Z"/><path class="cls-76" d="M85.68,137.81l.46.25c.76.62.43,1.61.82,2.36,0,.57.41,1.17-.08,1.71l-.44.47Z"/><path class="cls-77" d="M114,72.77c.29.18.22.49.26.76-.5,1.15-.56,2.46-1.22,3.55-.07-.4.17-.86-.24-1.2C112.48,74.57,113.32,73.71,114,72.77Z"/><path class="cls-70" d="M114,72.77c-.24,1.1-1.24,1.91-1.2,3.12,0,.42-.35.63-.48,1q-.1.16-.2,0A11.64,11.64,0,0,1,113.31,73c.19-.2.38-.38.69-.25Z"/><path class="cls-30" d="M53.76,67c-.21.11-.23.32-.26.53a14.58,14.58,0,0,1-1.91-2.91c.14-.51.15-.52.37-.27A13.61,13.61,0,0,1,53.76,67Z"/><path class="cls-78" d="M93.36,45.17a7.93,7.93,0,0,0,.23-2.85L94.28,44l-.14,2.38-.11.1a.47.47,0,0,1-.37-.2,2.33,2.33,0,0,1-.23-.37C93.35,45.64,93.18,45.42,93.36,45.17Z"/><path class="cls-79" d="M66.48,87.89c-.24-.65-.8-1.18-.69-2A27.81,27.81,0,0,1,68.61,91c-1.22-.43-1.28-1.72-1.93-2.58C66.57,88.27,66.63,88,66.48,87.89Z"/><path class="cls-80" d="M61.18,21.65c-.41.57-.15,1.38-.67,1.9l-1-1.88c.19-.25.55-.15.75-.39s.32-.55.66-.62C61.26,20.9,61.49,21.19,61.18,21.65Z"/><path class="cls-81" d="M45.33,54.08c-.32.62.56,1,.28,1.63a17.26,17.26,0,0,1-2-3.06c-.08-.25,0-.31.26-.27A5.6,5.6,0,0,1,45.33,54.08Z"/><path class="cls-82" d="M116.89,66.07c-.22-.72.6-1.43,0-2.16a5.27,5.27,0,0,1,.9-2c.51.5.06,1,0,1.52A10.54,10.54,0,0,1,116.89,66.07Z"/><path class="cls-83" d="M101.57,69.65c-.17.72.08,1.5-.26,2.2-.1-.08-.19-.13-.27,0l-.12,0-.09-.08.24-2.66c.21-.39,0-.84.19-1.22l0-.45a.21.21,0,0,1,.33.07,2.77,2.77,0,0,1-.06,1.17Z"/><path class="cls-84" d="M99.09,19.92l.06-2.12c-.23-.9.3-1.73.24-2.62l.24-.94c.59.29.29.76.23,1.17A18.75,18.75,0,0,1,99.09,19.92Z"/><path class="cls-85" d="M66.48,87.89c.83,1,1.17,2.25,2.13,3.11v.25l-.56,0a12.84,12.84,0,0,1-1.61-2.82Z"/><path class="cls-86" d="M94.8,37.49l-.71-1c.18-.4.13-.85.31-1.25.09-.15.2-.26.4-.19.23.38.46.08.7,0Z"/><path class="cls-87" d="M60.24,21.41c-.08.63-.54.13-.78.26l-1-1.68c.27,0,.55.36.81,0,.3-.16.53,0,.76.17.22.34.08.75.2,1.11C60.24,21.3,60.24,21.36,60.24,21.41Z"/><path class="cls-42" d="M105.37,8c-.16.32-.51.54-.49.94-.65.93-.56,2.06-.87,3.09a.21.21,0,0,1-.32,0c.1-1.49,0-3.07,1.42-4.09Q105.25,7.81,105.37,8Z"/><path class="cls-41" d="M103.69,12.05h.23a6.92,6.92,0,0,1,0,2.88v3.36c-.07.11-.15.11-.23,0l0-6A.28.28,0,0,1,103.69,12.05Z"/><path class="cls-88" d="M98.4,142.85v6a.33.33,0,0,1-.28.12c-.17-.06-.28-.15-.2-.35.41-.36.19-.83.22-1.25l.06-4.51Q98.3,142.69,98.4,142.85Z"/><path class="cls-89" d="M94.8,35.09l-.24.24c-.26.18,0,.76-.41.71-.25,0-.45-.41-.35-.77a4.67,4.67,0,0,1,.5-2.14,2.26,2.26,0,0,0,.27,1.24C94.71,34.59,95.07,34.74,94.8,35.09Z"/><path class="cls-90" d="M52.8,8.44l-.28.26A15.19,15.19,0,0,1,51.1,5.62a.56.56,0,0,1,0-.52c.68-.07.6.55.81.91a7.07,7.07,0,0,1,.53,1.16C52.5,7.6,53,7.91,52.8,8.44Z"/><path class="cls-91" d="M63.59,29.82a.86.86,0,0,1-.78,0l-.63-1.7c.48-.32.71-.07.88.37S63.41,29.38,63.59,29.82Z"/><path class="cls-92" d="M100.08,177.65c.69-.17.56-.7.54-1.2s0-1,0-1.49c.46,1,1.08,2,0,3C100,178.55,100.15,177.93,100.08,177.65Z"/><path class="cls-93" d="M51.13,5.08l0,.54a8.74,8.74,0,0,1-.94-2c-.09-.35-.42-.75.22-.92l.75,1.4a1.57,1.57,0,0,0,.09.7A.24.24,0,0,1,51.13,5.08Z"/><path class="cls-94" d="M50.38,2.73c-.4.23-.11.62-.22.92A6.16,6.16,0,0,1,49.33.93,5,5,0,0,1,50.38,2.73Z"/><path class="cls-95" d="M51.13,5.08q0-.11,0-.23c-.12-.25,0-.27.21-.23A7.2,7.2,0,0,1,52.54,7c-.06.1-.08.23-.23.24C51.66,6.67,51.73,5.69,51.13,5.08Z"/><path class="cls-96" d="M102.48,53.57c1,.86.78,2,.72,3.12-.59-.51.15-1.49-.68-1.91a.86.86,0,0,1-.06-1Q102.47,53.69,102.48,53.57Z"/><path class="cls-97" d="M52.31,7.26,52.54,7l.5.72c.22.19.62.11.72.48-.14.22-.51.36-.24.71a.34.34,0,0,1,0,.5l-.71-1Z"/><path class="cls-98" d="M117.84,63.41l0-1.52a1.81,1.81,0,0,1,.49-1.15c.82.47-.11,1,0,1.47A2.54,2.54,0,0,1,117.84,63.41Z"/><path class="cls-99" d="M98.61,142.36h-.2a6.23,6.23,0,0,1,0-2.49l.07-2.07a.2.2,0,0,1,.3.14,5.71,5.71,0,0,1-.08,1.64Z"/><path class="cls-77" d="M112.12,76.85h.2c-.11.82,0,1.75-1,2.14A5.26,5.26,0,0,1,112.12,76.85Z"/><path class="cls-100" d="M98.64,19.25a7.83,7.83,0,0,1-.48,2.4c0-.33.1-.7-.23-1a6.66,6.66,0,0,1,.49-1.92C98.86,18.77,98.78,19,98.64,19.25Z"/><path class="cls-101" d="M88.77,41l0-.58c.74.25.87,1.09,1.43,1.5a.29.29,0,0,1,0,.44A1.54,1.54,0,0,1,88.77,41Z"/><path class="cls-102" d="M99.39,15.19a4.51,4.51,0,0,1-.24,2.62h0c-.27-.18-.07-.51-.24-.72A4.93,4.93,0,0,1,99.39,15.19Z"/><path class="cls-103" d="M101.29,66.77l0-2.42a.46.46,0,0,1,.22-.24c.36.54.19,1.14.19,1.71C101.44,66.08,101.94,66.69,101.29,66.77Z"/><path class="cls-6" d="M102.47,53.8l.06,1c-.18,1,.12,2-.25,2.89A11.81,11.81,0,0,1,102.47,53.8Z"/><path class="cls-104" d="M118.32,62.21c-.2-.49.41-1,0-1.47a1.77,1.77,0,0,1,.72-1A5.46,5.46,0,0,1,118.32,62.21Z"/><path class="cls-105" d="M84.1,128.66l-.35,0a5,5,0,0,1-.46-2.15l0,0C84.12,127,83.91,127.93,84.1,128.66Z"/><path class="cls-106" d="M95.05,47.92l-.81-1-.38.9a1,1,0,0,1,.19-1.49l.09,0C94.46,46.86,95.06,47.21,95.05,47.92Z"/><path class="cls-27" d="M64.54,34.16l.26-.75a2.41,2.41,0,0,1,.47,1.2c-.15.24.05.59-.26.77A2.79,2.79,0,0,1,64.54,34.16Z"/><path class="cls-107" d="M98.37,139.88l0,2.49v.48h-.2A8.58,8.58,0,0,1,98.37,139.88Z"/><path class="cls-108" d="M90.21,42.39l0-.5a5.29,5.29,0,0,1,1.24,1.3.3.3,0,0,1,0,.32C90.71,43.53,90.38,43.06,90.21,42.39Z"/><path class="cls-109" d="M99.86,15.42c-.13-.38.16-.84-.23-1.17a1.37,1.37,0,0,1,.39-1C100,14,100.28,14.72,99.86,15.42Z"/><path class="cls-110" d="M43.91,52.38l-.26.27-.93-1.19A1.52,1.52,0,0,1,43.91,52.38Z"/><path class="cls-111" d="M93.8,35.27c.21.54.45.75.76.06,0,.46.08,1-.47,1.2l-.44-.7Z"/><path class="cls-112" d="M101.06,61.95c.09-.56-.56-1.12,0-1.68a2.61,2.61,0,0,1,.27,1.21C101.38,61.72,101.52,62,101.06,61.95Z"/><path class="cls-79" d="M65.8,86a2.15,2.15,0,0,1-1-1.73A4.35,4.35,0,0,1,65.8,86Z"/><path class="cls-113" d="M84.75,131l-.28-1.14.28-.52a3.29,3.29,0,0,1,.22,1.71C84.87,131.18,84.8,131.16,84.75,131Z"/><path class="cls-114" d="M91.42,43.59l.06-.4,1,1-.26.24C91.49,44.55,91.45,44.08,91.42,43.59Z"/><path class="cls-115" d="M83.29,126.54a3.11,3.11,0,0,1-.48-1.69c.07-.11.14-.11.21,0a2.59,2.59,0,0,1,.26,1.7Z"/><path class="cls-116" d="M98.64,19.25a.51.51,0,0,0-.22-.47l.25-1a.13.13,0,0,1,.21,0C98.8,18.29,99.06,18.83,98.64,19.25Z"/><path class="cls-117" d="M98.16,52.69c-.29-.32-.69-.59-.48-1.12C98,51.89,98.38,52.16,98.16,52.69Z"/><path class="cls-118" d="M100.29,57.93c-.2-.41-.57-.79-.21-1.29.33.27.29.69.44,1C100.45,57.76,100.44,57.91,100.29,57.93Z"/><path class="cls-119" d="M65,35.38c0-.27,0-.58.26-.77.39.49-.08,1,0,1.46A.85.85,0,0,1,65,35.38Z"/><path class="cls-120" d="M99.15,134.3c0-.67-.24-1.37.19-2A5.08,5.08,0,0,1,99.15,134.3Z"/><path class="cls-121" d="M101.06,61.95l.25-.47a1.61,1.61,0,0,1,.18,1.24q-.13.14-.23,0C101,62.5,101,62.22,101.06,61.95Z"/><path class="cls-122" d="M101.29,66.77c.37-.21.09-.72.43-.94q0,.6,0,1.19c-.13.13,0,.37-.21.48h-.23Z"/><path class="cls-107" d="M98.67,139.6l0-1.79q-.11-.08-.07-.16t.07-.08h.23A4.94,4.94,0,0,1,98.67,139.6Z"/><path class="cls-123" d="M101.26,62.69l.23,0,0,1.4-.22.24Z"/><path class="cls-124" d="M100.81,59.77a2.2,2.2,0,0,1-.29-1.15c.08-.1.16-.09.24,0C100.69,59,101.3,59.37,100.81,59.77Z"/><path class="cls-120" d="M98.85,132.92c0,.59.21,1.2-.17,1.76A3.7,3.7,0,0,1,98.85,132.92Z"/><path class="cls-125" d="M104.6,18.05l-.44.24.09-1,.35.25Z"/><path class="cls-126" d="M105.37,8l-.26,0c.16-.26.32-.52.66-.59a.72.72,0,0,1-.12.85Z"/><path class="cls-127" d="M114,71.3c0,.4.56,1-.41,1A2,2,0,0,1,114,71.3Z"/><path class="cls-103" d="M101.51,67.5l.21-.48c0,.58.18,1.17-.18,1.71Z"/><path class="cls-128" d="M53.76,8.22,53,7.73a1.12,1.12,0,0,1,1.2.49Z"/><path class="cls-29" d="M94.58,40.41c0-.5-.18-1,.18-1.47A2.4,2.4,0,0,1,94.58,40.41Z"/><path class="cls-29" d="M93.58,36.73c0,.5.2,1-.23,1.48A2.45,2.45,0,0,1,93.58,36.73Z"/><path class="cls-64" d="M99.14,155.82a1.16,1.16,0,0,1-.08-1.43Z"/><path class="cls-129" d="M99.35,54.75c-.67-.07-.5-.56-.48-1A1.5,1.5,0,0,1,99.35,54.75Z"/><path class="cls-120" d="M98.64,137.57q0,.12,0,.24h-.2a3.15,3.15,0,0,1,.17-1.53Z"/><path class="cls-130" d="M100.81,173.8c.32-.16.16-.49.27-.73.21.34.4.67,0,1Z"/><path class="cls-120" d="M98.91,136.7c0-.43-.17-.89.17-1.28A2.68,2.68,0,0,1,98.91,136.7Z"/><path class="cls-131" d="M83,124.85h-.21a1,1,0,0,1-.24-.93A1,1,0,0,1,83,124.85Z"/><path class="cls-90" d="M51.32,4.62l-.21.23q-.46-.36,0-.72A.49.49,0,0,1,51.32,4.62Z"/><path class="cls-127" d="M114,72.77l-.69.25a.48.48,0,0,1,.21-.5A.5.5,0,0,1,114,72.77Z"/><path class="cls-132" d="M100.77,58.62h-.24a.85.85,0,0,1-.24-.68l.23-.26Z"/><path class="cls-133" d="M98.41,23.59a.7.7,0,0,1,.2-1A1.13,1.13,0,0,1,98.41,23.59Z"/><path class="cls-133" d="M98.66,22.18c0-.42-.18-.89.22-1.25A1.54,1.54,0,0,1,98.66,22.18Z"/><path class="cls-133" d="M98.89,17.81h-.21a1,1,0,0,1,.21-.72c.29.17.23.45.24.72Z"/><path class="cls-68" d="M96.76,134.49a1.77,1.77,0,0,1-.27,1.17h0c0-.43-.39-.92.24-1.21Z"/><path class="cls-134" d="M93.62,45.89l.23.26a4.89,4.89,0,0,0-.22,3.34,16.66,16.66,0,0,1-.47,3.42.53.53,0,0,1-.24-.39c-.08.07,0,.16,0,.24a2.38,2.38,0,0,1-.16.94c-.11.25-.12.68-.6.49-.09,0-.09,0,0,.1.8,1.43.12,2.89,0,4.32a34.45,34.45,0,0,1-.71,5.32,77.34,77.34,0,0,0-1.57,9.79c-.08.83-.31,1.64-.44,2.47-.08.52.15,1.18-.62,1.4a1.42,1.42,0,0,1-.3-1,59.79,59.79,0,0,1,.92-8.2c.73-5,1.07-10,1.71-15a69,69,0,0,0,1-7.72,1.07,1.07,0,0,1,.39-1l.22,0A9.09,9.09,0,0,0,93.62,45.89Z"/><path class="cls-135" d="M96.75,109.83c-.52,4.24-1,8.48-1.58,12.71a5.6,5.6,0,0,1-.34,2.11c-.54-.24-.39-.79-.55-1.2a9.92,9.92,0,0,1-.16-2.05c.85-3.5,1.09-7.09,1.63-10.63.37-2.43.79-4.85.95-7.31.22-.53-.08-1.14.27-1.64a7.19,7.19,0,0,0,.35-1.12c.24-.68.47-.31.7,0a1.83,1.83,0,0,1-.08.93l-.75,5c-.27.47,0,1-.21,1.51a.11.11,0,0,1,0,.17C96.67,108.77,97,109.34,96.75,109.83Z"/><path class="cls-136" d="M89.77,79.73c0,2.18-.71,4.29-.31,6.52.58,3.29.91,6.62,1.35,9.93l1.13,8.51a.29.29,0,0,1-.34,0c-.73-1-.67-2.29-.84-3.45-.37-2.52-.9-5-1.24-7.54a7.59,7.59,0,0,1-.07-1,3.62,3.62,0,0,0-.13-1.23,3,3,0,0,1-.09-.53c-.05-1.88-.62-3.71-.69-5.59a23,23,0,0,1-.12-3.15.87.87,0,0,1,.17-.28,3.16,3.16,0,0,0,.31-.38C89.28,81,88.86,80.05,89.77,79.73Z"/><path class="cls-137" d="M88.8,82.13h-.23c-.48-.53-.28-1.11-.15-1.7a12.17,12.17,0,0,0,.07-1.55c0-.35.11-.68.17-1a.57.57,0,0,1,.15-.29c.42-.42.16-1,.24-1.44.94-1.4.7-3.05.94-4.6.36-2.34.43-4.72,1.26-7,.53.26.29.68.21,1.06l-.54,4.53c-.17.29,0,.63-.11.93a1.44,1.44,0,0,0-.13,1.21L90,78.05c-.23.49,0,1-.19,1.52a.1.1,0,0,1,0,.15c-.5.63-.19,1.54-.73,2.16-.2-.16,0-.42-.17-.62s-.19.13-.06,0A.74.74,0,0,1,88.8,82.13Z"/><path class="cls-138" d="M100.35,82.66l-.29,2.83c-.23.4,0,.87-.19,1.27a77.18,77.18,0,0,1-1.21,9.57,3.67,3.67,0,0,0-.5,1.74c-.07.43-.08.88-.69.85.43-2.92.85-5.84,1.31-8.75A41.54,41.54,0,0,1,99.6,85c.29-.47,0-1,.21-1.51a.13.13,0,0,1,0-.17c.32-.55,0-1.19.22-1.75l0-.41C100.78,81.57,100.34,82.15,100.35,82.66Z"/><path class="cls-139" d="M96.7,103.45a25.29,25.29,0,0,1-.57,6.13c-.38,1.77-.34,3.63-.63,5.43-.35,2.16-.29,4.4-1.14,6.47a.61.61,0,0,1-.23-.26,3.37,3.37,0,0,1-.15-.7c-.08-.49-.62-1-.1-1.49.65.28.4-.3.43-.5.75-4.84,1.48-9.68,2.22-14.52A3.91,3.91,0,0,1,96.7,103.45Z"/><path class="cls-140" d="M91.46,65.62c-.08-.34.1-.74-.26-1a.6.6,0,0,1,0-.72c.31-2.59.6-5.19.95-7.77.12-.86-.36-1.64-.2-2.49.37-.06.09.41.41.43l.49-2.4c.39.52.21.93.31,1.28C92.62,57.16,92.21,61.41,91.46,65.62Z"/><path class="cls-141" d="M91.68,104.69h.26q1,5.86,1.63,11.77a.32.32,0,0,1-.36,0c-.61-.8-.41-1.85-.81-2.72a10.35,10.35,0,0,1-.33-2.72,26.24,26.24,0,0,0-.33-3.24,2.59,2.59,0,0,1-.09-.38C91.73,106.48,91,105.58,91.68,104.69Z"/><path class="cls-142" d="M100.35,82.66c-.17-.48.17-1-.26-1.48l.75-9.35.2,0c.28.36,0,.83.21,1.2a1.58,1.58,0,0,1-.21,1.21,4,4,0,0,0,0,1.9C100.8,78.3,100.74,80.49,100.35,82.66Z"/><path class="cls-143" d="M93.35,116.45h.21a9.51,9.51,0,0,1,.31,2.58c-.24.62.46,1,.43,1.51-.33.32-.2.74-.23,1.12s.09.76-.23,1.07a.33.33,0,0,1-.36-.1,23.19,23.19,0,0,1-.66-5.41C92.81,116.9,92.83,116.47,93.35,116.45Z"/><path class="cls-144" d="M97.47,98.93c.83-.88.49-2.15,1.1-3.22l.09.63-.51,3.8c-.16.12-.05.38-.24.48-.22-.08-.45-.2-.47.2a1.32,1.32,0,0,1-.47,1,6.13,6.13,0,0,1,.26-1.68c0-.33.36-.59.21-1Z"/><path class="cls-145" d="M93.62,49.5a2.42,2.42,0,0,1,.22-3.34l.21.22c0,.5-.34,1-.19,1.49A3,3,0,0,1,93.62,49.5Z"/><path class="cls-146" d="M100.05,81.58c0,.59.24,1.21-.22,1.75A3.81,3.81,0,0,1,100.05,81.58Z"/><path class="cls-146" d="M99.81,83.5c0,.51.21,1.05-.21,1.51A2.62,2.62,0,0,1,99.81,83.5Z"/><path class="cls-136" d="M89.78,79.57c0-.51-.2-1.05.19-1.52A2.71,2.71,0,0,1,89.78,79.57Z"/><path class="cls-147" d="M90.68,71.13c.08-.33-.07-.71.24-1a2.67,2.67,0,0,1-.18,1.44A.33.33,0,0,1,90.68,71.13Z"/><path class="cls-122" d="M101.26,67.94c0,.42.14.86-.19,1.22A1.61,1.61,0,0,1,101.26,67.94Z"/><path class="cls-138" d="M97.44,99.17c.4.42,0,.67-.21,1A1.24,1.24,0,0,1,97.44,99.17Z"/><path class="cls-148" d="M90.68,71.13l.05.46-.06.7A.85.85,0,0,1,90.68,71.13Z"/><path class="cls-149" d="M97,129.41q0,.12,0,.24a16.07,16.07,0,0,1-.73,4.58l-.22,0c-.53-.58-.28-1.29-.31-1.95.28-2.82,1-5.57,1.35-8.39a.54.54,0,0,0-.08-.44l.74-4.07c.61.07.63.52.56,1-.17,1-.19,2.08-.35,3.11C97.73,125.43,97,127.37,97,129.41Z"/><path class="cls-150" d="M97,123.41a2.8,2.8,0,0,1,.16,2.29c-.64,2.09-.7,4.26-1.14,6.37a.25.25,0,0,1-.3,0,.89.89,0,0,1-.09-.87c0-.05.25-.34-.08-.09a.18.18,0,0,1-.2,0c-.43-.34-.35-.87-.51-1.32,0-.37-.14-.82.45-.88l.32.89C96.35,127.59,96.33,125.43,97,123.41Z"/><path class="cls-151" d="M99.84,110.69v-1.92a2.18,2.18,0,0,1-.19-1.72c.3-1.78.27-3.6.55-5.38a.6.6,0,0,0-.1-.33,18.06,18.06,0,0,1,.26-3.14c.2-.49,0-1,.17-1.5l.06-1.6c.66.39.25.94.22,1.43-.16,3.88-.28,7.76-.53,11.63A5.8,5.8,0,0,1,99.84,110.69Z"/><path class="cls-152" d="M101.76,81.88v.74c0,3.19-.34,6.37-.5,9.55a1.71,1.71,0,0,1-.22.52c-.3-.53,0-1.14-.21-1.67l.48-7.94c.19-.38,0-.8.14-1.18A.22.22,0,0,1,101.76,81.88Z"/><path class="cls-153" d="M97.92,123.41a9.68,9.68,0,0,1,.19-2.68,1.32,1.32,0,0,0-.4-1.39l.73-5.05a.38.38,0,0,1,.43-.09.66.66,0,0,1,.24.57q0,.12,0,.24c-.18,1.44-.31,2.88-.48,4.32l-.24,1.2A14.17,14.17,0,0,1,97.92,123.41Z"/><path class="cls-154" d="M100.1,101.34a2.12,2.12,0,0,1,.18,1.73c-.27,1.89-.29,3.8-.45,5.7H99.6c-.17-.11-.08-.35-.23-.48a29.49,29.49,0,0,1,.5-5.05c.2-.4,0-.86.18-1.26Z"/><path class="cls-155" d="M99.38,108.29a.5.5,0,0,1,.23.48c-.23,2-.06,4-.48,6a.5.5,0,0,1-.24-.48c-.28-.36,0-.81-.19-1.19a2.69,2.69,0,0,1,.2-1.21c.28-.47,0-1,.21-1.51A6.17,6.17,0,0,1,99.38,108.29Z"/><path class="cls-156" d="M95.28,128.93c-.34.26-.2.63-.23,1s-.29.79-.83.43c-.34-1.38.21-2.67.37-4a.66.66,0,0,1,.26-.31C95.36,126.92,94.78,128,95.28,128.93Z"/><path class="cls-157" d="M100.81,96.53c-.08-.48.17-1-.22-1.43a3.32,3.32,0,0,1,.17-1.7q.14-.19.28,0v.48C100.91,94.76,101.31,95.69,100.81,96.53Z"/><path class="cls-158" d="M94.84,126l-.1.25a1.79,1.79,0,0,1-.18-2.6c.26.29-.11.75.27,1Z"/><path class="cls-159" d="M101.76,81.88h-.21a2.72,2.72,0,0,1-.05-1.7l.06-1.39C102,79.79,101.64,80.85,101.76,81.88Z"/><path class="cls-2" d="M101.49,80.18l.05,1.7c-.09.4.12.86-.23,1.21A8.52,8.52,0,0,1,101.49,80.18Z"/><path class="cls-160" d="M101,93.41h-.28l.07-2.38c.41.52.11,1.12.21,1.67Z"/><path class="cls-161" d="M101,76.11a2,2,0,0,1,0-1.9Z"/><path class="cls-162" d="M101.24,73c-.34-.35-.14-.8-.21-1.2l.15-.28.13.33Z"/><path class="cls-144" d="M97,108.12c0-.51-.21-1.05.21-1.51A2.72,2.72,0,0,1,97,108.12Z"/><path class="cls-157" d="M100.53,96.7c0,.51.19,1-.17,1.5A3.24,3.24,0,0,1,100.53,96.7Z"/><path class="cls-163" d="M98.69,113.1c.33.35.14.79.19,1.19h-.44Z"/><path class="cls-138" d="M97.91,100.61a.54.54,0,0,1,.24-.48,3,3,0,0,1-.21,1.49Z"/><path class="cls-39" d="M99.09,110.38c0,.51.21,1.06-.21,1.51A3,3,0,0,1,99.09,110.38Z"/><path class="cls-144" d="M96.75,109.83c0-.52-.23-1.08.21-1.54A3.33,3.33,0,0,1,96.75,109.83Z"/><path class="cls-151" d="M100.05,102c0,.43.17.88-.18,1.26A1.84,1.84,0,0,1,100.05,102Z"/><path class="cls-146" d="M99.87,86.77c0-.43-.18-.89.19-1.27A2,2,0,0,1,99.87,86.77Z"/><path class="cls-1" d="M92.45,44.69a70.49,70.49,0,0,1-1,9c-.42,3.45-.73,6.91-1.14,10.36-.44,3.61-1,7.2-1.42,10.8-.07.55-.08,1.12-.11,1.68-.24.2.22.87-.5.74-.29-.36-.24-.84-.4-1.24a20.64,20.64,0,0,0-.72-3.32,21.24,21.24,0,0,1-.59-3.15,3.38,3.38,0,0,0-.35-1.17,12.2,12.2,0,0,0,.18,2.69c.13.51,0,1,.21,1.55a2.21,2.21,0,0,1,.08.35c0,.3,0,.61.07.91s.13.5.17.75c.41,2.72.59,5.47,1,8.2.1,1.58.35,3.16.3,4.75s-.27,3.05-.34,4.58a43.11,43.11,0,0,0-.16,5.61c0,.54.12,1.13-.35,1.58-1.13-.17-.66-1.23-1-1.83-.22-1.63-.8-3.18-1-4.82a28.32,28.32,0,0,0-.64-3.51,4.09,4.09,0,0,0-.24-.87,4.17,4.17,0,0,1-.34-1.4,14,14,0,0,0-.6-2.24A14.19,14.19,0,0,0,83.23,83c-.1-.51-.23-1-.37-1.5s-.29-1.06-.45-1.59c0-.1-.07-.21-.11-.32a14,14,0,0,0-.5-1.62,19.23,19.23,0,0,1-.67-3.56c-.35-1.9-1.27-3.62-1.74-5.48-.16-.35-.25-.73-.42-1.07-.17-1.11-.3-2.22-.55-3.31-.5-3.79-1-7.57-1.6-11.35a7.36,7.36,0,0,1-.13-1.06,1.81,1.81,0,0,0-.25-1.07,12.93,12.93,0,0,0,.09,3.48,4.22,4.22,0,0,1,.08,1.09,1.17,1.17,0,0,1-.08.36,1.83,1.83,0,0,0,0,1.25l.07,2.29c0,.28.32.66-.26.74l-1.44-3.59c-.94-2.92-2.27-5.7-3.37-8.56-1.45-3.76-2.86-7.53-4.33-11.29-.42-1.09-1-2.13-1.44-3.19A90.65,90.65,0,0,0,62.19,24l-1-2.32a1.7,1.7,0,0,0-.44-1l-.14-.07-.79-1c-1.49-2.74-3.17-5.35-4.8-8-.45-.73-1.29-1.35-1-2.41.4-.09.69.2.95.39,2.59,1.88,5.15,3.81,7.6,5.88.57.48,1.16.93,1.74,1.4a2.82,2.82,0,0,1,1.22.94.16.16,0,0,0,.17,0,5.09,5.09,0,0,1,.73.6c.76,1,2.13,1.49,2.67,2.75l10.26,9.88h0c1.13,1.19,2.37,2.28,3.43,3.55a53.35,53.35,0,0,0,6,6.37,7.1,7.1,0,0,0,1.44,1.42l1.2,1.2c.21.31.37.68.77.8Z"/><path class="cls-1" d="M87,132.07l-.18-3.86a5.85,5.85,0,0,0-.17-2.2.68.68,0,0,1-.25-.31,11.34,11.34,0,0,1-.11-2.19,5.3,5.3,0,0,0-.15-1.35A9.71,9.71,0,0,1,86,121c-.15-1.43-.28-2.86-.49-4.28-.46-3.27-.63-6.57-1.1-9.84C83.7,99.38,82.64,92,81.72,84.53c0-.36-.19-.69-.21-1.05a17.4,17.4,0,0,1-.38-4l-.27-2.34c-.11-.29-.21-.59.14-.8a.42.42,0,0,1,.31.15c.42.58.4,1.33.73,1.94a2.7,2.7,0,0,0,.53,1.33v0A6.37,6.37,0,0,0,83,81.84c.19.49.2,1,.38,1.53s.14,1.06.31,1.58a14.36,14.36,0,0,1,.6,2.47,5,5,0,0,0,.37,1.4,3.55,3.55,0,0,0,.24,1.07c.21.72.21,1.49.47,2.2,0,1.65.64,3.21.82,4.83.24,1.08.41,2.16.65,3.24s.28,2.07.52,3.09c0,.67.25,1.32.29,2s0,1.12,0,1.68a23,23,0,0,0,.17,4.28,39.5,39.5,0,0,1,.32,5.73,3.26,3.26,0,0,0,.15,1.18c.23,1.33,0,2.69.22,4a5,5,0,0,1,.11,1.23,6.29,6.29,0,0,0,.13,2,5,5,0,0,1,.1,1A4.94,4.94,0,0,0,89,128c.19.82,0,1.68.21,2.5a2.26,2.26,0,0,1,.08.38,10,10,0,0,0,.18,2.1,3.24,3.24,0,0,1,.09.59,7.54,7.54,0,0,0,.19,2.21c.09,2,.39,3.95.31,5.94a3.23,3.23,0,0,0,.13,1.3,6,6,0,0,1,.1,1.48q0,.73,0,1.46a11.24,11.24,0,0,1-.38,3.49c-.15.27-.34.46-.68.36l-.19-.5A83.6,83.6,0,0,1,87.46,139c-.1-1.45-.34-2.9-.31-4.36l0-.46A6.94,6.94,0,0,1,87,132.07Z"/><path class="cls-164" d="M81.36,94.37c-.49-1-.19-2.15-.72-3.12l-.72-8.4.24-.24c.41-.26.58,0,.66.34a6.06,6.06,0,0,0,.3,1,23.06,23.06,0,0,1,.83,7,1.06,1.06,0,0,0-.38,1.13A2.7,2.7,0,0,1,81.36,94.37Z"/><path class="cls-165" d="M80.88,83.81a.46.46,0,0,1-.3-.66c.12-.35-.09-.51-.42-.54v-.24c.45-.68-.41-1.5.24-2.16.34-.15.89-.1.73-.75a27.13,27.13,0,0,1,.68,3.88c-.28.35.2.87-.26,1.18C81,84.53,81.25,83.9,80.88,83.81Z"/><path class="cls-166" d="M79.22,68a1.27,1.27,0,0,1,.18,1c-.44-.19-.46-.71-.77-1l-.39.53c0-1.41-.56-2.71-.72-4.08.46-.59.75-.41,1,.2A20.16,20.16,0,0,1,79,67C79,67.3,79,67.67,79.22,68Z"/><path class="cls-167" d="M81.87,78.52l-.69-1.93c.13-.37-.21-.65-.21-1a.45.45,0,0,1,.15-.42l0-.77a21,21,0,0,1,1,3.58C82.17,78.23,82.33,78.52,81.87,78.52Z"/><path class="cls-164" d="M80.4,80.21c-.21.71.47,1.51-.24,2.16a10,10,0,0,1-.08-3.84Z"/><path class="cls-168" d="M81.12,75.17v.48a.43.43,0,0,1-.26.14.6.6,0,0,1-.28-.11.19.19,0,0,1,0-.26,3.5,3.5,0,0,1-.15-2Z"/><path class="cls-169" d="M80.64,75.42v.25c.07.1.05.17-.06.22-.27,0-.72.34-.77-.11C79.74,75.13,80.46,75.79,80.64,75.42Z"/><path class="cls-170" d="M80.59,75.89a.46.46,0,0,0,.06-.22h.2c.2.21.47.39.21.73l-.19.73C80.54,76.76,80.66,76.3,80.59,75.89Z"/><path class="cls-171" d="M102.75,40.84H103c-.12.88.27,1.8-.23,2.64Z"/><path class="cls-172" d="M69.09,21.18a21.93,21.93,0,0,1-2.89-2.64.55.55,0,0,1,.77,0l2.28,2.16C69.51,21,69.54,21.14,69.09,21.18Z"/><path class="cls-173" d="M65.52,17.8a1.94,1.94,0,0,1-1.22-.94l.26-.25C65,16.91,65.45,17.2,65.52,17.8Z"/><path class="cls-65" d="M67,18.53l-.77,0a.73.73,0,0,1-.5-.71A1.39,1.39,0,0,1,67,18.53Z"/><path class="cls-174" d="M84.24,121v-.24c-.11-1.92-.33-3.84-.48-5.76l-.72-8.4a.57.57,0,0,1,.56-.13c.68.51.47,1.32.69,2a6.7,6.7,0,0,0,.17,1.73,2.39,2.39,0,0,1,.08.39c-.07,1.54.52,3,.52,4.53a10.32,10.32,0,0,0,0,1.71.5.5,0,0,1-.13.35,13.34,13.34,0,0,0,0,5.36C84.24,122.14,84.72,121.37,84.24,121Z"/><path class="cls-175" d="M85,117.17v-.24c-.31-.53.08-1.16-.24-1.68.05-1.62-.7-3.16-.48-4.8a3.35,3.35,0,0,0,.2-1.73c0-.65-.23-1.35.31-1.92l1.14,9.9c-.26.46.16,1.24-.68,1.43C85.17,117.8,85.31,117.42,85,117.17Z"/><path class="cls-176" d="M85.2,118.13l.68-1.43.48,4.32c-.11.4-.35.81.09,1.18a2,2,0,0,1,.15,1.22,5.51,5.51,0,0,0,.05,2.39.14.14,0,0,1,0,.19c-.13.35.13.79-.34,1.19A48.49,48.49,0,0,1,85.2,118.13Z"/><path class="cls-177" d="M89.73,149.55,90,146c.91.76.71,1.91,1,2.88,0,2.21-.59,4.38-.47,6.6a5.13,5.13,0,0,0,.3,1.86,1.44,1.44,0,0,1,0,1.15c-.12.31.06.67-.17,1-.41.13,0,1-.6.81s-.53-.78-.56-1.22c-.06-1.29,0-2.58,0-3.87s-.51-2.8.22-4.14A1.34,1.34,0,0,1,89.73,149.55Z"/><path class="cls-178" d="M87.15,134.68l1.94,14.64a33,33,0,0,1-1.49-6.44c0-.42.15-.88-.24-1.23a1.83,1.83,0,0,1-.25-2.15,12.5,12.5,0,0,0-.19-4.44C86.91,135,87.07,134.8,87.15,134.68Z"/><path class="cls-179" d="M87.12,139.5a9.26,9.26,0,0,0,.25,2.15c-.08.48.19,1-.24,1.44l-.25-1-.22-1.7c.25-.27-.07-.68.22-.95Z"/><path class="cls-180" d="M89.73,149.55V151c-.21.13-.43.27-.46-.13s0-.69,0-1Z"/><path class="cls-181" d="M90.71,159.41v-1l.12-.09.12.09c-.08.48.19,1-.24,1.44Z"/><path class="cls-182" d="M85.91,136.37a22.81,22.81,0,0,1-1-3.84c1.41-.73,1.37.92,1.33,1.16-.27,1.36.6,2.57.37,3.88C85.91,137.47,86.38,136.64,85.91,136.37Z"/><path class="cls-183" d="M85.91,136.37c.81.05.24,1,.73,1.2l.25,1.92c0,.32.11.69-.22.95l-.52-2.38Z"/><path class="cls-184" d="M87,132.07l.1,2.15A2.67,2.67,0,0,1,87,132.07Z"/><path class="cls-185" d="M84.75,131a.53.53,0,0,0,.21,0c.29.23.33.47,0,.71A1.06,1.06,0,0,1,84.75,131Z"/><path class="cls-7" d="M82.8,34.59A27.07,27.07,0,0,1,79.37,31,11.57,11.57,0,0,1,82.8,34.59Z"/><path class="cls-186" d="M95.76,143.33l.37-1c.81,1.57.57,3.21.62,4.82a2.12,2.12,0,0,0,.21.79,1.59,1.59,0,0,1,.57,1.48,42.88,42.88,0,0,0,.83,6.9,11.06,11.06,0,0,1,.27,2.89c-.11,1.23.46,2.43.18,3.66a.41.41,0,0,1-.28.25c-.65-.33-.34-1-.51-1.48a2.44,2.44,0,0,1-.09-.33c-.1-.54,0-1.09-.13-1.63a2.54,2.54,0,0,1,0-.31,6.11,6.11,0,0,0-.24-1.36,1.34,1.34,0,0,1,0-.32,1.15,1.15,0,0,0-.15-1.08,1,1,0,0,1-.09-.47,3.56,3.56,0,0,0-.31-1.24,6.64,6.64,0,0,1-.31-2.12c.22-1.23-.48-2.46,0-3.68-1-1-.45-2.43-.81-3.61,0-.16-.22,0-.06,0s.08,0,.09.08c0,.27,0,.47-.36.47a1.15,1.15,0,0,1-.41-1.18A4.68,4.68,0,0,1,95.76,143.33Z"/><path class="cls-187" d="M98.15,156.3a28,28,0,0,1-.94-5.93,10.14,10.14,0,0,0-.25-2.47c.34-.42,0-1,.42-1.53a4.87,4.87,0,0,0,.54,2.25l.25.25c.31,1.46-.15,2.92,0,4.38C98.19,154.26,98.71,155.28,98.15,156.3Z"/><path class="cls-188" d="M95.76,143.33a1.66,1.66,0,0,1-.46,1.44c-.51-.17-.5-.63-.58-1,0-.24-.08-.48.11-.68.62-.16.28-.88.68-1.17C95.6,142.37,95.33,142.91,95.76,143.33Z"/><path class="cls-189" d="M83.52,106.61H83q-.48-3.46-1-6.92c0-.34.1-.73-.24-1l-.48-4.32a9.79,9.79,0,0,0-.21-2.78c-.21-.62.17-.73.69-.58a.53.53,0,0,1,.12.34,6,6,0,0,0,.56,3.36c.71,2.4.55,4.9.86,7.34.13,1,.17,2.06.36,3.08A1.53,1.53,0,0,1,83.52,106.61Z"/><path class="cls-8" d="M83.76,115a20,20,0,0,1,.48,5.76c-.55-.93-.1-2-.41-3a13.68,13.68,0,0,1-.31-2.79Z"/><path class="cls-1" d="M95,143.58a2.55,2.55,0,0,0,.27,1.2,1.81,1.81,0,0,0,.24,1.19c.79,1.08.64,2.41.91,3.63a24.81,24.81,0,0,1,.49,3.16l.3,2.34c.13.31.05.65.19,1l.05.47c.36.38,0,.85.18,1.26a.13.13,0,0,0,0,.18c.24.46.06,1,.21,1.47v0c.38.61,0,1.32.26,1.94v0c.23,1.09.22,2.23.55,3.3a14,14,0,0,1,0,2.33c-.08.27-.09.59-.5.57l-.48-1.18a5.79,5.79,0,0,1-.5-1.45.23.23,0,0,0,0-.23,5.49,5.49,0,0,1-.67-1.92h0l-2.63-8.66a14.36,14.36,0,0,0-.94-3.38.82.82,0,0,1-.23-.88c.37-1.12.58-2.28.93-3.4.22-.66.35-1.36.62-2C94.39,144.07,94.44,143.57,95,143.58Z"/><path class="cls-40" d="M98.41,167.08l0-2.39c.08-.56-.33-1.12,0-1.68h.23a.5.5,0,0,1,.31.34,36.26,36.26,0,0,1,.17,7.1h0c-.59-.53-.5-1.3-.7-2C98.33,168,98.63,167.55,98.41,167.08Z"/><path class="cls-19" d="M96.49,162.76a6.07,6.07,0,0,1,.67,1.92C96.43,164.22,96,163.66,96.49,162.76Z"/><path class="cls-190" d="M98.41,167.08a1.09,1.09,0,0,1,0,1.4.92.92,0,0,1-.22-.94Z"/><path class="cls-19" d="M97.21,164.91a3.08,3.08,0,0,1,.5,1.45A1.46,1.46,0,0,1,97.21,164.91Z"/><path class="cls-191" d="M54,9.2c1.31,2.59,3,5,4.41,7.48.55,1,1.44,1.79,1.6,3a.43.43,0,0,1,0,.54L59.28,20a17.66,17.66,0,0,0-2.16-4.32L55,12.53a23.51,23.51,0,0,1-1.45-3.11v-.5A.52.52,0,0,1,54,9.2Z"/><path class="cls-192" d="M99.12,170.45a31.85,31.85,0,0,1-.24-5.93,2.82,2.82,0,0,0-.24-1.51,37.79,37.79,0,0,0-.24-3.84c.27-.44,0-.95.16-1.41a.2.2,0,0,1,.31,0c.11,1-.25,2.12.23,3.14-.18,2.34.51,4.62.49,6.94-.38.33-.2.69-.08,1.06A1.41,1.41,0,0,1,99.12,170.45Z"/><path class="cls-193" d="M77,51.9q.81,5.71,1.62,11.41c.06.43.08.87.11,1.3-1-.94-.86-2.25-1.08-3.44a8.27,8.27,0,0,0-.15-1.46c-.1.37.57,1-.23,1.29a18.25,18.25,0,0,1-.47-4.56c.23-.45-.06-.94.09-1.4,0-.14-.05-.25,0-.09s0,.11-.15.14a.32.32,0,0,1-.25-.14,18.21,18.21,0,0,0-.26-1.82c0-.32,0-.64,0-1C76.23,51.37,76.59,51.54,77,51.9Z"/><path class="cls-194" d="M77.28,61c.68-.61-.4-1.35.27-2.12a33,33,0,0,0,1.19,5.72A14,14,0,0,1,79.22,68c-.71-.75-.52-1.75-.77-2.63-.12-.42.15-1.4-.93-1A15.68,15.68,0,0,1,77.28,61Z"/><path class="cls-195" d="M76.8,55l0-.45c.15.63.72,1.28,0,1.89q0-.12,0-.24A.93.93,0,0,1,76.8,55Z"/><path class="cls-196" d="M76.34,60.28c.3-.17.14-.5.26-.74a2.34,2.34,0,0,1,.16,1.53C76.38,60.9,76.35,60.59,76.34,60.28Z"/><path class="cls-197" d="M76.8,55q0,.6,0,1.2h-.22a.31.31,0,0,1-.2-.24v-.26c.16-.21,0-.52.2-.71Z"/><path class="cls-193" d="M76.38,56l.2.24-.05,1A2.47,2.47,0,0,1,76.38,56Z"/><path class="cls-198" d="M93.62,45.89c-.62-.15-.82-.63-.95-1.18l.69.46Z"/><path class="cls-56" d="M103.2,35.57v-.48a17.77,17.77,0,0,1,.29-4.41.8.8,0,0,1,.43-.62Z"/><path class="cls-125" d="M103.92,14.93V12.05a4.66,4.66,0,0,1,1-3.12,22.83,22.83,0,0,0-.71,5.12C104.14,14.36,104.22,14.7,103.92,14.93Z"/><path class="cls-125" d="M103.69,18.29h.23c0,.33-.11.71.24,1l-.24,3.35c-.43.42-.16,1-.24,1.44-.4-.34-.18-.8-.24-1.2v-1c.32-.53-.07-1.15.23-1.69Z"/><path class="cls-155" d="M98.64,119.33a3.58,3.58,0,0,1,.17-2.39c.27-.66-.62-1.44.31-1.93A12,12,0,0,1,98.64,119.33Z"/><path class="cls-41" d="M103.67,20.21c-.08.56.22,1.18-.23,1.69C103.52,21.33,103.23,20.72,103.67,20.21Z"/><path class="cls-199" d="M95,139.49c-.53.45.06,1.22-.46,1.67-.58-.35-.52-1-.73-1.53a8.27,8.27,0,0,1-.09-1.58,4.24,4.24,0,0,1,.76-2.9c.26-.08.38.08.49.28.28.86,0,1.79.28,2.65A2.25,2.25,0,0,1,95,139.49Z"/><path class="cls-200" d="M95,138.05c-.51-.84-.11-1.77-.24-2.64a5.05,5.05,0,0,1,1-3.38l.22,0q0,1.06,0,2.13l0,.25c-.1.88-.33,1.74-.47,2.61C95.46,137.45,95.42,137.83,95,138.05Z"/><path class="cls-38" d="M96.23,134.22a20,20,0,0,1,.73-4.58,3.82,3.82,0,0,1,0,2.67,9.22,9.22,0,0,0-.23,2.12c-.36.35-.16.81-.24,1.21C96.09,135.22,96.31,134.7,96.23,134.22Z"/><path class="cls-201" d="M95,138.05a20.53,20.53,0,0,1,1-3.61,17.71,17.71,0,0,1-.46,4.31.87.87,0,0,1-.5.74Q95,138.77,95,138.05Z"/><path class="cls-202" d="M95,143.58c-.82.79-.56,2-1.17,2.9-.52-.52-.29-1.18-.34-1.79a4.73,4.73,0,0,1,.62-2.28c.3-.2.49-.08.62.21l.07.44Z"/><path class="cls-203" d="M94.32,142.37l-.48,2.16a.26.26,0,0,1-.36-.09,8.19,8.19,0,0,1,.61-4.7c.37.41.29,1,.49,1.43l0,.5C94.32,141.85,94.58,142.19,94.32,142.37Z"/><path class="cls-204" d="M94.32,142.37c0-.26-.05-.54.23-.71l.2,1Z"/><path class="cls-205" d="M92.91,149.82v.9a26.92,26.92,0,0,1-.24,4.56l-.07-.18a1.46,1.46,0,0,1-.64-1.21,1.83,1.83,0,0,1,0-.35c.18-.51-.2-1,0-1.53a2.57,2.57,0,0,0,.3-1.52c0-.34-.17-.72.23-1a.39.39,0,0,1,.32.14Z"/><path class="cls-181" d="M92.15,153.9l.46,1.21c-1,.93-.62,2.29-1.09,3.39-.06.15,0,.47-.24.41-.13,0-.22-.29-.32-.45h0c-.16-.83-.23-1.67-.32-2.51a1.31,1.31,0,0,1,.21-.78c.65-.2.46.2.41.52.11-.3,0-.65.1-1S91.53,153.83,92.15,153.9Z"/><path class="cls-206" d="M98.65,157.71c-.11.48.18,1-.25,1.45.13-1-.29-1.9-.25-2.87s-.34-2.07-.23-3.13c.14-.13.21-.39.48-.24,0,.18,0,.37.24.46l0,3.15A1.61,1.61,0,0,1,98.65,157.71Z"/><path class="cls-207" d="M98.41,152.93l-.48.24.24-4.31.24,0Z"/><path class="cls-64" d="M98.65,157.71q0-.59,0-1.17c.36.35.16.79.21,1.19Z"/><path class="cls-87" d="M60.74,20.67c0,.34,0,.72-.49.74h0c-.23-.51,0-.75.5-.73Z"/><path class="cls-80" d="M60.74,20.67a.77.77,0,0,0-.5.73c-.72-.27-.24-.78-.24-1.2l0-.54A1.25,1.25,0,0,1,60.74,20.67Z"/><path class="cls-147" d="M91.2,63.89v.72A92.08,92.08,0,0,0,90,74.1c-.07.72-.08,1.6-.93,2,.67-2.66.64-5.43,1.22-8.1A16.67,16.67,0,0,1,91.2,63.89Z"/><path class="cls-208" d="M88.35,77.3l.4-.73,0,1a.87.87,0,0,0,0,.23c-.14.22-.27.45-.56.17A.51.51,0,0,1,88.35,77.3Z"/><path class="cls-209" d="M94.56,123.65c-.51.91.06,1.74.18,2.6.16,1.4-.47,2.73-.41,4.12a.22.22,0,0,1-.06.27.51.51,0,0,1-.3,0c-.52-.21-.61.52-1.05.49a.61.61,0,0,1-.24-.26,7,7,0,0,1-.12-1.91,3.18,3.18,0,0,1,.4-1.65c.94-.17,1-.16.8,1.07a3.57,3.57,0,0,0,.06-2.49,6.56,6.56,0,0,1,0-3.23v-1.19c.13-.13.19-.39.46-.23a1.43,1.43,0,0,0,.05.22Z"/><path class="cls-210" d="M91.68,104.69l.24,2.88c-.75-.42-.38-1.24-.66-1.81.26,1.3.51,2.62.66,4,.08.68.43,1.5-.47,2a1.29,1.29,0,0,1-.54-1.14c-.07-2.56-.69-5-1-7.57a6.33,6.33,0,0,1,0-2.25c-.47-2.47-.57-5-.89-7.47a6.23,6.23,0,0,1-.23-1.6c0-.41.07-.9.73-.67v.48c.28.36-.06.84.24,1.2.17,2.18.62,4.33,1,6.48C91.07,101,91.37,102.85,91.68,104.69Z"/><path class="cls-211" d="M89.52,91c-.67.12-.53.63-.41,1a4.52,4.52,0,0,1,.17,1.39.77.77,0,0,1-.41.27,1,1,0,0,1-.5.05.58.58,0,0,1-.4-.52c0-.79.26-1.58.05-2.05.24.79-.38,2,.29,3.06a2.22,2.22,0,0,1-.49,2.13.26.26,0,0,1-.32-.2,35,35,0,0,1,.07-4,24,24,0,0,1,.31-4.52c.19-.66,0-1.35.12-2,.09-.38.18-1,.8-.39C88.93,87.18,89.49,89.07,89.52,91Z"/><path class="cls-212" d="M88.8,85.25c-.82-.23-.62.45-.71.83s.17,1.08-.21,1.56l-.29-4.79c.47-2.12.11-4.26.08-6.39a.62.62,0,0,1,.45-.39l.24,1.22,0,.73c.17.15.3.35.47.51.16,1.22-.29,2.39-.24,3.6C88.9,83.15,88.56,84.22,88.8,85.25Z"/><path class="cls-211" d="M89.76,92.69c-.4-.34-.18-.8-.24-1.2C89.92,91.83,89.7,92.29,89.76,92.69Z"/><path class="cls-212" d="M88.8,82.13v-1c.37.24.18.54.24.77Z"/><path class="cls-134" d="M88.8,78.53a.43.43,0,0,1-.47-.51l.45-.22C89.09,78,88.72,78.29,88.8,78.53Z"/><path class="cls-213" d="M94.31,121.26l-.46.23c0-.37-.19-.87.46-.95Q94.31,120.9,94.31,121.26Z"/><path class="cls-214" d="M93.35,116.45c-.48,1.43,0,2.85.08,4.27,0,.66.14,1.33.18,2a3.06,3.06,0,0,1,.08,1.64c-.54.58-.73.14-.87-.32a12.57,12.57,0,0,1-.37-2.25c-.16-1.59-.47-3.16-.53-4.76a.84.84,0,0,1,.15-.33c.6-.41.39-1,.38-1.58s-.22-.92.18-1.31C93.24,114.59,92.93,115.62,93.35,116.45Z"/><path class="cls-215" d="M92.64,113.81c.05.83.1,1.66.16,2.49,0,.3,0,.55-.4.39-.61-1.62-1.31-3.23-1-5,.68-1.21-.11-2.4-.05-3.61a14.1,14.1,0,0,1-.11-2.71c.36.78.21,1.6.64,2.23h0a27.16,27.16,0,0,0,.48,3.36C92.25,111.91,92.7,112.84,92.64,113.81Z"/><path class="cls-210" d="M92.4,110.93a7.1,7.1,0,0,1-.48-3.36A11.58,11.58,0,0,1,92.4,110.93Z"/><path class="cls-216" d="M93.58,124.37l0-1.65.22,0c.34,1.24,0,2.54.42,3.82a2.42,2.42,0,0,1-.64,2.58c-.65-.57.72-1.49-.49-1.83C92.58,126.18,93.11,125.28,93.58,124.37Z"/><path class="cls-217" d="M94.32,130.61q0-.12,0-.24c.37,0,.46-.34.71-.48.45.29,0,.9.46,1.2a4.87,4.87,0,0,1-.76,3.18c-.55-.19-.48-.67-.49-1.09a18.32,18.32,0,0,1,0-2.37Z"/><path class="cls-218" d="M94.78,134.19l.72-3.1c.07-.1.12-.48.24-.06a3.76,3.76,0,0,1,0,1l-1,3.38-.23-.24a.47.47,0,0,1-.15-.28A.91.91,0,0,1,94.78,134.19Z"/><path class="cls-219" d="M87.84,76.37c.14,1.09.22,2.19.43,3.26s-.49,2.14-.68,3.22c-.47-2.77-.7-5.56-1-8.35.32-.23.34-.24.41-.09.21.43.21,1,.78,1.19A.58.58,0,0,1,87.84,76.37Z"/><path class="cls-220" d="M87.56,92.16l.07,4.14c.57.82.08,1.82.46,2.68a7.06,7.06,0,0,1-.13,3.2c-.72.31-.53-.34-.68-.64a7.8,7.8,0,0,0-.39-1.47.71.71,0,0,1,.24-.7c.45-.72.19-1.52.24-2.28A32.68,32.68,0,0,1,87.56,92.16Z"/><path class="cls-219" d="M86.84,69.43a27.3,27.3,0,0,1,.53,3.31A2.94,2.94,0,0,1,87.52,74c-.41.48-.51,0-.62-.23a4.53,4.53,0,0,1,0-1.43c-.08-.19-.11-.19-.1-.11,0,.3.06.57-.38.51a3.17,3.17,0,0,1-.24-1.65A1.38,1.38,0,0,1,86.84,69.43Z"/><path class="cls-221" d="M86.38,72.78c.61-.35-.19-.88.17-1.29.92.73.25,1.91.82,2.72.62.39.47.91.24,1.44-1,.06-.56-.79-.79-1.21,0,0-.08,0-.11,0s-.06,0-.09.08L86.46,74c.08-.32.22-.65-.06-.95A.21.21,0,0,1,86.38,72.78Z"/><path class="cls-222" d="M86,97c-.18-1.69-.77-3.32-.8-5,.66-.12.22.59.54.72l1,4.8C86.2,97.68,86.21,97.16,86,97Z"/><path class="cls-223" d="M86.84,69.43c-.17.6-.66,1.06-.71,1.71A7.74,7.74,0,0,1,86,67.76,2.27,2.27,0,0,1,86.84,69.43Z"/><path class="cls-224" d="M86,97c.37,0,.44.37.71.48l.48,1.88,0,.77a.44.44,0,0,1-.55,0Z"/><path class="cls-225" d="M77,51.9c-.33-.05-.74-.24-.68.4,0,.35,0,.71,0,1.06a1.34,1.34,0,0,1-.09,1.21,7.87,7.87,0,0,1,.1-4.06A1.46,1.46,0,0,1,77,51.9Z"/><path class="cls-226" d="M85.7,92.69,85.16,92a8.15,8.15,0,0,1-.45-2.13c-.06-.29-.33-.65.23-.75A18.23,18.23,0,0,1,85.7,92.69Z"/><path class="cls-227" d="M87.6,75.65c-.07-.48.18-1-.24-1.44q0-.74,0-1.48a8.47,8.47,0,0,1,.74,3.34l-.27.29C87.83,76.11,87.88,75.82,87.6,75.65Z"/><path class="cls-228" d="M84.21,87.48,83.55,85c.07-.09.08-.23.23-.26a5,5,0,0,1,.68,2.2C84.3,87.09,84.43,87.36,84.21,87.48Z"/><path class="cls-229" d="M82.84,81.87c-.09-.72-.8-1.36-.28-2.16a3.17,3.17,0,0,1,.51,1.64C83.14,81.6,83.29,81.87,82.84,81.87Z"/><path class="cls-230" d="M83.78,84.74l-.23.26-.29-1.65c-.09-.23-.23-.49.22-.49A4.52,4.52,0,0,1,83.78,84.74Z"/><path class="cls-231" d="M81.87,78.52l.25-.54.45,1.76C81.82,79.63,82,79,81.87,78.52Z"/><path class="cls-232" d="M83.48,82.87l-.22.49c-.34-.44-.23-1-.43-1.48l.23-.52A3.59,3.59,0,0,1,83.48,82.87Z"/><path class="cls-233" d="M76.28,54.57l.09-1.21c.67.47-.05,1.12.21,1.64,0,.25,0,.53-.2.71Z"/><path class="cls-226" d="M84.21,87.48l.25-.54.3,1.34c0,.25.22.56-.26.57C84.11,88.45,84.27,87.94,84.21,87.48Z"/><path class="cls-228" d="M84.49,88.85c.22-.13.23-.35.26-.57a1.06,1.06,0,0,1,.18.82c-.27.19-.2.49-.23.75A1.41,1.41,0,0,1,84.49,88.85Z"/><path class="cls-219" d="M86.4,73c.59.28.32.61.06.95Z"/><path class="cls-234" d="M83.52,106.61q-.57-5.47-1.13-10.93c0-.35,0-.71-.07-1.07a7.82,7.82,0,0,1-.48-3.36q0-.12,0-.24c-.24-1.94-.47-3.87-.73-5.81a5.15,5.15,0,0,1-.23-1.39c.37-.17.37-.17.63.51.21-.3,0-.73.3-1,1,6.22,1.78,12.45,2.46,18.71.17,1.58.32,3.17.48,4.75a8.73,8.73,0,0,0,.07,2.36,1.09,1.09,0,0,1-.57,1.29q0-.12,0-.24c-.33-.53.23-1.17-.24-1.68C83.7,107.93,83.94,107.19,83.52,106.61Z"/><path class="cls-235" d="M89,130.85a.18.18,0,0,1,0-.22,21,21,0,0,0-.14-2.73c0-.55,0-1,.66-1.15a1.6,1.6,0,0,1,.32,1.14,5.3,5.3,0,0,0,.11,1.71,3.9,3.9,0,0,1,.1.75,3.67,3.67,0,0,0,.15,1.26c.17.73.31,1.46.48,2.18-.14,1.17.43,2.3.2,3.47-.58,1.43-.19,2.93-.31,4.39,0,.53.2,1.24-.62,1.46-.36-2.44-.32-4.91-.48-7.36-.26-.73.1-1.52-.21-2.25l0-.39C89,132.37,89.36,131.58,89,130.85Z"/><path class="cls-236" d="M92.63,149.57c-.18.15-.16.32-.1.53.37,1.23-.28,2.36-.35,3.54-1-.58-.75-1.66-1.07-2.51s-.19-1.54-.39-2.3L90,146v-1.45c.11-.15.08-.45.3-.47s.36.26.42.49a24.25,24.25,0,0,1,.36,2.87c.05.15.21-.11.09,0s-.08,0-.08-.09c0-1-.38-2,.53-2.85.37.25.37.68.52,1A14.45,14.45,0,0,1,92.63,149.57Z"/><path class="cls-237" d="M91.66,144.53l-.57,3.24a13.52,13.52,0,0,1-.61-3.17c0-.68-.29-.12-.45-.07L90,143.1c.6-1.2.15-2.48.26-3.72a3.74,3.74,0,0,1,.47-2.27c.69,1.29.53,2.75.8,4.12.1.5.14,1,.24,1.51S92,144,91.66,144.53Z"/><path class="cls-238" d="M88.05,118.18l-.49-7a24.82,24.82,0,0,1-.05-3.51c1,0,.48.76.67,1.17a13.1,13.1,0,0,1,.58,3,8.09,8.09,0,0,0-.11,1.9,3.68,3.68,0,0,0,.15,1.32,4.06,4.06,0,0,1,0,1.76C88.51,117.27,88.46,117.82,88.05,118.18Z"/><path class="cls-239" d="M89.47,126.77a2.94,2.94,0,0,0-.32,2.56c.08.46.31.9-.13,1.29a7.43,7.43,0,0,1-.24-2.58c-.24-.56.08-1.19-.2-1.75l0-.86c-.23-.66.06-1.36-.18-2l-.06-1.14c0-.63.39-.47.74-.38a1.91,1.91,0,0,1,.35,1.4,3.37,3.37,0,0,0,.14,1.38C89.55,125.37,90.08,126.09,89.47,126.77Z"/><path class="cls-240" d="M89,122c-.28,0-.56,0-.71.3a23.75,23.75,0,0,1-.23-4.09c.1-.44-.09-1,.49-1.24a1.2,1.2,0,0,1,.5.9c.14,1.17.12,2.35.25,3.53A.66.66,0,0,1,89,122Z"/><path class="cls-241" d="M87.86,109c-.1-.47.17-1-.27-1.42-.16-.23-.08-.49-.1-.73a5.6,5.6,0,0,0-.1-1.67,4.62,4.62,0,0,1-.27-1.93c.24-.6-.42-1.41.44-1.87.06.32,0,.68.25.93s.35.75.38,1.18c-.11,1.43.26,2.84.22,4.26C88.39,108.2,88.58,108.81,87.86,109Z"/><path class="cls-242" d="M87.55,101.37c-.5.54.14,1.35-.44,1.87l-.56-3.09h.56C87.34,100.52,87.69,100.86,87.55,101.37Z"/><path class="cls-243" d="M87.57,107l0,.61,0,3.59a17,17,0,0,1-.17-4.38A.2.2,0,0,1,87.57,107Z"/><path class="cls-244" d="M86.65,125.81a2.85,2.85,0,0,1-.05-2.39Z"/><path class="cls-239" d="M89,130.85c.47.71.16,1.5.21,2.25A5.79,5.79,0,0,1,89,130.85Z"/><path class="cls-239" d="M89.28,133.49c.47.71.16,1.5.21,2.25A7.09,7.09,0,0,1,89.28,133.49Z"/><path class="cls-240" d="M88.35,123.41c.42.64.16,1.34.18,2A5,5,0,0,1,88.35,123.41Z"/><path class="cls-245" d="M86.45,122.2c-.81-.33-.41-.76-.09-1.18Z"/><path class="cls-240" d="M88.57,126.29c.44.54.17,1.16.2,1.75A3.51,3.51,0,0,1,88.57,126.29Z"/><path class="cls-242" d="M87.57,107l-.17-.18v-1.61C87.8,105.73,87.56,106.36,87.57,107Z"/><path class="cls-246" d="M81,76.39l-.21-.73.28,0a.61.61,0,0,1,0,.94Z"/><path class="cls-175" d="M84,108.53c.8.46.1,1.13.24,1.68C83.78,109.7,84.09,109.09,84,108.53Z"/><path class="cls-8" d="M84.72,115.25c.46.51.15,1.12.24,1.68C84.5,116.42,84.81,115.81,84.72,115.25Z"/><path class="cls-247" d="M90.73,148.84l.68,2.2c0,.94,0,1.89-.11,2.83A1.66,1.66,0,0,1,91,155.1v.71c-.31.44.06,1-.24,1.44-.14,0-.37.19-.39,0a25.14,25.14,0,0,1,.27-6.38C90.71,150.18,90.66,149.51,90.73,148.84Z"/><path class="cls-248" d="M90.72,157.25c.08-.48-.19-1,.24-1.44q0,1.32,0,2.64h-.23Z"/><path class="cls-249" d="M96.94,152.75,95.54,146c.3-.15.12-.52.44-.83A36.84,36.84,0,0,1,96.94,152.75Z"/><path class="cls-250" d="M98.41,163c-.18.56.33,1.12,0,1.68a11.44,11.44,0,0,1-.26-3.35C98.65,161.82,98.29,162.46,98.41,163Z"/><path class="cls-250" d="M97.65,157.79a1.93,1.93,0,0,1-.18-1.26C98.33,156.84,97.77,157.34,97.65,157.79Z"/><path class="cls-250" d="M98.14,161.36a5.4,5.4,0,0,1-.26-1.94C98.43,160,98.06,160.71,98.14,161.36Z"/><path class="cls-250" d="M97.89,159.44a3,3,0,0,1-.21-1.47A1.38,1.38,0,0,1,97.89,159.44Z"/><path class="cls-250" d="M97.42,156.06a1.3,1.3,0,0,1-.19-1C97.45,155.39,97.67,155.68,97.42,156.06Z"/><path class="cls-164" d="M81.84,91.25a17.57,17.57,0,0,1,.48,3.36A3.3,3.3,0,0,1,81.84,91.25Z"/><path class="cls-251" d="M93.61,144.54h.23l0,1.95a13.6,13.6,0,0,1-.94,3.34h-.07a5.85,5.85,0,0,1-.23-2.22c.19-.52.15-1.09.29-1.62.07-.27.52-.31.41-.69A.91.91,0,0,1,93.61,144.54Z"/><path class="cls-252" d="M94.56,134.93v.25a8.83,8.83,0,0,0-.5,2.88.23.23,0,0,1-.33,0,1.07,1.07,0,0,1-.16-.35,5.92,5.92,0,0,1-.17-1.93,22.51,22.51,0,0,0,.34-3.77c0-.46-.08-1,.33-1.33h.25C94.61,132,94.28,133.5,94.56,134.93Z"/><path class="cls-253" d="M93.91,138.05h.16q0,.84,0,1.69c0,1.61-.53,3.18-.47,4.8l0,.93c-.93-.38-.39-1.21-.57-1.82,0-.35,0-.69,0-1a19,19,0,0,1,.44-3.66C93.55,138.61,93.55,138.24,93.91,138.05Z"/><path class="cls-254" d="M92.88,147.41l0,2.4-.22-.24a19.89,19.89,0,0,1-.72-4.07c-.17-1.78,0-3.57-.12-5.35a3.22,3.22,0,0,1,.19-1.41.43.43,0,0,1,.32-.24c.8.85.35,1.89.45,2.85-.16,1.77.42,3.5.25,5.28C93,146.88,93.07,147.17,92.88,147.41Z"/><path class="cls-248" d="M91,155.1a10.54,10.54,0,0,1,.45-4.06,9.18,9.18,0,0,0,.77,2.61l0,.25c-.76.43-.39,1.31-.83,1.86Z"/><path class="cls-255" d="M93.58,124.37l-.44,2.88L92.86,129c-.65-.16-.47-.72-.55-1.15,0-.59-.26-1.15-.24-1.75-.22-.89-.16-1.83-.41-2.72-.55-3.1-1-6.2-1.28-9.33a3.62,3.62,0,0,0-.09-1.32,3.25,3.25,0,0,1-.09-.55,4.36,4.36,0,0,0-.17-1.27,2.87,2.87,0,0,1,0-1.15c.09-.21.13-.51.44-.43a.63.63,0,0,1,.48.62c0,1.56.71,3,.86,4.51.08.78.59,1.47.4,2.29q.48,3.77,1,7.54C93.17,124.55,93.4,124.42,93.58,124.37Z"/><path class="cls-256" d="M92.4,141.41c-.12-1,.25-2-.24-2.88a.69.69,0,0,1-.22-.31,2.36,2.36,0,0,1,0-1.15,4,4,0,0,0,.12-1.35,18.14,18.14,0,0,1,.27-3.64,1.2,1.2,0,0,1,.55-1l.22,0a.79.79,0,0,1,.28.49,6.64,6.64,0,0,0,.22,1.32,10.73,10.73,0,0,1,0,3c0,.65.36,1.26.23,1.93a1.49,1.49,0,0,0,0,1.16,18.82,18.82,0,0,0-.45,3.64C92.62,142.53,92.94,141.63,92.4,141.41Z"/><path class="cls-257" d="M93.13,131.57l0-.45a.75.75,0,0,1,.56-.88c.33-.09.38.15.42.38a16.06,16.06,0,0,1-.47,5.26l-.26-3.08a1.07,1.07,0,0,1,0-1C93.6,131.37,93.14,131.72,93.13,131.57Z"/><path class="cls-258" d="M92.89,131.09a28.35,28.35,0,0,0-.53,4.79c-.68-.19-.44-.77-.52-1.22s0-1,0-1.47c.3-1.76.06-3.56.41-5.32a.27.27,0,0,1,.36-.14c.13.4,0,.86.27,1.22Z"/><path class="cls-259" d="M92.16,116.69a35.45,35.45,0,0,1-1-4.06,9.1,9.1,0,0,1-.57-2.74c0-.08-.12-1-.44-.08-.43-.12-.49-.5-.52-.85-.18-1.85-.49-3.69-.52-5.56a13.61,13.61,0,0,1,.24-2.2c.08-.47.24-.85.84-.59a9.49,9.49,0,0,0,.24,3.61c.31,2.48.64,5,1,7.43l1,5Z"/><path class="cls-260" d="M90.24,100.61c-.51,0-.57.27-.54.77a10.47,10.47,0,0,1-.21,1.93.58.58,0,0,1-.48-.6c-.12-2-.65-4-.5-6,.16-1.08-.12-2.21.29-3.27h.48a36.93,36.93,0,0,1,.58,4.65C89.87,99,90.25,99.74,90.24,100.61Z"/><path class="cls-243" d="M88.77,96.3a53.5,53.5,0,0,0,.72,7,64.51,64.51,0,0,0,.71,6.5l.09,1.13c.18.4-.05.85.18,1.24l.05.44c.19.42,0,.89.18,1.3.22,3.18.9,6.3,1.25,9.46.09.38.32.79-.22,1a1.62,1.62,0,0,1-.64-1.25,193.14,193.14,0,0,1-3.2-19.75l-.07-1.12q0-1.69,0-3.38a7.56,7.56,0,0,1,0-2.63A7.45,7.45,0,0,0,88,94.11l.17,0c.47.22.27.71.44,1.06A5.21,5.21,0,0,0,88.77,96.3Z"/><path class="cls-261" d="M88,94.11c-.47-1.23-.06-2.5-.26-4a5.24,5.24,0,0,1,.3,3.3.54.54,0,0,1,0,.72Z"/><path class="cls-262" d="M88.77,96.3c-.25-.37-.15-.81-.25-1.2a2.06,2.06,0,0,1,0-1.42l.25-.26A12.11,12.11,0,0,1,88.77,96.3Z"/><path class="cls-263" d="M87.83,96.29l0,2.63c-.41-.85-.11-1.74-.17-2.61Z"/><path class="cls-264" d="M88.55,93.68l0,1.42-.42-.94,0-.72Z"/><path class="cls-156" d="M94.56,134.93c-.51-1.42-.12-2.88-.23-4.32.46.7.12,1.48.23,2.21.07.46-.17,1,.22,1.37Z"/><path class="cls-265" d="M91.38,123.16l.34,1.17a5.65,5.65,0,0,1,.53,1.75c0,.56.17,1.1.1,1.65a36.78,36.78,0,0,1-.24,5.5,6.06,6.06,0,0,0-.08,1.51,5.11,5.11,0,0,0,.09,1.38.85.85,0,0,1-.22.77.26.26,0,0,1-.33-.19c0-1.17,0-2.34,0-3.51,0-1.79,0-3.58-.07-5.37-.11-.15-.19.11-.06,0s.1,0,.11.05c0,1.78,0,3.56,0,5.34-.13,2.33.27,4.64.26,7a7,7,0,0,1,.09,2c0,.3,0,.66-.46.67a49.93,49.93,0,0,1-.74-5.73c0-1.13-.64-2.21-.22-3.37-.53-2.39-.31-4.83-.53-7.24-.28-3.05-.74-6.08-1-9.14.07-.36,0-.91.52-.88s.53.55.57.93c.14,1.5.62,2.93.87,4.41A3.77,3.77,0,0,0,91.38,123.16Z"/><path class="cls-266" d="M89.26,117.2c.28,3.21.88,6.39,1.09,9.61.15,2.31.17,4.62.13,6.93-.46-.66-.33-1.46-.52-2.18-.17-.42,0-.88-.17-1.3l-.06-.62c-.24-.57,0-1.19-.19-1.76l-.08-1.12-.22-2.17c-.2-.4,0-.86-.18-1.25L89,122l-.45-5,0-1.89c0-.31-.28-.7.29-.79C89.57,115.14,89.07,116.23,89.26,117.2Z"/><path class="cls-239" d="M89.55,127.89a4.21,4.21,0,0,1,.19,1.76C89.32,129.1,89.58,128.48,89.55,127.89Z"/><path class="cls-239" d="M89.79,130.26a2.07,2.07,0,0,1,.17,1.3C89.61,131.17,89.8,130.7,89.79,130.26Z"/><path class="cls-267" d="M91.44,142.85c.5-.84.12-1.77.23-2.64a2.74,2.74,0,0,1-.06-1.41.38.38,0,0,1,.55,0q0,2.93,0,5.86c0,.31.07.64-.25.86-.32-.26-.19-.64-.25-1A5.39,5.39,0,0,1,91.44,142.85Z"/><path class="cls-268" d="M89.26,117.2l-.5-2.89c-.27-.3-.16-.71-.31-1.05a4.16,4.16,0,0,1,.06-1.29,15.47,15.47,0,0,0-.66-3c.59-1.34,0-2.69,0-4,0-.51,0-1,0-1.54.81,3.45,1.21,7,1.81,10.47.53,3.1,1,6.2,1.7,9.27-.91-1.45-1-3.13-1.36-4.73a14.58,14.58,0,0,0-.3-1.51c0-.15-.18-.35-.3-.26S89.31,117,89.26,117.2Z"/><path class="cls-269" d="M88.59,113.29a1.31,1.31,0,0,1,.18,1c-.26.18-.13.5-.24.73a2.12,2.12,0,0,1-.16-1.26C88.49,113.64,88.38,113.39,88.59,113.29Z"/><path class="cls-270" d="M88.59,113.29l-.22.49c0-.61-.23-1.23.15-1.81Z"/><path class="cls-240" d="M89.06,123.35a2,2,0,0,1,.18,1.25C88.89,124.23,89.07,123.78,89.06,123.35Z"/><path class="cls-271" d="M92.4,141.41c1-.16.5.9.94,1.19q0,.49,0,1c-.31.69.1,1.46-.23,2.15-.09.56.22,1.18-.24,1.68C93.08,145.38,92.14,143.44,92.4,141.41Z"/><path class="cls-254" d="M93.12,145.73c.1-.72-.23-1.48.23-2.15.13.62-.23,1.31.24,1.89C93.62,145.89,93.4,145.87,93.12,145.73Z"/><path class="cls-272" d="M93.79,139a.81.81,0,0,1,0-1.16l.07.25Z"/><path class="cls-273" d="M92.16,138.77h-.48a3.32,3.32,0,0,1,0-1.92h.21c.37.42,0,1,.26,1.42v.51Z"/><path class="cls-274" d="M92.12,126.06a5,5,0,0,1-.39-1.73c.29-.27.1-.65.21-1a11.63,11.63,0,0,1,.43,2.67Q92.25,126.22,92.12,126.06Z"/><path class="cls-275" d="M92.12,126.06h.24l.23,1.68h-.24A4.54,4.54,0,0,1,92.12,126.06Z"/><path class="cls-259" d="M90.46,112.18a1.9,1.9,0,0,1-.18-1.24C90.62,111.31,90.45,111.76,90.46,112.18Z"/><path class="cls-259" d="M90.69,113.92a2.35,2.35,0,0,1-.18-1.3C90.87,113,90.68,113.48,90.69,113.92Z"/><path class="cls-209" d="M93.13,131.57c.3,0,.11-.68.5-.48s.38.63,0,.79c-.5.24-.23.61-.33.92C93,132.43,93.16,132,93.13,131.57Z"/><path class="cls-276" d="M92,136.14v-1.4a.12.12,0,0,1,.15-.13c.14.41-.1.89.25,1.26a2.16,2.16,0,0,1-.16,1.29C91.88,136.88,92.17,136.45,92,136.14Z"/><path class="cls-277" d="M92,136.14c.3.29.14.68.23,1l0,1.1c-.48-.4-.11-1-.26-1.42Z"/><path class="cls-278" d="M92.11,134.61l-.15.13a2.08,2.08,0,0,1,.16-1.5Z"/><path class="cls-279" d="M91.68,136.85v3.35c-.48-.65-.2-1.38-.22-2.07,0-1.63,0-3.26,0-4.88q.12-.16.23,0Z"/><path class="cls-280" d="M91.68,133.25h-.23q0-2.73,0-5.46h.23Z"/><path class="cls-281" d="M91.32,125.38a3.09,3.09,0,0,1,0,1.73A3.28,3.28,0,0,1,91.32,125.38Z"/></svg>